<svg id="Слой_1" data-name="Слой 1" xmlns="http://www.w3.org/2000/svg" viewBox="0 0 1764.72 1087.71"><defs><style>.cls-1{fill:#d7e9f4;}.cls-2{fill:#fff;}.cls-3{fill:#0e2549;}.cls-4{fill:#a1c5e2;}.cls-5{fill:#d2ebfc;}.cls-6{fill:#2e6b99;}.cls-7{fill:#e2474b;}.cls-8{fill:#1e5272;}</style></defs><title>4428</title><path class="cls-1" d="M369.64,1542.23s-304.83-36.4-244-288.8S469,996,575.86,824.54s253.66-432.92,658.71-353.87c481.53,94,275.85,458.23,366.4,562.18s229.6,97.72,268.15,236.53c72,259.36-180.8,268-249.85,272.85Z" transform="translate(-117.64 -456.14)"/><path class="cls-2" d="M823.14,1307.76c-23.43-31-175.29,116.26-160.72,83.32s63.33-183.36,15.72-198.6-57.57,74.28-102.28,41.18,13.16-182.23-21.29-187.93-22,129-77.16,91.77c-48-32.4-91.78-105.77-117.21-95.43,15.3,22.83,59.21,89.35,106.89,170.73,54.41,92.85,125,224.56,152.24,324.81a1.5,1.5,0,0,1-1.06,1.84,1.32,1.32,0,0,1-.39.06,1.5,1.5,0,0,1-1.45-1.11c-27.17-99.93-97.61-231.38-151.91-324.06-47.82-81.61-91.84-148.26-107-170.83-2.76,1.88-5.27,4.9-7.51,9.28-22.54,44,91.53,172,59.33,192.52s-136.8,32.45-103.8,68.11,197.68,68.44,189.69,108.23-97.78-23.49-126.69,9.38,165,109.34,165,109.34,37,6.39,98.45,1.86S846.57,1338.76,823.14,1307.76Z" transform="translate(-117.64 -456.14)"/><path class="cls-2" d="M1297.57,1398c-28.52-11.2-80.17,78.7-98.31,112.38,3.59-18.4,8.89-39.67,15-61.57,10.55-10.47,145.27-145.07,111.63-158.28-28.37-11.14-79.62,77.76-98,111.84,18-58.45,36.49-110.05,36.82-111l-2.82-1c-.35.95-20.75,57.72-39.5,119.74,3.5-16.31,10.28-69.64-29.48-137.43-44.07-75.15,10.25,136.69,19.44,171.87-7.55,27-14,53.25-17.7,74.6-1.2,2.31-1.85,3.61-1.85,3.61s19.83-60.77-28.17-142.61,0,152.56,0,152.56l30.08-3.65,1.41.19c0-.12,0-.25,0-.37l24.29-3S1332.57,1411.76,1297.57,1398Z" transform="translate(-117.64 -456.14)"/><path class="cls-2" d="M1536.19,839.76c-18-13.24-52.78,26.43-78.15,60.9,6.58-19.72,12.93-41,18.2-59.42,21.44-36.53,76.24-136.41,42.14-148.51-33.31-11.81-47.2,127.61-49.72,156.61-6.24,21.39-13.61,45.28-20.91,65.7l-1.25,1.8c9.77-22.12,17.13-57.28,3.66-106.2-25.2-91.48-38.49,165.89-38.49,165.89S1566.44,862.09,1536.19,839.76Z" transform="translate(-117.64 -456.14)"/><rect class="cls-2" x="1268.77" y="468.07" width="416.4" height="617.71"/><path class="cls-3" d="M1804.32,1543.42H1384.91V922.71h419.41Zm-416.41-3h413.41V925.71H1387.91Z" transform="translate(-117.64 -456.14)"/><circle class="cls-4" cx="1498.32" cy="1029.69" r="37.47" transform="translate(-397.63 195.62) rotate(-22.5)"/><path class="cls-3" d="M1492.42,1038.49l-30-32.18a1.5,1.5,0,0,1,2.19-2l28.07,30.12,56.44-46.53a1.5,1.5,0,0,1,1.91,2.32Z" transform="translate(-117.64 -456.14)"/><path class="cls-3" d="M1498.32,1261.1a39,39,0,1,1,39-39A39,39,0,0,1,1498.32,1261.1Zm0-74.95a36,36,0,1,0,36,36A36,36,0,0,0,1498.32,1186.15Z" transform="translate(-117.64 -456.14)"/><path class="cls-3" d="M1498.32,1453.53a39,39,0,1,1,39-39A39,39,0,0,1,1498.32,1453.53Zm0-75a36,36,0,1,0,36,36A36,36,0,0,0,1498.32,1378.58Z" transform="translate(-117.64 -456.14)"/><path class="cls-3" d="M1767.9,1002.26h-201a1.5,1.5,0,0,1,0-3h201a1.5,1.5,0,0,1,0,3Z" transform="translate(-117.64 -456.14)"/><path class="cls-3" d="M1627.11,1043.9h-57a1.5,1.5,0,0,1,0-3h57a1.5,1.5,0,1,1,0,3Z" transform="translate(-117.64 -456.14)"/><path class="cls-3" d="M245.74,1085.84l3.56-2.93a1.5,1.5,0,0,0-1.91-2.32l-4.2,3.46c-11.31-7.43-26.91-12-44.12-12-34.46,0-62.5,18.45-62.5,41.14s28,41.14,62.5,41.14c1.41,0,2.88,0,4.47-.11,7.32,11.85,19.16,29.32,19.29,29.5l1.8,2.66,11.4-40c16-7.73,25.54-20.1,25.54-33.2C261.57,1102.68,255.58,1093.11,245.74,1085.84Zm-11.6,58.1-.62.29-10,35.11c-3.71-5.51-12.31-18.39-17.88-27.48l-.47-.76-.89.05c-1.88.1-3.58.15-5.2.15-32.81,0-59.5-17.11-59.5-38.14s26.69-38.14,59.5-38.14c16.25,0,31,4.2,41.74,11L191,1127.12,162.89,1097a1.5,1.5,0,0,0-2.2,2l30,32.18,52.72-43.47c9.42,6.75,15.16,15.65,15.16,25.4C258.57,1125.24,249.44,1136.74,234.14,1143.94Z" transform="translate(-117.64 -456.14)"/><rect class="cls-4" x="794.68" y="857.27" width="167.34" height="155.33"/><rect class="cls-5" x="424.44" y="238.83" width="897.23" height="645.37" rx="27.14"/><path class="cls-3" d="M1412.17,1341.84H569.22a28.68,28.68,0,0,1-28.64-28.64V722.11a28.68,28.68,0,0,1,28.64-28.64h843a28.67,28.67,0,0,1,28.64,28.64V1313.2A28.67,28.67,0,0,1,1412.17,1341.84ZM569.22,696.47a25.67,25.67,0,0,0-25.64,25.64V1313.2a25.67,25.67,0,0,0,25.64,25.64h843a25.67,25.67,0,0,0,25.64-25.64V722.11a25.67,25.67,0,0,0-25.64-25.64Z" transform="translate(-117.64 -456.14)"/><rect class="cls-2" x="478.52" y="282.95" width="796.67" height="517.62"/><path class="cls-3" d="M1394.33,1258.22H594.66V737.6h799.67Zm-796.67-3h793.67V740.6H597.66Z" transform="translate(-117.64 -456.14)"/><rect class="cls-6" x="705.5" y="1010.66" width="345.69" height="75.42"/><circle class="cls-4" cx="1265.36" cy="776.3" r="9.71" transform="translate(101.47 1373.31) rotate(-76.72)"/><circle class="cls-4" cx="1182.8" cy="319.99" r="9.71"/><path class="cls-4" d="M1345.22,776.14a9.71,9.71,0,1,1-9.7-9.71A9.7,9.7,0,0,1,1345.22,776.14Z" transform="translate(-117.64 -456.14)"/><rect class="cls-7" x="691.49" y="618.85" width="361.42" height="180.19"/><polygon class="cls-4" points="1041.39 510.29 706.16 510.29 666.35 593.11 666.35 645.43 1068.63 645.43 1068.63 593.11 1041.39 510.29"/><path class="cls-3" d="M1101.4,987.73a12.36,12.36,0,0,1-12.31,12.31H883.76a12.31,12.31,0,0,1,0-24.62h205.33A12.35,12.35,0,0,1,1101.4,987.73Z" transform="translate(-117.64 -456.14)"/><polygon class="cls-2" points="947.73 483.39 940.49 518.01 935.43 542.2 806.56 542.2 811.62 518.01 824.07 458.43 947.73 483.39"/><path class="cls-3" d="M1054.29,999.85H922.35l18.2-87,126.6,25.55Zm-128.25-3h125.82l11.74-56.14L942.88,916.34Z" transform="translate(-117.64 -456.14)"/><path class="cls-4" d="M974.93,958.56a14.14,14.14,0,1,1-11-16.7A14.15,14.15,0,0,1,974.93,958.56Z" transform="translate(-117.64 -456.14)"/><path class="cls-3" d="M938.38,999.85a1.54,1.54,0,0,1-.84-.26,1.52,1.52,0,0,1-.4-2.09,15.66,15.66,0,0,1,25.88,0,1.5,1.5,0,1,1-2.48,1.69,12.65,12.65,0,0,0-20.91,0A1.51,1.51,0,0,1,938.38,999.85Z" transform="translate(-117.64 -456.14)"/><path class="cls-3" d="M1042.55,964.06l-.3,0L988.38,953A1.5,1.5,0,1,1,989,950l53.87,11.07a1.49,1.49,0,0,1-.3,3Z" transform="translate(-117.64 -456.14)"/><path class="cls-3" d="M1010.71,975.88l-.3,0-25.65-5.27a1.5,1.5,0,1,1,.6-2.94l25.65,5.27a1.5,1.5,0,0,1-.3,3Z" transform="translate(-117.64 -456.14)"/><path class="cls-3" d="M959.42,959.85l-10.33-17.13a1.5,1.5,0,0,1,2.57-1.55l8.81,14.62,30.85-17.63a1.5,1.5,0,1,1,1.48,2.6Z" transform="translate(-117.64 -456.14)"/><rect class="cls-2" x="774.48" y="678.37" width="181.67" height="66" rx="28.34"/><path class="cls-3" d="M1045.45,1202h-125a29.87,29.87,0,0,1-29.85-29.84v-9.31A29.88,29.88,0,0,1,920.47,1133h125a29.88,29.88,0,0,1,29.84,29.85v9.31A29.87,29.87,0,0,1,1045.45,1202Zm-125-66a26.88,26.88,0,0,0-26.85,26.85v9.31A26.87,26.87,0,0,0,920.47,1199h125a26.87,26.87,0,0,0,26.84-26.84v-9.31a26.88,26.88,0,0,0-26.84-26.85Z" transform="translate(-117.64 -456.14)"/><path class="cls-3" d="M931.16,1184,917,1152h4.43l7.52,17.34c2.77,6.4,3.86,9.27,4.47,11h.09c.49-1.51,2.09-5.22,4.11-10.1l8-18.27H950l-14.35,32Z" transform="translate(-117.64 -456.14)"/><path class="cls-3" d="M985.76,1167.89c0,9.07-6.15,16.77-16.75,16.77-10.23,0-16.72-7.4-16.72-16.8,0-8.89,6.62-16.56,16.81-16.56A16.23,16.23,0,0,1,985.76,1167.89Zm-29.17-.15c0,7,4.36,13.46,12.53,13.46s12.34-6,12.34-13.22c0-6.77-4.38-13.22-12.62-13.22C961.2,1154.76,956.59,1160.78,956.59,1167.74Z" transform="translate(-117.64 -456.14)"/><path class="cls-3" d="M1000.71,1155.47H988.37V1152h28.75v3.49h-12.33V1184h-4.08Z" transform="translate(-117.64 -456.14)"/><path class="cls-3" d="M1045.94,1168.88h-19.4v11.64h21.38l-.57,3.47H1022.5v-32H1047v3.47h-20.41v10h19.4Z" transform="translate(-117.64 -456.14)"/><path class="cls-3" d="M994.49,1320.57a21.1,21.1,0,1,1,21.1-21.1A21.12,21.12,0,0,1,994.49,1320.57Zm0-39.2a18.1,18.1,0,1,0,18.1,18.1A18.11,18.11,0,0,0,994.49,1281.37Z" transform="translate(-117.64 -456.14)"/><path class="cls-3" d="M1379.15,1311.21a12.77,12.77,0,1,1,12.77-12.77A12.78,12.78,0,0,1,1379.15,1311.21Zm0-22.54a9.77,9.77,0,1,0,9.77,9.77A9.78,9.78,0,0,0,1379.15,1288.67Z" transform="translate(-117.64 -456.14)"/><path class="cls-3" d="M1880.86,1543.42H125.68a1.5,1.5,0,0,1,0-3H1880.86a1.5,1.5,0,0,1,0,3Z" transform="translate(-117.64 -456.14)"/><path class="cls-5" d="M974.43,1028.27h320.28a0,0,0,0,1,0,0v57.51a0,0,0,0,1,0,0H974.14a0,0,0,0,1,0,0v-57.22A.29.29,0,0,1,974.43,1028.27Z"/><path class="cls-2" d="M1038.44,1516.57l53.16,25.26a.15.15,0,0,0,.21-.13v-57.06a.14.14,0,0,0-.21-.13l-53.16,25.26A3.76,3.76,0,0,0,1038.44,1516.57Z" transform="translate(-117.64 -456.14)"/><path class="cls-3" d="M1092.07,1482.91a4.59,4.59,0,0,0-1.11.25l-53.16,25.25a5.26,5.26,0,0,0,0,9.51l52.49,25.5h323.56v-60.51Zm-1.78,56.63-29.18-13.86c-.42-2.71-.4-21.59-.4-24.84l29.58-14Zm3-53.63h281.93v16.28H1093.31Zm0,19.28h281.93v16.12H1093.31Zm0,19.12h281.93v16.11H1093.31Z" transform="translate(-117.64 -456.14)"/><path class="cls-3" d="M955.68,1540,815.14,1035.9l-13.78,49.41H721l12.1-43.43a1.49,1.49,0,0,0-1-1.84,1.5,1.5,0,0,0-1.85,1l-12.33,44.23H703.82a1.5,1.5,0,0,0,0,3h13.26l-13.9,49.83H689.85a1.5,1.5,0,0,0,0,3h12.49L688.45,1191H678.14a1.5,1.5,0,1,0,0,3h9.47l-13.89,49.83h-11.3a1.5,1.5,0,0,0,0,3h10.46L659,1296.65h-8.72a1.5,1.5,0,0,0,0,3h7.88l-13.9,49.83h-9.69a1.5,1.5,0,0,0,0,3h8.86l-13.9,49.84H619.37a1.5,1.5,0,0,0,0,3h9.32l-13.9,49.83H604.18a1.5,1.5,0,1,0,0,3H614L600.06,1508H587.94a1.5,1.5,0,0,0,0,3h11.28l-8.08,29a1.51,1.51,0,0,0,1.05,1.85,1.83,1.83,0,0,0,.4,0,1.48,1.48,0,0,0,1.44-1.1l8.31-29.78h80.33l-8.08,29a1.5,1.5,0,1,0,2.89.8l8.31-29.78H695a1.5,1.5,0,0,0,0-3h-8.42l13.9-49.84h10.75a1.5,1.5,0,0,0,0-3h-9.92l13.9-49.83h11.21a1.5,1.5,0,0,0,0-3H716.09L730,1352.48h11.67a1.5,1.5,0,1,0,0-3H730.82l13.89-49.83h12.66a1.5,1.5,0,0,0,0-3H745.55l13.89-49.84h10.07a1.5,1.5,0,0,0,0-3h-9.23l13.9-49.83h11.05a1.5,1.5,0,0,0,0-3H775l13.9-49.84h8a1.5,1.5,0,0,0,0-3h-7.21l13.9-49.83h7.27a1.5,1.5,0,0,0,0-3h-6.43l10.66-38.24,137.65,493.7a1.5,1.5,0,0,0,1.45,1.1,1.83,1.83,0,0,0,.4,0A1.5,1.5,0,0,0,955.68,1540Zm-272.17-32H603.17l13.9-49.84H697.4Zm14.73-52.84H617.91l13.89-49.83h80.34ZM713,1402.32H632.64l13.89-49.84h80.34Zm14.73-52.84H647.37l13.89-49.83H741.6Zm14.74-52.83H662.1l13.9-49.84h80.33Zm14.73-52.84H676.83l13.9-49.83h80.33ZM771.9,1191H691.56l13.9-49.84h80.33Zm14.73-52.84H706.29l13.9-49.83h80.33Z" transform="translate(-117.64 -456.14)"/><path class="cls-3" d="M1746.08,1539.28l-9.61-34.09h7.92a1.5,1.5,0,0,0,0-3h-8.76l-14.05-49.83h7.09a1.5,1.5,0,0,0,0-3h-7.93l-14-49.84h9.84a1.5,1.5,0,1,0,0-3h-10.69l-14-49.83h9a1.5,1.5,0,0,0,0-3H1691l-14-49.84h12.19a1.5,1.5,0,0,0,0-3h-13L1662,1241h13.11a1.5,1.5,0,0,0,0-3h-14l-12.47-44.23a1.5,1.5,0,1,0-2.88.82l12.23,43.41h-80.33l-12.47-44.23-1.26-4.48-127.25,349.88a1.5,1.5,0,1,0,2.82,1l124.07-341.12,11,38.93H1568a1.5,1.5,0,0,0,0,3h7.41l14,49.84H1582a1.5,1.5,0,0,0,0,3h8.34l14.05,49.84h-10.68a1.5,1.5,0,0,0,0,3h11.52l14,49.83h-9.84a1.5,1.5,0,0,0,0,3h10.68l14.05,49.84h-12.59a1.5,1.5,0,0,0,0,3H1635l14,49.83H1637.3a1.5,1.5,0,1,0,0,3h12.61l9.83,34.91a1.51,1.51,0,0,0,1.45,1.09,1.39,1.39,0,0,0,.4-.06,1.49,1.49,0,0,0,1-1.85l-9.61-34.09h80.34l9.83,34.91a1.5,1.5,0,0,0,1.44,1.09,1.4,1.4,0,0,0,.41-.06A1.5,1.5,0,0,0,1746.08,1539.28ZM1578.57,1241h80.33l14,49.84h-80.34Zm14.89,52.84h80.33l14,49.84H1607.5Zm14.89,52.84h80.33l14,49.83h-80.34Zm14.89,52.83h80.33l14,49.84h-80.33Zm28.94,102.67-14-49.83h80.33l14,49.83Z" transform="translate(-117.64 -456.14)"/><path class="cls-7" d="M749.29,851.05c-.16.62-.32,1.24-.49,1.84-7.08,25.73-19.23,33.84-25.58,31.47a6.53,6.53,0,0,1-4-5.37c-2-11.33,12.54-34.89,12.54-34.89S758.5,815.25,749.29,851.05Z" transform="translate(-117.64 -456.14)"/><path class="cls-7" d="M769.47,862.87c-.48,2.77-2.06,4.56-4.29,5.09-6,1.43-16.63-6.39-22.85-29.43-.11-.39-.21-.78-.31-1.18-8.41-32.68,14.08-9.22,14.08-9.22S771.26,852.53,769.47,862.87Z" transform="translate(-117.64 -456.14)"/><path class="cls-3" d="M765.18,868c-6,1.43-16.63-6.39-22.85-29.43l4.25-1.14S746.87,855.58,765.18,868Z" transform="translate(-117.64 -456.14)"/><path class="cls-3" d="M748.8,852.89c-7.08,25.73-19.23,33.84-25.58,31.47,19.81-11,22.2-34.44,22.2-34.44Z" transform="translate(-117.64 -456.14)"/><path class="cls-6" d="M815.47,707.37a31.88,31.88,0,0,0-12.06-14c-1.16-.76-17.52-13-18.84-13.66-10.28-5.2-92,10.54-105.88,11.17-1.08.05-6.65,6.54-9.12,13.9-1.49,4.43-2.06,9.17-.1,13,.63,1.23,3,5.27,5.44,9.39l54.1,93.5,5.21,9-1.88,5.63-2.63,7.83,20.14,11.25,66.32-122.58C818.4,727.42,819.79,717.14,815.47,707.37Zm-67,79.82-3.64,10.87-2.51-8.22-19.78-69.91,23-16.55,25.32,21.38Z" transform="translate(-117.64 -456.14)"/><path class="cls-8" d="M750.69,707.7l-5.62-3.44-5.53,3.47c-14.19-10.16-42.75-13.94-61.75-16.24a59.19,59.19,0,0,1,13.93-13.63s12.81-.76,13.89-.8c13.9-.64,68.68-2.5,79,2.7,1.32.68,17.68,12.9,18.84,13.66C809.43,697.34,756.65,700.62,750.69,707.7Z" transform="translate(-117.64 -456.14)"/><path class="cls-2" d="M746.14,517.21s-3.22,24.28-5.83,26.67-14.86,6.74-14.86,6.74l34,30.52,26.86-19.64S775,554,774.37,550.66c-.85-4.67,3.44-28,3.44-28Z" transform="translate(-117.64 -456.14)"/><path class="cls-3" d="M759.35,583.07l-36.78-33,2.38-.85c4.62-1.65,12.61-4.85,14.34-6.44,1.39-1.46,3.87-14.5,5.36-25.75l3,.39c-.77,5.82-3.5,25-6.3,27.58-2.1,1.92-9.2,4.75-13,6.18l31.24,28,24.16-17.66c-3.73-2.59-10.25-7.5-10.81-10.62-.88-4.81,3-26.17,3.43-28.59l2.95.54c-1.7,9.29-4,24.28-3.43,27.52.3,1.64,6.08,6.41,11.29,9.84l1.8,1.19Z" transform="translate(-117.64 -456.14)"/><path class="cls-3" d="M760.63,469.14s-15.44-.31-17,8.72c-1.75,10.3-2.27,23.84-2.42,31a5.69,5.69,0,0,0,4.74,5.73l31.18,5.31a5.7,5.7,0,0,0,6.43-4c2.72-9.37,8.3-29.22,7.68-32.46C789.17,472.38,760.63,469.14,760.63,469.14Z" transform="translate(-117.64 -456.14)"/><path class="cls-2" d="M753.61,526.84c8.67,2.53,20,2.74,23.57.19,2.11-1.49,4-8.47,5.62-16.54a.69.69,0,0,1,.44-.5c2.4-.88,6-3,6.61-7.06.51-3.5-2.23-3.21-4.47-2.44a.56.56,0,0,1-.74-.62c1.5-9.8,2.4-18.47,2.4-18.47l-39.54-6.73s-1.4,8.72-2.69,18.56a.56.56,0,0,1-.92.36c-1.89-1.56-4.6-3-5.3.6-.88,4.54,2.71,8.07,4.64,9.42a.67.67,0,0,1,.28.62c-.72,7-1.07,13-.48,15.31a6.73,6.73,0,0,0,2.35,3.37Z" transform="translate(-117.64 -456.14)"/><path class="cls-3" d="M767.85,530.32a55.21,55.21,0,0,1-14.66-2.05,1.5,1.5,0,1,1,.84-2.87c9.12,2.66,19.47,2.41,22.29.41.53-.38,2.46-2.61,5-15.61a2.2,2.2,0,0,1,1.39-1.62c1.52-.56,5.11-2.24,5.65-5.87.11-.79,0-1.1-.06-1.12s-.81-.24-2.45.32a2.07,2.07,0,0,1-2.71-2.27c1.14-7.37,1.93-14.16,2.25-17l-36.65-6.25c-.46,2.91-1.49,9.69-2.45,17a2.07,2.07,0,0,1-3.37,1.32c-1.5-1.25-2.29-1.37-2.45-1.31s-.27.25-.42,1c-.85,4.36,3.52,7.55,4,7.9a2.16,2.16,0,0,1,.92,2c-1.07,10.47-.79,13.76-.52,14.79a5.32,5.32,0,0,0,1.86,2.59,1.49,1.49,0,0,1,.19,2.11,1.51,1.51,0,0,1-2.12.19,8.14,8.14,0,0,1-2.83-4.14c-.56-2.16-.44-7.19.39-15.37-2.87-2.17-5.73-6.12-4.86-10.64.34-1.75,1.14-2.86,2.36-3.3s2.51-.14,4.06.86c1.21-9.1,2.48-17,2.49-17l.24-1.5,42.42,7.23-.15,1.4c0,.08-.83,8-2.19,17.11a4.46,4.46,0,0,1,3.89.61c1,.82,1.36,2.12,1.1,3.87-.71,4.87-4.94,7.19-7.14,8.08-2.64,13.22-4.76,16-6.14,17C776,529.7,772.2,530.32,767.85,530.32Z" transform="translate(-117.64 -456.14)"/><path class="cls-3" d="M746.51,475.54c4.92,8.84,31.19,21.19,48.7-2.5s-23.1-9.59-35.9-8C753.83,465.72,742.29,468,746.51,475.54Z" transform="translate(-117.64 -456.14)"/><path class="cls-2" d="M623.07,667.76S615.65,678,609.61,682s-33,3.16-33,10,37,3.47,41.25,0,17.75-15.76,17.75-15.76Z" transform="translate(-117.64 -456.14)"/><path class="cls-3" d="M591.17,697.38c-5.63,0-10.64-.52-13.34-1.81-2.28-1.08-2.76-2.56-2.76-3.6,0-5.35,9.65-6.7,19.86-8.13,5.75-.81,11.69-1.64,13.85-3.08,5.75-3.8,13-13.77,13.07-13.87l.86-1.18L638,676l-1.41,1.29c-.55.5-13.55,12.35-17.82,15.81C616.08,695.31,602.4,697.38,591.17,697.38Zm32.25-27.57c-2.17,2.85-7.95,10.13-13,13.46-2.73,1.8-8.46,2.61-15.09,3.54-6.47.9-17.28,2.42-17.28,5.16,0,.24.4.59,1,.9,7.12,3.39,34.39.67,37.76-2.07s12.7-11.18,16.27-14.42Z" transform="translate(-117.64 -456.14)"/><path class="cls-3" d="M749.3,695.73l3.32-7.28-10.55-15.37a1.5,1.5,0,1,0-2.47,1.7l9.59,14-3.19,7-39.61,18.34,27.12,81.68a1.5,1.5,0,0,0,1.43,1,1.58,1.58,0,0,0,.47-.07,1.5,1.5,0,0,0,1-1.9l-26.28-79.13,34.16-15.82a1.49,1.49,0,0,0,.87,1.43,1.58,1.58,0,0,0,.63.13,1.49,1.49,0,0,0,1.36-.88l.91-2,28.14,23.84L736.34,839.58a1.5,1.5,0,0,0,.93,1.91,1.67,1.67,0,0,0,.49.08,1.52,1.52,0,0,0,1.42-1l40.47-119.11Z" transform="translate(-117.64 -456.14)"/><path class="cls-7" d="M843.61,717.73s-20,5.27-22.26,6.12c-5.19,2-8.07-66.31-12.11-71.75-2.09-2.81-15.92-30.81-17-30.67-3,.38-2.5,59.07-6.34,59.22-25.79,1-93-2.36-94.18-2.79-2.28-.85,7.85-62.6,7.85-62.6-4.31,5.35-14.46,30.86-26.5,43.5a120.28,120.28,0,0,1-41.17,28c-2.22-2.23-14.57-14.11-15.33-17-1.16-4.4,28.18-33.38,30.63-37.5l42.22-70.14,31.4-14.6a9.79,9.79,0,0,1,8,2.39C750.54,569.28,776,562,785.29,558.4a9.7,9.7,0,0,1,7.55.19l22.23,17.89,33,63.48C849.88,648.69,852.11,715,843.61,717.73Z" transform="translate(-117.64 -456.14)"/><path class="cls-3" d="M493.31,971.17h0a1.51,1.51,0,0,1-1.5-1.51l.11-25.28a1.5,1.5,0,0,1,1.5-1.49h0a1.5,1.5,0,0,1,1.49,1.51l-.11,25.28A1.5,1.5,0,0,1,493.31,971.17Z" transform="translate(-117.64 -456.14)"/><path class="cls-3" d="M1059.32,645.83a1.47,1.47,0,0,1-.73-.19,1.5,1.5,0,0,1-.57-2l19.12-33.93a1.5,1.5,0,0,1,2-.57,1.49,1.49,0,0,1,.57,2l-19.12,33.93A1.48,1.48,0,0,1,1059.32,645.83Z" transform="translate(-117.64 -456.14)"/><path class="cls-3" d="M1035.46,651.42a1.5,1.5,0,0,1-1.37-.89l-10.38-23a1.5,1.5,0,0,1,2.74-1.23l10.38,23a1.5,1.5,0,0,1-1.37,2.12Z" transform="translate(-117.64 -456.14)"/><path class="cls-3" d="M470.73,984.79a1.55,1.55,0,0,1-.89-.29l-31.37-23.09a1.5,1.5,0,1,1,1.78-2.41l31.37,23.08a1.5,1.5,0,0,1-.89,2.71Z" transform="translate(-117.64 -456.14)"/><polygon class="cls-8" points="626.89 341.5 616.27 373.2 611.05 364.19 624.38 333.28 626.89 341.5"/><path class="cls-3" d="M732.76,874a1.5,1.5,0,0,1-.62-.13l-9.55-4.39a1.5,1.5,0,0,1,1.26-2.73l9.54,4.39a1.5,1.5,0,0,1-.63,2.86Z" transform="translate(-117.64 -456.14)"/><path class="cls-3" d="M735.13,867.17a1.53,1.53,0,0,1-.62-.13L725,862.65a1.5,1.5,0,0,1,1.26-2.73l9.54,4.39a1.5,1.5,0,0,1-.63,2.86Z" transform="translate(-117.64 -456.14)"/><path class="cls-3" d="M737.54,860.33a1.55,1.55,0,0,1-.63-.13l-9.54-4.39a1.5,1.5,0,0,1,1.25-2.73l9.54,4.39a1.5,1.5,0,0,1-.62,2.86Z" transform="translate(-117.64 -456.14)"/><path class="cls-3" d="M756.5,858.42a1.51,1.51,0,0,1-.63-2.87l9.55-4.39a1.51,1.51,0,0,1,2,.74,1.49,1.49,0,0,1-.74,2l-9.54,4.39A1.6,1.6,0,0,1,756.5,858.42Z" transform="translate(-117.64 -456.14)"/><path class="cls-3" d="M754,851.9a1.5,1.5,0,0,1-.62-2.86l9.54-4.39a1.5,1.5,0,0,1,1.26,2.72l-9.55,4.39A1.41,1.41,0,0,1,754,851.9Z" transform="translate(-117.64 -456.14)"/><path class="cls-3" d="M774.25,502.67a1.23,1.23,0,0,1-.27,0,1.5,1.5,0,0,1-1.21-1.74l.17-.93a1.5,1.5,0,1,1,2.95.54l-.17.92A1.49,1.49,0,0,1,774.25,502.67Z" transform="translate(-117.64 -456.14)"/><path class="cls-3" d="M755.92,499.55l-.24,0a1.5,1.5,0,0,1-1.24-1.72l.15-.93a1.5,1.5,0,1,1,3,.48l-.15.93A1.49,1.49,0,0,1,755.92,499.55Z" transform="translate(-117.64 -456.14)"/><path class="cls-3" d="M759.38,494.82a1.44,1.44,0,0,1-.63-.14,7.79,7.79,0,0,0-5.51-.13,1.5,1.5,0,1,1-1.08-2.8A10.72,10.72,0,0,1,760,492a1.5,1.5,0,0,1-.64,2.85Z" transform="translate(-117.64 -456.14)"/><path class="cls-3" d="M778.85,499.11a1.5,1.5,0,0,1-1-.36,7.86,7.86,0,0,0-5.25-1.7,1.5,1.5,0,0,1-.29-3,10.81,10.81,0,0,1,7.49,2.41,1.5,1.5,0,0,1-1,2.64Z" transform="translate(-117.64 -456.14)"/><path class="cls-3" d="M763.24,510.92h-.13a1.5,1.5,0,0,1,0-3h.07a20.69,20.69,0,0,0,3.09-.22,19.77,19.77,0,0,1-2-5.89,1.5,1.5,0,0,1,2.94-.59,15.71,15.71,0,0,0,1.85,5.36,2.71,2.71,0,0,1,.42,2.43C769.31,509.58,768.82,510.92,763.24,510.92Zm3.46-2.47h0Z" transform="translate(-117.64 -456.14)"/><path class="cls-3" d="M769.81,513.76c.45,1-3.13,3.51-6.67,2.74-5.77-1.25-6.9-5.54-5.54-5a17.61,17.61,0,0,0,5.91,2.45C767.25,514.66,769.51,513.09,769.81,513.76Z" transform="translate(-117.64 -456.14)"/><rect class="cls-2" x="808.04" y="737.83" width="126.24" height="169.71" transform="translate(-350.17 -99.94) rotate(-20.45)"/><path class="cls-3" d="M840.78,926.18,780.44,764.35l121.09-45.16L961.87,881ZM784.3,766.11l58.24,156.21L958,879.26,899.77,723.05Z" transform="translate(-117.64 -456.14)"/><path class="cls-2" d="M833.86,784.88a14.14,14.14,0,1,1-18.19-8.31A14.13,14.13,0,0,1,833.86,784.88Z" transform="translate(-117.64 -456.14)"/><path class="cls-3" d="M820.63,805.47a15.64,15.64,0,0,1-5.49-30.3,15.63,15.63,0,0,1,20.13,9.19h0a15.66,15.66,0,0,1-14.64,21.11Zm0-28.3a12.66,12.66,0,1,0,11.84,8.24h0a12.66,12.66,0,0,0-11.84-8.24Z" transform="translate(-117.64 -456.14)"/><path class="cls-4" d="M852.43,834.7a14.14,14.14,0,1,1-18.19-8.31A14.14,14.14,0,0,1,852.43,834.7Z" transform="translate(-117.64 -456.14)"/><path class="cls-2" d="M870.37,882.8a14.14,14.14,0,1,1-18.19-8.31A14.14,14.14,0,0,1,870.37,882.8Z" transform="translate(-117.64 -456.14)"/><path class="cls-3" d="M857.13,903.38a15.64,15.64,0,1,1,14.64-21.11h0a15.65,15.65,0,0,1-14.64,21.11Zm0-28.29A12.65,12.65,0,1,0,869,883.32h0A12.66,12.66,0,0,0,857.1,875.09Z" transform="translate(-117.64 -456.14)"/><path class="cls-2" d="M841.76,771.59l51.54-19.21Z" transform="translate(-117.64 -456.14)"/><path class="cls-3" d="M841.76,773.09a1.5,1.5,0,0,1-.52-2.9L892.77,751a1.5,1.5,0,0,1,1.05,2.81L842.29,773A1.64,1.64,0,0,1,841.76,773.09Z" transform="translate(-117.64 -456.14)"/><path class="cls-2" d="M848.05,788.44l24.54-9.15Z" transform="translate(-117.64 -456.14)"/><path class="cls-3" d="M848.05,789.94a1.5,1.5,0,0,1-.53-2.9l24.54-9.15a1.5,1.5,0,0,1,1.05,2.81l-24.54,9.15A1.58,1.58,0,0,1,848.05,789.94Z" transform="translate(-117.64 -456.14)"/><path class="cls-2" d="M857.71,818.1l51.53-19.21Z" transform="translate(-117.64 -456.14)"/><path class="cls-3" d="M857.71,819.6a1.5,1.5,0,0,1-.53-2.9l51.54-19.22a1.5,1.5,0,0,1,1,2.81l-51.54,19.22A1.58,1.58,0,0,1,857.71,819.6Z" transform="translate(-117.64 -456.14)"/><path class="cls-2" d="M864,835l24.54-9.15Z" transform="translate(-117.64 -456.14)"/><path class="cls-3" d="M864,836.45a1.5,1.5,0,0,1-.52-2.9L888,824.4a1.5,1.5,0,1,1,1,2.81l-24.54,9.15A1.58,1.58,0,0,1,864,836.45Z" transform="translate(-117.64 -456.14)"/><path class="cls-2" d="M879.16,871.88l51.53-19.22Z" transform="translate(-117.64 -456.14)"/><path class="cls-3" d="M879.16,873.38a1.5,1.5,0,0,1-.53-2.91l51.54-19.21a1.5,1.5,0,1,1,1,2.81l-51.53,19.21A1.37,1.37,0,0,1,879.16,873.38Z" transform="translate(-117.64 -456.14)"/><path class="cls-2" d="M885.44,888.73,910,879.58Z" transform="translate(-117.64 -456.14)"/><path class="cls-3" d="M885.44,890.23a1.5,1.5,0,0,1-.52-2.91l24.54-9.15a1.5,1.5,0,0,1,1,2.81L886,890.13A1.37,1.37,0,0,1,885.44,890.23Z" transform="translate(-117.64 -456.14)"/><path class="cls-3" d="M839,844l-17.84-9a1.5,1.5,0,0,1,1.35-2.68L837.75,840l16.78-31.31a1.5,1.5,0,0,1,2.65,1.41Z" transform="translate(-117.64 -456.14)"/><path class="cls-2" d="M828.07,746.09c.58,4.35,10.06,15.85,13.69,15.9s10.64-16.94,9.48-19.89c-2.8-7.1-3-7.53-13.8-24.71-.29-.48-9.12.94-11,1.18-2.93.38-1.93,4-1.25,10.44C825.83,735,827.68,743.15,828.07,746.09Z" transform="translate(-117.64 -456.14)"/><path class="cls-3" d="M841.78,763.49h0c-4.75-.07-14.56-12.74-15.16-17.21h0c-.13-1-.48-2.82-.87-4.88-.71-3.74-1.6-8.38-2-12.23-.1-1-.22-1.92-.32-2.78-.61-4.91-1.08-8.8,2.87-9.3l1.8-.26c9.63-1.41,10-1.28,10.67-.24,10.82,17.31,11.08,17.77,13.91,25,1.2,3-3.08,13.74-6.35,18.46C844.65,762.38,843.22,763.49,841.78,763.49Zm-5.23-44.7c-1.65.07-6.22.74-8.07,1l-1.84.26c-.87.11-.84,1.44-.28,6,.1.88.22,1.82.33,2.84.39,3.72,1.27,8.3,2,12,.4,2.12.75,3.94.9,5.06h0c.55,4.13,9.79,14.56,12.22,14.6.23-.06,1.31-.84,3-3.68,3.19-5.41,5.49-12.79,5.08-14.18C847.12,735.73,847,735.43,836.55,718.79Z" transform="translate(-117.64 -456.14)"/><polygon class="cls-7" points="723.39 252.99 724.91 261.86 703.99 267.61 701.5 257.72 723.39 252.99"/><polygon class="cls-2" points="309.5 939.9 293.58 1077.52 274.56 1067.69 265.46 941.81 309.5 939.9"/><path class="cls-3" d="M412.46,1536l-21.7-11.22-9.26-128.26,47.33-2Zm-18.83-13.11,16.35,8.45,15.47-133.72-40.74,1.77Z" transform="translate(-117.64 -456.14)"/><path class="cls-7" d="M413.64,1522.32s30.92,9.92,32,18l-55.49-.17.05-17.92Z" transform="translate(-117.64 -456.14)"/><polygon class="cls-2" points="188.55 918.72 54.65 903.42 51.84 882.19 167.02 879.91 188.55 918.72"/><path class="cls-3" d="M308.92,1376.68l-138-15.76-3.19-24.05,117.76-2.33Zm-135.29-18.47L303.47,1373l-19.68-35.47-112.6,2.23Z" transform="translate(-117.64 -456.14)"/><path class="cls-7" d="M173.86,1359.2s-8.4,31.37-16.44,32.8l-2.54-55.44,17.9-.82Z" transform="translate(-117.64 -456.14)"/><path class="cls-4" d="M384.63,1288.53s-57.53,81.39-68.78,90.49c-21,17-127.54-11.22-127.54-11.22l2.55-37.24,100.25-.44s28.9-52.42,33.37-80.4,39.86-51.44,39.86-51.44l54.92,62.92s12.06,102,12.34,142.22l-7,105.41H384.71l-6.47-104.1-15.52-104.52Z" transform="translate(-117.64 -456.14)"/><path class="cls-2" d="M465.76,1105.31s-10.31,23.61-9.37,27.14,9.84,15.15,9.84,15.15l-43.34,47.05L383,1174.87l13.48-43.38s24.75-8.18,27.09-10.91c3.25-3.77,12.16-27.12,12.16-27.12Z" transform="translate(-117.64 -456.14)"/><path class="cls-3" d="M423.23,1196.49l-42-20.85,14.08-45.33.73-.25c11.95-4,25.11-8.94,26.44-10.46,2.52-2.93,9.44-20.25,11.89-26.68a1.5,1.5,0,1,1,2.81,1.07c-.93,2.42-9.11,23.71-12.43,27.57-2.33,2.71-20.41,8.91-27,11.11l-12.87,41.42,37.7,18.72,41.73-45.31c-2.29-3-8.48-11.46-9.34-14.66-1-3.75,7-22.48,9.45-28.13a1.5,1.5,0,0,1,2.74,1.2c-4.8,11-9.72,24.13-9.29,26.16.64,2.36,6.21,10.22,9.58,14.62l.77,1Z" transform="translate(-117.64 -456.14)"/><path class="cls-2" d="M373.06,1150.78c-10.43-2.1-29.72-8.48-40.62-6.28-4.7.94-42.68,46.26-42,49.13s3.07,18.67,0,14.55a63.38,63.38,0,0,1-5.11-8.33.58.58,0,0,0-1.08.09c-1.6,4.94-9.51,17.34-13.64,18.77-5.49,1.9-4.47-23.28,6.44-33.52,3.7-3.48,23.17-73.69,48-76.81s68.52,2.42,68.52,2.42S387.32,1153.65,373.06,1150.78Z" transform="translate(-117.64 -456.14)"/><path class="cls-3" d="M270,1220.31a3.3,3.3,0,0,1-2.81-1.77c-3.15-5.22-1-25.29,8.79-34.45.71-.76,2.83-6.3,4.88-11.65,8.47-22,24.22-63.07,44-65.55,24.75-3.1,68.45,2.37,68.88,2.42l1.52.19L395,1111c-.19,1.3-4.75,32.13-15.41,39.65a8.56,8.56,0,0,1-6.82,1.58h0c-2.56-.51-5.67-1.29-9-2.11-10.31-2.57-23.14-5.77-31.08-4.17-4.05,1.34-39,42.09-40.8,47.59.32,1.5.88,5,1.22,8.18.65,6.35.1,7.87-1.15,8.45-.55.26-1.65.45-2.83-1.11a59.32,59.32,0,0,1-4.3-6.79c-2.62,5.89-9.58,16.36-13.84,17.84A3.32,3.32,0,0,1,270,1220.31Zm73.38-111.37a150.89,150.89,0,0,0-18.16.93c-18,2.26-33.91,43.72-41.56,63.64-3.19,8.32-4.53,11.74-5.63,12.77-7.2,6.77-10.1,21-9,28.25.31,2,.84,2.71,1,2.79,3.48-1.22,11.17-13,12.74-17.85a2.09,2.09,0,0,1,3.85-.31,68.14,68.14,0,0,0,3.82,6.51A83.58,83.58,0,0,0,289,1194c-.17-.73,0-1.58,1.59-4,5.7-8.82,36.42-45.91,41.6-47,8.6-1.72,21.79,1.57,32.39,4.21,3.26.81,6.34,1.58,8.83,2.08h0a5.63,5.63,0,0,0,4.5-1.09c8.37-5.91,12.88-29.83,13.93-36.12C385.79,1111.4,363.35,1108.94,343.35,1108.94Zm-51.46,84.76Z" transform="translate(-117.64 -456.14)"/><path class="cls-3" d="M475.84,1052c4.93,2.59,17,8.73,13.37,18-4.16,10.52-11.29,23.35-15.17,30a6.14,6.14,0,0,1-7.59,2.65l-31.77-12.56a6.17,6.17,0,0,1-3.68-7.34c2.75-10.19,8.74-31.7,11.12-34.36C450.25,1039.39,468,1048,475.84,1052Z" transform="translate(-117.64 -456.14)"/><path class="cls-2" d="M434.42,1098c-1-2.46,1.09-9.78,4.08-17.9a.74.74,0,0,0-.1-.69c-1.6-2.06-3.57-5.92-1.9-9.87,1.44-3.43,3.65-1.72,5.18.17a.57.57,0,0,0,1-.16c4-9.64,7.88-17.93,7.88-17.93l37.75,14.92s-3.49,8.62-7.69,18.18c-.19.43-10.92,22.94-12.66,24.67a6.9,6.9,0,0,1-3.84,1.79s-3.2,1-16.92-4.41Z" transform="translate(-117.64 -456.14)"/><path class="cls-3" d="M463.23,1112.72c-2,0-6.72-.67-16.61-4.58a1.5,1.5,0,1,1,1.1-2.79c12.53,5,15.87,4.37,16,4.34l.1,0h0a5.52,5.52,0,0,0,3-1.37c1.52-1.64,11.62-22.6,12.35-24.22,3.16-7.18,5.94-13.91,7.1-16.73l-35-13.85c-1.24,2.69-4.24,9.28-7.27,16.59a2.12,2.12,0,0,1-1.63,1.28,2.06,2.06,0,0,1-1.89-.74c-1.09-1.36-1.76-1.6-1.92-1.59s-.36.22-.71,1c-1.52,3.6.69,7.06,1.7,8.38a2.21,2.21,0,0,1,.33,2.12c-4.82,13.11-4.36,16.18-4.1,16.81a1.5,1.5,0,1,1-2.77,1.14c-.66-1.6-1-5.26,3.91-18.59-1.41-2-3.83-6.28-1.83-11,.72-1.71,1.74-2.67,3.05-2.86a4.48,4.48,0,0,1,3.65,1.54c3.76-9,7.32-16.58,7.36-16.66l.6-1.28,40.46,16-.57,1.4c0,.09-3.55,8.75-7.71,18.21-.09.22-10.93,23.09-13,25.13a8.4,8.4,0,0,1-4.6,2.2A5.29,5.29,0,0,1,463.23,1112.72Z" transform="translate(-117.64 -456.14)"/><path class="cls-3" d="M455,1079.83a1.51,1.51,0,0,1-1.36-2.12l.35-.77a1.5,1.5,0,1,1,2.73,1.24l-.35.77A1.5,1.5,0,0,1,455,1079.83Z" transform="translate(-117.64 -456.14)"/><path class="cls-3" d="M471.29,1086.21a1.41,1.41,0,0,1-.56-.12,1.48,1.48,0,0,1-.82-1.95l.37-.92a1.5,1.5,0,0,1,2.78,1.13l-.38.92A1.49,1.49,0,0,1,471.29,1086.21Z" transform="translate(-117.64 -456.14)"/><path class="cls-3" d="M458.48,1074.35a1.51,1.51,0,0,1-1.11-.5h0s-2.65-2.86-5.15-1.73a1.5,1.5,0,0,1-1.23-2.74c4.51-2,8.45,2.28,8.61,2.47a1.5,1.5,0,0,1-1.12,2.5Z" transform="translate(-117.64 -456.14)"/><path class="cls-3" d="M458.37,1047.77s-15.89-11.34-19.88,14.21c-2.29,14.61-1.84-5.21,17.19-9.07C457.65,1052.51,458.37,1047.77,458.37,1047.77Z" transform="translate(-117.64 -456.14)"/><polygon class="cls-3" points="42.95 937.74 38.3 937.95 35.59 879.05 40.91 878.8 42.95 937.74"/><polygon class="cls-3" points="270.74 1080.63 270.73 1085.59 329.69 1085.78 329.71 1080.46 270.74 1080.63"/><path class="cls-3" d="M158.16,1349.31a1.5,1.5,0,0,1-.07-3l10.74-.49a1.5,1.5,0,1,1,.14,3l-10.74.49Z" transform="translate(-117.64 -456.14)"/><path class="cls-3" d="M401.5,1538.94h0a1.5,1.5,0,0,1-1.49-1.51l0-10.75a1.51,1.51,0,0,1,1.5-1.49h0a1.48,1.48,0,0,1,1.49,1.5l0,10.75A1.5,1.5,0,0,1,401.5,1538.94Z" transform="translate(-117.64 -456.14)"/><path class="cls-3" d="M463.1,1093.3a11.42,11.42,0,0,1-1.79-.15,1.5,1.5,0,1,1,.49-3,5.79,5.79,0,0,0,2.41,0c.29-.47.31-.75.33-4.73,0-1,0-2.17,0-3.62,0-.73.19-4.29,1.34-6.06a2.78,2.78,0,0,1,2.4-1.16c2.76-.08,7.84,2,10,4.87a1.5,1.5,0,0,1-2.38,1.83c-1.84-2.4-6.38-3.9-7.64-3.7a14.13,14.13,0,0,0-.74,4.28c0,1.41,0,2.6,0,3.58,0,4.62,0,5.1-.84,6.4S464.43,1093.3,463.1,1093.3Z" transform="translate(-117.64 -456.14)"/><path class="cls-3" d="M497.61,1046.64c-5-4-8.74.15-13.55,1.42s-4.49-3.53-9-8.12-7.24.42-13,2.13-5.71-.56-10.95-1.9c-3.72-1-5.14,2.45-5.65,4.48a7.85,7.85,0,0,0-3.39,1.47c-4.71,3.76,1.64,6.46-3.5,14.27-2.5,3.78,4.58,11,4.9,7.27s2.9-6.19,4.9-8.36a9.32,9.32,0,0,0,.78-1,25.33,25.33,0,0,1,4.44-.23c3.39.31,6.28,2.58,10.4,5.83s7.52,1.73,11.47.32,8.18.93,9.14,3.49a1.34,1.34,0,0,0,.48.57,5.69,5.69,0,0,0-.18,2.3c.62,2.78-.66,3.79-3.27,9.69s2.74,2.11,3.47,1.94,3-3,3.6-7.08,2.75-3,4.25-7a8.62,8.62,0,0,0,.43-3.72,4.9,4.9,0,0,1,.91-3c1.52-1.63,5.17-.36,8.42-4.22S502.64,1050.68,497.61,1046.64Z" transform="translate(-117.64 -456.14)"/><path class="cls-3" d="M463,1098a2.16,2.16,0,0,1-3.18,2c-5.41-2.72-8.77-8.89-7.57-8,.47.35,3.66,2.72,5.89,4C461.13,1097.76,462.66,1097.08,463,1098Z" transform="translate(-117.64 -456.14)"/><path class="cls-3" d="M390.76,1287.65l8.11-17.46a1.5,1.5,0,0,0-2.72-1.26l-7.52,16.18-8.71,2.3-16.27,28.91a1.51,1.51,0,0,0,.57,2,1.47,1.47,0,0,0,.73.19,1.5,1.5,0,0,0,1.31-.77l12-21.31,10.36,101.58,4.13,103.63a1.51,1.51,0,0,0,1.5,1.44h.06a1.51,1.51,0,0,0,1.44-1.56l-4.14-103.72L380.81,1292l1.1-2Z" transform="translate(-117.64 -456.14)"/><path class="cls-3" d="M366.38,1253.88a1.5,1.5,0,0,0-1.89-1l-23.25,7.52a1.5,1.5,0,0,0,.47,2.93,1.54,1.54,0,0,0,.46-.08l8.31-2.69-49.26,85L199.06,1343a1.5,1.5,0,0,0-.08,3L302,1348.6l.89,0,51.82-89.41,10.66-3.45A1.5,1.5,0,0,0,366.38,1253.88Z" transform="translate(-117.64 -456.14)"/><path class="cls-7" d="M582.23,1167.65c-1.49-.49-3.56-.16-9.69,1-6.85,1.33-18.76,3.73-40.57,7.26-33.43,5.41-65.15-47.23-70.42-44.36-27.38,15-35.24-13.11-36.92-17.55-4.61-12.25-92-14.93-110.09-7.54-18.37,7.49-38.88,65.8-38.88,65.8l23.65,12.32,34.19-31.81,19.15,6.5-30.09,73.93,105.3,40.93s15-39.51,18-47.17c0,0,8.48-14,16.5-29.87,15.83,10.85,41.32,20.86,58.32,17.45,48.91-9.83,60.35-17.89,63.6-20.75C584.81,1193.35,582.23,1167.65,582.23,1167.65Z" transform="translate(-117.64 -456.14)"/><rect class="cls-2" x="592.41" y="1030.4" width="120.27" height="161.69" transform="translate(-222.54 -387.48) rotate(-5.58)"/><path class="cls-3" d="M599.2,1199.19l-16-163.91,1.49-.15,121.19-11.83,16,163.91-1.49.15ZM586.47,1038l15.42,157.94,116.71-11.39-15.41-157.94Z" transform="translate(-117.64 -456.14)"/><path class="cls-3" d="M614,1083.6a15,15,0,1,1,1.47-.07A14.46,14.46,0,0,1,614,1083.6Zm0-26.95a11.46,11.46,0,0,0-1.17.06,11.94,11.94,0,1,0,1.17-.06Z" transform="translate(-117.64 -456.14)"/><path class="cls-4" d="M632.36,1117.73a13.47,13.47,0,1,1-14.71-12.1A13.47,13.47,0,0,1,632.36,1117.73Z" transform="translate(-117.64 -456.14)"/><path class="cls-3" d="M623.7,1182.68a15,15,0,1,1,1.46-.07A14.41,14.41,0,0,1,623.7,1182.68Zm0-26.94a11.8,11.8,0,0,0-9.26,4.37,12,12,0,1,0,9.26-4.37Z" transform="translate(-117.64 -456.14)"/><path class="cls-3" d="M638,1058.51a1.5,1.5,0,0,1-.15-3l52.15-5.09a1.5,1.5,0,1,1,.29,3l-52.15,5.09Z" transform="translate(-117.64 -456.14)"/><path class="cls-3" d="M639.63,1075.56a1.5,1.5,0,0,1-.14-3l24.83-2.42a1.5,1.5,0,1,1,.29,3l-24.83,2.43Z" transform="translate(-117.64 -456.14)"/><path class="cls-3" d="M641.28,1105.24a1.5,1.5,0,0,1-.15-3l52.15-5.09a1.5,1.5,0,0,1,.29,3l-52.15,5.09Z" transform="translate(-117.64 -456.14)"/><path class="cls-3" d="M642.94,1122.29a1.5,1.5,0,0,1-.14-3l24.83-2.43a1.5,1.5,0,1,1,.29,3l-24.83,2.42Z" transform="translate(-117.64 -456.14)"/><path class="cls-3" d="M647.88,1160a1.5,1.5,0,0,1-.15-3l52.15-5.09a1.5,1.5,0,1,1,.29,3L648,1160Z" transform="translate(-117.64 -456.14)"/><path class="cls-3" d="M649.54,1177.05a1.5,1.5,0,0,1-.14-3l24.83-2.43a1.5,1.5,0,1,1,.29,3L649.69,1177Z" transform="translate(-117.64 -456.14)"/><path class="cls-3" d="M617.74,1123.1l-14.28-12.73a1.5,1.5,0,0,1,2-2.24l12.09,10.78,23.06-24.68a1.5,1.5,0,0,1,2.19,2Z" transform="translate(-117.64 -456.14)"/><path class="cls-2" d="M598.4,1179.17c-8.06,1-15.19,9-15.19,9l-1.82-18.06s7.9-1.27,9-4.13,13.63-20.13,14-14.8c.25,3.75-5.19,13.26-5.41,15.42C598.86,1167.17,598.4,1179.17,598.4,1179.17Z" transform="translate(-117.64 -456.14)"/><path class="cls-3" d="M582.07,1191.76l-2.31-22.87,1.39-.23c3.33-.54,7.35-2,7.8-3.17.74-2,10.89-17.38,15-16.77a2.28,2.28,0,0,1,1.9,2.39c.17,2.68-1.83,7.17-3.6,11.13a32.3,32.3,0,0,0-1.82,4.55c0,.49-.33,7.71-.51,12.44l0,1.28-1.27.15c-7.41.9-14.18,8.46-14.24,8.53Zm.95-20.4,1.37,13.56c2.65-2.4,7.3-6,12.56-7,.14-3.64.43-10.93.47-11.41.11-1,.82-2.66,2.07-5.46s2.91-6.52,3.28-8.77c-3.07,2.46-10.17,12-11,14.29C590.71,1169.37,585.82,1170.78,583,1171.36Zm15.38,7.81h0Z" transform="translate(-117.64 -456.14)"/><polygon class="cls-7" points="454.47 712.62 457.67 743.05 468.67 736.48 465.54 711.29 454.47 712.62"/><path class="cls-3" d="M1744.64,1076.11c-1.89-9.1-3-35.9-24.28-43.32,14.89-13.32-12.73-24.93-19.69-17.71-6.37,6.6-1.48,13.22.3,15.22-5,.51-8.79.09-15.84,6.71-13.65,12.82-5.91,34.27-5.4,43s4.3,49.68,4.3,49.68l69.32,14.94S1754.49,1123.69,1744.64,1076.11Z" transform="translate(-117.64 -456.14)"/><path class="cls-4" d="M1699.64,1028.75l.09,2s16.2,2.64,21.32,2.78l.48-2.06S1702.74,1029.77,1699.64,1028.75Z" transform="translate(-117.64 -456.14)"/><polygon class="cls-2" points="1589.02 949.67 1587.52 983.04 1605.66 981.42 1606.9 947.97 1589.02 949.67"/><path class="cls-3" d="M1703.59,1440.83l1.63-36.39,20.88-2-1.35,36.48Zm4.51-33.65-1.36,30.36,15.11-1.35,1.13-30.42Z" transform="translate(-117.64 -456.14)"/><path class="cls-7" d="M1704.21,1431.77s-27.55-4.24-28.3,7.64,0,11.13,0,11.13l47.53,0,.72-14S1706.78,1439.52,1704.21,1431.77Z" transform="translate(-117.64 -456.14)"/><polygon class="cls-2" points="1503.8 844 1502.3 877.37 1520.44 875.75 1521.68 842.3 1503.8 844"/><path class="cls-3" d="M1618.37,1335.16l1.63-36.39,20.88-2-1.35,36.48Zm4.51-33.65-1.36,30.36,15.11-1.35,1.13-30.42Z" transform="translate(-117.64 -456.14)"/><path class="cls-7" d="M1619,1326.09s-27.55-4.23-28.3,7.65,0,11.13,0,11.13l47.53,0,.72-14S1621.56,1333.85,1619,1326.09Z" transform="translate(-117.64 -456.14)"/><rect class="cls-3" x="1472" y="886.29" width="49.39" height="2.74"/><path class="cls-7" d="M1697.17,1233.55l4.65,180.41,27,2.81s10-137.63,20.8-162.52c13-30-4.13-63.54-4.13-63.54l-51.41,5.39a13.13,13.13,0,0,1-1.49,5.7c-1.85,2.9-37.8,14.12-70.18,42.8-6.07,5.37-4.81,38.41-4.81,65l25.16.6,5.93-43,48.9-17.2Z" transform="translate(-117.64 -456.14)"/><path class="cls-6" d="M1715.58,1100.19c9.43,2.34,47.7,13,31.94,79.33l-2.33,2.76.88,8.42-49.66,14.38-1.87-8.29s-3.6-.94-9-8.08-6.65-25-6.65-25l.27-40.73s4.82-11.34,7.93-14.12C1694.8,1101.91,1705.52,1097.7,1715.58,1100.19Z" transform="translate(-117.64 -456.14)"/><rect class="cls-3" x="1557.22" y="991.96" width="49.39" height="2.74"/><path class="cls-2" d="M1602.32,1142.73s-16-5.83-15.71-3.34,15,6.62,15,6.95c-.11.59-8.12-1.36-8.62.37-.68,2.37,11,2.21,17.51,2.42s18.42,3.72,18.42,3.72l-4.57-7.42s-7.55-3.48-8.6-5.69-6.88-14.83-6.78-10.54a51.31,51.31,0,0,0,1,8c.08.43-1.38.51-1.74.27-3.58-2.4-14.63-10-14.83-7.45-.23,3.06,11,8.88,10.85,9.11-.65.79-12.5-7.63-15.92-6.44-4.91,1.71,14.35,10.14,14.35,10.14Z" transform="translate(-117.64 -456.14)"/><path class="cls-3" d="M1632.21,1155.4l-3.75-1.11c-.11,0-11.79-3.45-18-3.66l-3.21-.08c-9.75-.21-14-.59-15.35-2.36a2.15,2.15,0,0,1-.34-1.9,2.22,2.22,0,0,1,1.44-1.49c-5.72-2.19-7.69-3.59-7.85-5.26a1.91,1.91,0,0,1,.75-1.73c.29-.23.87-.68,3.18-.42-2.1-1.54-3.13-2.86-3.09-3.94a2.38,2.38,0,0,1,1.8-2.15,7.18,7.18,0,0,1,4.53.52,3.42,3.42,0,0,1-.46-1.88,2,2,0,0,1,1.13-1.69c1.6-.78,4.38.15,15.14,7.4a47.65,47.65,0,0,1-.65-6.42c0-1.77.86-2.24,1.4-2.37,1.45-.35,2.48,0,8,11.75l.24.49c.49,1,4.46,3.4,7.87,5l.41.19Zm-29.51-8c1.66.07,3.29.1,4.57.13l3.25.08c4.39.15,11,1.7,15.1,2.77l-2.34-3.8c-2.25-1.06-7.8-3.87-8.91-6.21l-.24-.51c-1.48-3.13-2.57-5.31-3.39-6.83.2,1.56.45,3,.62,3.9a1.7,1.7,0,0,1-.76,1.75,3.49,3.49,0,0,1-3.29,0l-.8-.54a99.89,99.89,0,0,0-10.47-6.47,51.16,51.16,0,0,0,7.28,5.06c1.91,1.17,2.21,1.35,2.33,2.11l.12.67-.44.54c-1,1.26-2.28.58-6.39-1.69-2.23-1.24-7-3.88-9.3-4.29,2.06,1.74,7.9,4.84,13.23,7.19l.12.06.21.09a1.5,1.5,0,1,1-1.21,2.75l-.25-.11a108.31,108.31,0,0,0-10.64-3.31c2.76,1.22,6.57,2.52,8.23,3.08,3.29,1.12,4,1.36,3.73,2.72A1.69,1.69,0,0,1,1602.7,1147.42Z" transform="translate(-117.64 -456.14)"/><path class="cls-6" d="M1732.8,1139.89s-2.39,27.51-23,53.37c-9.64,12.12-29.11,26.42-45.66,40.4l-12.45-12.55,40.2-39.25,10.17-51Z" transform="translate(-117.64 -456.14)"/><path class="cls-6" d="M1691.3,1114.33s-4.73-6.12-9,2.71c-5.15,10.7-18.43,28.9-21.66,30.53s-42.72-8.1-42.72-8.1l-6.28,16.52s26.89,9.76,44.29,17.12,39.71-24.53,39.71-24.53Z" transform="translate(-117.64 -456.14)"/><path class="cls-3" d="M1687,1188.1a1.51,1.51,0,0,1-1.09-.47,1.49,1.49,0,0,1,.06-2.12l4.65-4.42,9.78-49.11a1.5,1.5,0,1,1,2.94.59l-10,50-5.34,5.06A1.48,1.48,0,0,1,1687,1188.1Z" transform="translate(-117.64 -456.14)"/><path class="cls-3" d="M1664.19,1235.16a1.46,1.46,0,0,1-1.14-.54,1.48,1.48,0,0,1,.18-2.11l43.61-36.84c3.11-4.06,14.84-37.19,22-58.64a1.5,1.5,0,1,1,2.84,1c-1.86,5.56-18.31,54.49-22.63,59.7l-.18.19-43.73,36.93A1.48,1.48,0,0,1,1664.19,1235.16Z" transform="translate(-117.64 -456.14)"/><path class="cls-3" d="M1679.73,1172.45a1.51,1.51,0,0,1-1.44-1.07c-5.38-17.73-1.38-44-1.21-45.08a1.5,1.5,0,0,1,3,.46c0,.26-4.06,26.68,1.13,43.75a1.5,1.5,0,0,1-1,1.87A1.39,1.39,0,0,1,1679.73,1172.45Z" transform="translate(-117.64 -456.14)"/><path class="cls-2" d="M1717.82,1102.32c1.27-1.25-2.26-26.21-2.26-26.21l-22,4.33s-.26,24.09-1,28C1692.54,1108.43,1706.78,1113.17,1717.82,1102.32Z" transform="translate(-117.64 -456.14)"/><path class="cls-3" d="M1700.12,1111a27.63,27.63,0,0,1-8.06-1.14l-1.25-.42.26-1.29c.6-3.08.92-21.05,1-27.71l0-1.22,24.74-4.88.22,1.57c3.64,25.71,2.42,26.91,1.83,27.49h0A26.16,26.16,0,0,1,1700.12,1111Zm-5.92-3.66c3.47.81,13.82,2.32,22.34-5.87.35-2.11-.82-13.19-2.25-23.57l-19.24,3.79C1695,1086.21,1694.75,1101.79,1694.2,1107.33Zm22.31-5.7Zm.26-.38h0Z" transform="translate(-117.64 -456.14)"/><path class="cls-2" d="M1715.63,1082.48c3.49-1.9,9.67-5.82,10.2-10.13s-4.44-4.24-6-3.69c-1,.37,2.53-23.81,2.53-23.81l-33.17-5.41s-7.38,21.49-7.23,33.54,5.38,15.67,14.07,16.82a20.37,20.37,0,0,0,10.59-1.2Z" transform="translate(-117.64 -456.14)"/><path class="cls-3" d="M1699.14,1091.52a25.13,25.13,0,0,1-3.31-.23c-10.77-1.43-15.22-6.73-15.37-18.3-.15-12.16,7-33.15,7.31-34l.42-1.2,35.87,5.86-.21,1.46c-1.29,8.72-2.52,18.32-2.7,21.85a6.67,6.67,0,0,1,4.59,1.22,4.56,4.56,0,0,1,1.58,4.39c-.58,4.69-6.29,8.72-11,11.27a1.5,1.5,0,1,1-1.43-2.63c5.67-3.09,9.11-6.37,9.44-9,.13-1.06-.22-1.47-.49-1.69a4.6,4.6,0,0,0-3.54-.39l-.79.28-.72-.55c-.74-.61-1.45-1.19,1.85-23.72l-30.45-5c-1.52,4.66-6.87,21.8-6.75,31.84.15,11.4,5,14.33,12.77,15.36a19.09,19.09,0,0,0,9.82-1.11,1.5,1.5,0,1,1,1.13,2.78A21.19,21.19,0,0,1,1699.14,1091.52Z" transform="translate(-117.64 -456.14)"/><path class="cls-3" d="M1688.82,1065a1.86,1.86,0,0,1-.33,0,1.5,1.5,0,0,1-1.14-1.79l.24-1.07a1.5,1.5,0,1,1,2.93.65l-.24,1.07A1.49,1.49,0,0,1,1688.82,1065Z" transform="translate(-117.64 -456.14)"/><path class="cls-3" d="M1703.06,1068.05l-.33,0a1.5,1.5,0,0,1-1.14-1.79l.24-1.07a1.5,1.5,0,1,1,2.93.64l-.24,1.08A1.5,1.5,0,0,1,1703.06,1068.05Z" transform="translate(-117.64 -456.14)"/><path class="cls-3" d="M1711.12,1063.9a1.48,1.48,0,0,1-.85-.27c-2.11-1.44-5.93-2.05-7.23-2.17a1.5,1.5,0,1,1,.27-3c.22,0,5.46.5,8.65,2.68a1.5,1.5,0,0,1,.4,2.08A1.52,1.52,0,0,1,1711.12,1063.9Z" transform="translate(-117.64 -456.14)"/><path class="cls-3" d="M1694.61,1073.2a1.73,1.73,0,0,1-.38,0c-5.09-1.33-5.21-2.65-5.27-3.29a2.86,2.86,0,0,1,1.21-2.33,13.27,13.27,0,0,0,3.27-4.8c.57-1.3.64-2.26.21-2.85-.91-1.28-4.07-1.44-5.46-1.32a1.51,1.51,0,0,1-1.62-1.36,1.49,1.49,0,0,1,1.35-1.63c.61,0,6-.44,8.16,2.55,1.09,1.51,1.13,3.47.11,5.81a16.67,16.67,0,0,1-3.66,5.5,21.44,21.44,0,0,0,2.46.82,1.5,1.5,0,0,1-.38,3Z" transform="translate(-117.64 -456.14)"/><path class="cls-3" d="M1699.59,1264.85h-.12a1.5,1.5,0,0,1-1.54-1.46l-.72-29a1.5,1.5,0,0,1,3-.07l.72,29A1.5,1.5,0,0,1,1699.59,1264.85Z" transform="translate(-117.64 -456.14)"/><path class="cls-3" d="M1682.41,1045s35.66,7.59,36.72,23.89c0,0,3.85-1.39,5.1-.86a4,4,0,0,1,2,1.46l5.83-24.9-42.66-6.67Z" transform="translate(-117.64 -456.14)"/><path class="cls-3" d="M1697.7,1076.51c.36.84-3.29,3.27-5.64,2.81-5.91-1.15-6.43-6.54-5.31-5.49a11.87,11.87,0,0,0,6,2.9C1696.57,1077.13,1697.28,1075.55,1697.7,1076.51Z" transform="translate(-117.64 -456.14)"/><path class="cls-5" d="M1653.58,1380.2l-130.47-292.06a.7.7,0,0,1,.35-.92l51.24-22.89a.7.7,0,0,1,.92.35l130.47,292.06Z" transform="translate(-117.64 -456.14)"/><path class="cls-2" d="M1524.69,1029.12l-.56,24.29-.8,34a.7.7,0,0,0,1,.66l50.48-22.55a.71.71,0,0,0,.17-1.18l-44.3-37.85A3.63,3.63,0,0,0,1524.69,1029.12Z" transform="translate(-117.64 -456.14)"/><path class="cls-3" d="M1577,1064.07c-.27-.61-45.33-38.76-45.33-38.76a5.13,5.13,0,0,0-8.46,3.78s-1.75,59-1.45,59.66l130.47,292.06.61,1.37,55.25-24.68Zm-51.35-11c2.79-1.71,17.61-8.67,21.58-10.53l24.91,21.28-47.23,21.1Zm118,301.06-118.34-264.89,14.19-6.34,117.87,264.84v0Zm16.45-7.63L1542.18,1081.7l14.86-6.64,117.77,264.61Zm-100.26-272.69L1575,1067l118,264.2-15.51,7.19Z" transform="translate(-117.64 -456.14)"/><path class="cls-2" d="M1657.38,1235.14c3-5.68,12.12-9.41,12.12-9.41l-12.44-6.77s-3.45,5.62-5.87,5.51-16.53-.07-12.79,1.8a51.55,51.55,0,0,0,7.4,2.84.47.47,0,0,1,.06.87c-3.84,1.94-17.82,13.25-15.17,15.53C1635.71,1249.83,1650.82,1247.64,1657.38,1235.14Z" transform="translate(-117.64 -456.14)"/><path class="cls-3" d="M1637.54,1249a11.93,11.93,0,0,1-7.82-2.39,2.52,2.52,0,0,1-.84-2.29c.47-3.8,9.67-11.36,14.33-14.51a47.69,47.69,0,0,1-5.48-2.24c-1.61-.8-1.51-1.91-1.4-2.35.34-1.3,1.49-1.92,7.41-2.21,3.19-.15,6.47-.13,7.52-.08h0c.8,0,3-2.31,4.5-4.8l.74-1.21,16.47,9-2.92,1.2c-.09,0-8.67,3.6-11.36,8.72h0a24.89,24.89,0,0,1-17.21,12.81A20.42,20.42,0,0,1,1637.54,1249Zm-5.65-4.49c1.85,1.41,5.36,1.86,9,1.16a21.85,21.85,0,0,0,15.11-11.27c2.15-4.09,7-7.17,10.15-8.8l-8.64-4.7c-1.39,2-3.94,5.17-6.44,5-1.9-.09-6.19,0-9.22.2,1.7.67,3.32,1.2,4.34,1.51a1.94,1.94,0,0,1,1.38,1.7,2,2,0,0,1-1.08,1.93C1642.72,1233.25,1632.46,1242,1631.89,1244.55Zm25.49-9.41h0Z" transform="translate(-117.64 -456.14)"/><polygon class="cls-6" points="1550.77 750.48 1534.1 764.97 1545.69 776.64 1564.09 760.4 1550.77 750.48"/><path class="cls-3" d="M1252.28,639.62V482.54h170.17V589.65H1302.24Zm3-154.08V632.38L1301,586.65h118.45V485.54Z" transform="translate(-117.64 -456.14)"/><path class="cls-3" d="M1395,510.47h-49.71a1.5,1.5,0,0,1,0-3H1395a1.5,1.5,0,0,1,0,3Z" transform="translate(-117.64 -456.14)"/><path class="cls-3" d="M1395,533.56h-49.71a1.5,1.5,0,0,1,0-3H1395a1.5,1.5,0,0,1,0,3Z" transform="translate(-117.64 -456.14)"/><path class="cls-3" d="M1395.93,556.66h-49.71a1.5,1.5,0,0,1,0-3h49.71a1.5,1.5,0,0,1,0,3Z" transform="translate(-117.64 -456.14)"/><path class="cls-3" d="M1300.19,561.92a29.86,29.86,0,1,1,29.86-29.86A29.89,29.89,0,0,1,1300.19,561.92Zm0-56.71a26.86,26.86,0,1,0,26.86,26.85A26.88,26.88,0,0,0,1300.19,505.21Z" transform="translate(-117.64 -456.14)"/><path class="cls-3" d="M1312.15,545.53a1.51,1.51,0,0,1-1.06-.44l-22.62-22.63a1.5,1.5,0,0,1,2.12-2.12L1313.21,543a1.51,1.51,0,0,1-1.06,2.57Z" transform="translate(-117.64 -456.14)"/><path class="cls-3" d="M1288.57,545.19a1.5,1.5,0,0,1-1.06-2.56l22.74-22.75a1.51,1.51,0,0,1,2.12,0,1.49,1.49,0,0,1,0,2.12l-22.74,22.75A1.53,1.53,0,0,1,1288.57,545.19Z" transform="translate(-117.64 -456.14)"/></svg>