<svg id="OBJECTS" xmlns="http://www.w3.org/2000/svg" viewBox="0 0 482.64 419.73"><defs><style>.cls-1{fill:#b2abdf;}.cls-2{fill:#8f88b3;}.cls-3{fill:#9f98c7;}.cls-4{fill:#ff96aa;}.cls-15,.cls-25,.cls-5{fill:none;stroke-miterlimit:10;}.cls-15,.cls-5{stroke:#0d0000;}.cls-5{stroke-width:0.75px;}.cls-6{fill:#fef2fe;}.cls-7{fill:#302162;}.cls-8{fill:#251d47;}.cls-9{fill:#352967;}.cls-10{fill:#40337b;}.cls-11{fill:#35190d;}.cls-12{fill:#070019;}.cls-13{fill:#ea7e8e;}.cls-14{fill:#f4f4f4;}.cls-15{stroke-width:0.5px;}.cls-16{fill:#0d0000;}.cls-17{fill:#f6def8;}.cls-18{fill:#db4987;}.cls-19{fill:#c9437c;}.cls-20{fill:#fda520;}.cls-21{fill:#f4b6ab;}.cls-22{fill:#e8a499;}.cls-23{fill:#fdd5cd;}.cls-24{fill:#f5b6ad;}.cls-25{stroke:#070019;stroke-width:2px;}.cls-26{fill:#3e3177;}.cls-27{font-size:21.64px;}.cls-27,.cls-31,.cls-33{fill:#fff;}.cls-27,.cls-31{font-family:OpenSans-Bold, OpenSans Bold;font-weight:700;}.cls-28{letter-spacing:-0.02em;}.cls-29{letter-spacing:0em;}.cls-30{fill:#ffdd84;}.cls-31{font-size:18.8px;}.cls-32{letter-spacing:-0.02em;}</style></defs><title>4435667</title><ellipse class="cls-1" cx="241.32" cy="409.07" rx="241.32" ry="10.66"/><path class="cls-2" d="M310.3,102a21.09,21.09,0,0,0,1.32-5.52c.23-1.37.24-6.7.21-8.75,0-1.66-3-3.6-4.08-3.63,0,0-.05,0-.08,0V66.74h-95.1V84.1l0,0c-1.09,0-4.06,2-4.08,3.63,0,2.05,0,7.38.21,8.75.11.66.27,2,.59,3.36h0s-7.77,59.33-4.55,63.9c1,1.4,3.07,4.5,5.59,8.3l-1.34.85L233.85,211c-.81,15.64-1.36,37.12-1.59,47.51h-.13v18.62h55.65V258.55h-.08c-.15-10.84-.51-33.75-1.06-49.38l23.68-36.3L309,172c2.52-3.8,4.61-6.9,5.59-8.3C317.43,159.67,311.66,112.68,310.3,102Zm-15.66,60.93s-10.36,11.21-16.76,13.75c-1.78.71-11.6,3.27-11.6,3.27l.54-14.9c2.18,1.19,5.46-.2,4.8-3a2.66,2.66,0,0,0-.66-1.29c.35-3.19,1.58-14.6,1.4-15.38s-3.94-1.25-3.94-1.25,3.64-3.24,2.6-3.68-4.8,1.8-4.8,1.8-.75-3.42-1.29-3.34-.8,2.95-.8,2.95-9.54-5-10.44-4.6-1.49,3.22-1.49,3.22-10.25-2.61-10.89-1.74,1.65,6.05,1.65,6.05-4.74,4.72-4.1,7.59c.68,3.06,3.59,5.94,5.64,7.64a2.25,2.25,0,0,0-1.29,1.7,2.72,2.72,0,0,0,2.55,3.35v.3c-.11,2.74,1.78,9.53,7.49,11.32l-.05,3.74h0s-10-3.08-11.8-3.79c-6.4-2.54-16.76-13.75-16.76-13.75l-.09.05-6.87-9.19c-1.24-3.38-1.52-28.27-1.58-42h87.09c-.06,13.69-.34,38.58-1.58,42L294.73,163Z" transform="translate(-8.68 -40.32)"/><path class="cls-3" d="M240.44,129.88a3.21,3.21,0,0,1-.36-.17l.36.17s-1.23-3.28-6.78-5.5V98.23H119V124c-6.42,2.21-7.8,5.89-7.8,5.89l.36-.17a3.21,3.21,0,0,1-.36.17c-.82.36-.39,6.09-.06,7.83S114.3,142,114.3,142s12.56,59.4,14.91,61c1.67,1.15,17.24.68,26.25.3v0l1.07,3.08c.25.76.5,1.57.74,2.41-1.24,1.38-2.44,2.7-2.95,3.22-1.24,1.27,1.87,10,5.18,14.54l-.88,21.92s-3,11.52-4.47,18.56h0a31.35,31.35,0,0,0-.73,4.8c0,3,5.17,130.18,6.27,157.36h-.08l.29,5.08h1.19l-3,5.67c-1,1.64-1.74,2.81-1.74,2.81-4-.28-6,3.77-6,3.77h14.24c1.27-.84,2-3.54,2.4-6.06.45,2.89.66,6.06.66,6.06h1.74a95.78,95.78,0,0,0-1.83-11.6l0-.14h0c0-.16-.09-.33-.15-.5H169l.26-5.08h-.07c.86-22.41,4.36-113.17,6.26-156.92h1.33c1.89,43.74,5.39,134.52,6.25,156.93h-.06l.26,5.08h1.66c-.06.17-.12.34-.16.5h0l0,.14a95.72,95.72,0,0,0-1.84,11.6h1.74s.22-3.17.66-6.06c.43,2.52,1.13,5.22,2.41,6.06h14.24s-2-4.05-6.05-3.77c0,0-.76-1.17-1.74-2.81l-3-5.67h1.14l.29-5.08h-.09c1.1-27.18,6.26-154.37,6.28-157.36a28.24,28.24,0,0,0-.62-4.23h0c-1.38-7-4.58-19.13-4.58-19.13h0l-.88-21.92c3.31-4.54,6.42-13.27,5.18-14.54-.25-.26-.64-.68-1.08-1.2.36-1.5.82-3.06,1.26-4.42h0l1-3v0c9.12.34,21.95.63,23.45-.41,2.35-1.62,14.91-61,14.91-61s2.79-2.58,3.12-4.33S241.26,130.24,240.44,129.88ZM119,126.19l-.49.2.49-.23Zm51.2,63.91H137.11l-12.32-36.78h36.59c-4,5.2-6.9,13.64-5.11,35.18,0,0,6.24-1.08,14-1.69Zm44.33,0h-33l-.24-3.7a44.94,44.94,0,0,1,11.84,1.47s3.33-24.82-.9-34.55h34.58Z" transform="translate(-8.68 -40.32)"/><path class="cls-3" d="M261.41,189.69c.94.1,1,2.61,1,2.61s1.67-.33,1.92.43a2.56,2.56,0,0,1-.17,1.64s1.8-1.19,2.18-.32-1.86,2.81-1.86,2.81,3.55,3.31,1.75,6.24a.43.43,0,0,1,.5.52l0,.06,21.17,25.93a.36.36,0,0,1,.18,0c1.05-1.8,12.56-21.57,14.37-24.43,4-6.28,17-10,17-10h0c5.7-2.2,12.18-3.88,12.18-3.88l.57-5.63.19-1.87a22.73,22.73,0,0,1-2.84-5.71c-2.84.42-6-3.09-5.27-6.45a3.51,3.51,0,0,1,1.1-2.09c-.36-3.57-1-10-.75-11.68a5.52,5.52,0,0,1,2.61-3.68s-4.54-6.71-3.52-7.85,5.75.83,5.75.83-4.64-5.82-1.28-5.71c2,.06,7.39,2.84,14.44,5.81,8.32,3.51,5.95,6.92,5.95,6.92,1.88-.69,4.37-.47,4.81,2.54.32,2.2-.37,10.48-.64,13.48a4.28,4.28,0,0,1,.54,1.43c.7,3.4-2.5,7-5.37,6.44a19.65,19.65,0,0,1-3.72,6.5l.41,4.91.16,1.81,38.28-32.83h0l6.21-5.79.09-.26s0,0,0,0l11.14-38.22,1.32-7.67a5.77,5.77,0,0,1-.64-2,6.65,6.65,0,0,1,0-2.32v0a3.29,3.29,0,0,1,.07-.36,7.73,7.73,0,0,1,.43-1.41S399,99.58,399,98.63c0-.6.83-.69,1.45-.68l.58,0,.09,0a2.58,2.58,0,0,1-.81-1.43c0-.4.36-.7.76-.9a4.32,4.32,0,0,1,.82-.3s-.81-2-.24-2.7a.45.45,0,0,1,.13-.11,3,3,0,0,1,1.51.07l.7.14.28.07v0c-.28-.77-.58-1.65-.8-2.44l-36.56-6.6,7.48-43.44,37.74,6.81.92-5.32,2.19.39-.91,5.33L451,54.15l-7.48,43.44L406.81,91l-.06.3c1.62,1.82,3.18,3.79,3.18,3.79.71.46,1.13.94,1,1.38-.19.82-.53,2.16-.86,3.41-.42,1.61-.82,3.07-.82,3.07s-3,47.46-4.32,52.69c-.47,1.95-5.28,8.72-11.13,16.46l3.51,4.44s-22.12,29.43-31,38.28c0,.19,0,.37,0,.55a.44.44,0,0,1-.61.38c-.12.67-.24,1.35-.38,2-.59,3.05-1.27,6.22-1.89,9.25l-.21,1-.27,1.37c0,.13-.06.26-.08.39-.22,1.15-.43,2.26-.6,3.33a.31.31,0,0,0,0,.08.07.07,0,0,1,0,.05c-.09.55-.18,1.09-.26,1.62,0,0,0,.06,0,.09s0,.3-.06.45c-.16,1.14-.27,2.21-.32,3.15a17.18,17.18,0,0,0,0,1.74l0,.63c.12,2.5.32,5.6.57,9,.06.77.11,1.55.17,2.35.21,2.9.45,6,.7,9l.18,2.36c.24,3.09.47,6.15.7,9,.06.8.11,1.59.17,2.36.25,3.5.45,6.62.55,9,0,.89.07,1.69.08,2.36,0,.26,0,.51,0,.74,0,.84-.71,1.62-2,2.3l12.85,128.37c.62-.21,1.22-.44,1.8-.7l.72,9.18a19.48,19.48,0,0,1-6.38,2.51l.68,10s20.8,3.73,20.58,6-29.75,0-29.75,0,0-6,1.79-6l-2.32-9.46a35.84,35.84,0,0,1-5.47-.89l-1.52-9.38L335.29,292.94l-.78,0-19.45,59.76L324.18,422h0l.27,2-.05,0,.84,7.75c-.61.34-1.22.65-1.81.92l1,8.05c1.79,0,1.79,6,1.79,6s-29.53,2.23-29.75,0,20.57-6,20.57-6l-1.84-6.08a16.83,16.83,0,0,1-7.28-1.29L306,423.12c.59.07,1.18.12,1.76.16-3.47-14.8-15.7-67.91-13.82-74.2,1.57-5.28,9.75-41.29,14.19-61a5,5,0,0,1-.47-2.8c0-.74-.06-1.52-.05-2.37,0-2.55.18-5.58.45-8.87.06-.77.13-1.56.2-2.36.25-2.83.55-5.81.87-8.85l.24-2.36c.3-3,.61-5.95.87-8.86.07-.79.14-1.57.2-2.35.12-1.38.22-2.74.31-4.06.06-.71.1-1.4.14-2.09q.07-1.4.12-2.73c0-.8,0-1.59,0-2.35,0-.52,0-1,0-1.52,0-1.69-.08-3.54-.14-5.48-3.83,9.9-7.5,17.37-7.5,17.37l-15-18.11h0l13.17,16.13S293.12,258,287.18,255c-4.71-2.43-28.51-52.65-28.51-52.65s-3-3.68-4.12-5.2S260.47,189.59,261.41,189.69Z" transform="translate(-8.68 -40.32)"/><path class="cls-4" d="M192.81,158.6c.45.14,2.74.58,2.8.6s-2.74-3.95-1.28-4.41c.64-.21,5.12,5.46,5.75,6.44.39.61-.19,3.35-.19,3.35l-6.48,3.1s-6.56-4.11-7-4.52c-.63-.55-4.16-5-3.72-5.44s3.54,1.93,3.54,1.93-4.4-4.3-3.42-5.33c.36-.37,4.25,2.24,4.25,2.24s-4.3-3.57-3.4-4.48c.51-.52,5.12,4,5.12,4s-3.19-3.75-2.5-4.18S191.67,158.25,192.81,158.6Z" transform="translate(-8.68 -40.32)"/><polygon class="cls-4" points="184.72 127.36 190.79 138.62 197.19 136.11 191.21 124.26 184.72 127.36"/><line class="cls-5" x1="184.72" y1="127.36" x2="187.4" y2="127.65"/><polygon class="cls-6" points="195.05 128.86 192.58 124.73 183.72 129.74 186.1 133.52 195.05 128.86"/><path class="cls-7" d="M282.52,166.28s-.76-12-.65-14.15,2.91-2,2.91-2a3.49,3.49,0,0,1,.92-5c3-2.15,8.36,2.58,13.42,1.72A4.88,4.88,0,0,1,305,150.7a4,4,0,0,1,3.06.57c1.52,1-.13,15.09-.13,15.09Z" transform="translate(-8.68 -40.32)"/><path class="cls-4" d="M337.27,419.8s2.21,13.48,4.73,16.25c0,0-3,6.05-8.09,4.66s-6-4-6-4l-2.27-13.58Z" transform="translate(-8.68 -40.32)"/><path class="cls-8" d="M356.48,439.07c-1.63.16-13.57-3.77-14.54-5.5s-7.18,2.05-7.41,2.32.94,3.13,2.13,4.42c0,0-6.46-1-8.73-3.59,0,0-4,5.32-1.4,9.91h30.38c2.59,0,6.57-3.4,7.11-4.21s-1.29-3.82-2.26-4.54S358.85,438.83,356.48,439.07Z" transform="translate(-8.68 -40.32)"/><path class="cls-5" d="M340,440.71a9.53,9.53,0,0,1-4.82,1.2c-2.51-.16-8.14-3.64-8.14-3.64" transform="translate(-8.68 -40.32)"/><path class="cls-5" d="M362.71,438.93s-4.21,2.39-5.82,3.35-20.23-2-20.23-2" transform="translate(-8.68 -40.32)"/><path class="cls-9" d="M347.81,436.61s-5.28,5.74-5.6,5.87a27.29,27.29,0,0,1-4.44-1.27c-.22-.1,5.49-6.61,5.49-6.61S347.1,436.34,347.81,436.61Z" transform="translate(-8.68 -40.32)"/><path class="cls-4" d="M276.6,419.8s-.2,13.48-2.71,16.25c0,0,3,6.05,8.08,4.66s6-4,6-4l.26-13.58Z" transform="translate(-8.68 -40.32)"/><path class="cls-8" d="M259.4,439.07c1.63.16,13.58-3.77,14.55-5.5s7.17,2.05,7.41,2.32-.95,3.13-2.14,4.42c0,0,6.47-1,8.73-3.59,0,0,4,5.32,1.4,9.91H259c-2.58,0-6.57-3.4-7.11-4.21s1.3-3.82,2.27-4.54S257,438.83,259.4,439.07Z" transform="translate(-8.68 -40.32)"/><path class="cls-5" d="M275.92,440.71a9.53,9.53,0,0,0,4.82,1.2c2.52-.16,8.15-3.64,8.15-3.64" transform="translate(-8.68 -40.32)"/><path class="cls-5" d="M253.17,438.93s4.22,2.39,5.83,3.35,20.22-2,20.22-2" transform="translate(-8.68 -40.32)"/><path class="cls-9" d="M268.07,436.61s5.28,5.74,5.6,5.87a27.69,27.69,0,0,0,4.45-1.27c.21-.1-5.5-6.61-5.5-6.61S268.78,436.34,268.07,436.61Z" transform="translate(-8.68 -40.32)"/><path class="cls-10" d="M288.1,428.58c3-15.69,5.38-116.45,5.38-116.45h3.63l28.83,118.23s8.64-1.35,13.43-4c1.54-.86-18.84-128.57-20.51-147.45L318,266.63l-52.12-.86v13.31c-1.17,3.51,6.7,145,8,148.49C273.89,427.57,284,429.19,288.1,428.58Z" transform="translate(-8.68 -40.32)"/><path class="cls-5" d="M271.69,277.18s2.31,18.55-6,20.11" transform="translate(-8.68 -40.32)"/><path class="cls-5" d="M287.57,273.06s3,38.25,8.73,39.07l-2.28-39" transform="translate(-8.68 -40.32)"/><polygon class="cls-11" points="257.21 232.98 257.21 238.76 310.18 238.57 309.12 232.79 257.21 232.98"/><path class="cls-7" d="M282.21,161.73c0-.53,25.91-1.71,25.89-.49-.06,4.7-.26,12-1.16,11.54-2.83,9-17.14,9.76-22.79.45C283.17,171.61,282.48,168,282.21,161.73Z" transform="translate(-8.68 -40.32)"/><path class="cls-4" d="M288,180.2v13.29s5.37,6.15,13,0V180.72Z" transform="translate(-8.68 -40.32)"/><path class="cls-12" d="M288,180.2V187s3.33,3.07,6.49,3.07,6.49-3.73,6.49-3.73v-5.59Z" transform="translate(-8.68 -40.32)"/><path class="cls-4" d="M304.59,160.05c-1.18-3.55-4.9-3.89-9.69-3.89s-8.51.34-9.7,3.89.44,14.26,1.12,17,4.86,8.18,8.68,8.18,8-5.47,8.68-8.18S305.77,163.59,304.59,160.05Z" transform="translate(-8.68 -40.32)"/><path class="cls-13" d="M295.75,184c0-.3-1.67-.22-1.57,0S295.7,184.38,295.75,184Z" transform="translate(-8.68 -40.32)"/><path class="cls-13" d="M302.8,173.4c.05-.73-3.65-.86-3.68,0S302.73,174.53,302.8,173.4Z" transform="translate(-8.68 -40.32)"/><path class="cls-13" d="M286.76,173.44c0-.72,3.67-.77,3.69,0S286.81,174.57,286.76,173.44Z" transform="translate(-8.68 -40.32)"/><path class="cls-14" d="M292.58,177.81h5.11s-.58,4.78-2.73,4.78C292.58,182.59,292.58,177.81,292.58,177.81Z" transform="translate(-8.68 -40.32)"/><path class="cls-15" d="M295,169.46a52.13,52.13,0,0,0-1,5.65c.14.46,2.07.13,2.07.13" transform="translate(-8.68 -40.32)"/><path class="cls-16" d="M292.19,169.26c0,.71-.31,1.28-.69,1.28s-.7-.57-.7-1.27.3-1.28.69-1.28S292.19,168.56,292.19,169.26Z" transform="translate(-8.68 -40.32)"/><path class="cls-16" d="M297.69,169.26c0,.71.31,1.28.69,1.28s.7-.57.7-1.27-.3-1.28-.69-1.28S297.69,168.56,297.69,169.26Z" transform="translate(-8.68 -40.32)"/><path class="cls-4" d="M285.39,166.72s-4.49-1.87-4.77,2.06,2.06,5.52,5.61,4.12Z" transform="translate(-8.68 -40.32)"/><path class="cls-15" d="M281.87,169.63s.71-1.11,1.39-.91a6.08,6.08,0,0,1,2.44,2.62" transform="translate(-8.68 -40.32)"/><path class="cls-4" d="M304.08,166.8s4.48-1.87,4.77,2.06-2.06,5.52-5.62,4.12Z" transform="translate(-8.68 -40.32)"/><path class="cls-15" d="M308.1,169.63s-.71-1.11-1.39-.91a6,6,0,0,0-2.44,2.62" transform="translate(-8.68 -40.32)"/><path class="cls-17" d="M320.31,242.43c-.11,14.6.94,27.42.48,28.07a10.25,10.25,0,0,1-3,2.61L267,273.3c-1.92,0-3.85-.94-4.28-2.61-.18-.72,1.42-12.87,1.6-27.19.24-19.1-.22-43.17-.1-44,.22-1.5,22.64-5.82,23.8-6,0,0,5.17,6.11,13,0,0,0,19.18,5.65,20.13,6.06C321.58,199.76,320.45,222.7,320.31,242.43Z" transform="translate(-8.68 -40.32)"/><path class="cls-5" d="M284.46,255.31a104.27,104.27,0,0,0,22.3-23.49" transform="translate(-8.68 -40.32)"/><path class="cls-5" d="M292.19,261.42s11.66-13.84,14.77-21" transform="translate(-8.68 -40.32)"/><line class="cls-5" x1="254.1" y1="228.4" x2="312.22" y2="229.27"/><path class="cls-9" d="M288,193.49l-7.38,92s-15.6,2.56-21.19,0c0,0,4.59-84.76,5.11-87.47C264.68,197.21,288,193.49,288,193.49Z" transform="translate(-8.68 -40.32)"/><path class="cls-5" d="M319,210.91s-.42,24.08,2.12,37.43" transform="translate(-8.68 -40.32)"/><path class="cls-7" d="M287.79,165.25c-.1-.91,5.89-1.24,5.69.13S287.91,166.44,287.79,165.25Z" transform="translate(-8.68 -40.32)"/><path class="cls-7" d="M302.8,165.25c.1-.91-5.89-1.24-5.69.13S302.68,166.44,302.8,165.25Z" transform="translate(-8.68 -40.32)"/><line class="cls-5" x1="280.39" y1="271.82" x2="296.36" y2="271.82"/><line class="cls-5" x1="284.8" y1="271.82" x2="280.39" y2="274.59"/><line class="cls-5" x1="288.43" y1="271.82" x2="293.71" y2="276.67"/><path class="cls-5" d="M312.11,276s-.63,23.85,9.13,21.59" transform="translate(-8.68 -40.32)"/><polygon class="cls-18" points="285.24 155.86 281.95 159.46 283.5 160.94 280.6 210.14 284.8 217.38 290.4 210.59 286.47 161.37 288.43 159.26 285.24 155.86"/><path class="cls-5" d="M279.76,194.85l-4.95,24,4.67,3.72-3.24,4.34s1.37,21.57,6.63,30.25" transform="translate(-8.68 -40.32)"/><path class="cls-9" d="M301,193.49l2.21,92.44s15.45,2.57,21.18,0c0,0-2.76-83.68-3.26-86.38C320.83,198.14,301,193.49,301,193.49Z" transform="translate(-8.68 -40.32)"/><polygon class="cls-8" points="314.55 212.65 314.99 225.45 294.25 235.65 293.91 221.48 314.55 212.65"/><path class="cls-5" d="M308.9,195.64,312.7,219l-4.88,3.74,3,4.36s-2.58,21.67-8.33,30.39" transform="translate(-8.68 -40.32)"/><path class="cls-13" d="M291.31,267.23s-2.66-.86-3.26-1-4.15,4.43-4.24,5.16.66,1.58,3.41-.47A23.83,23.83,0,0,0,291.31,267.23Z" transform="translate(-8.68 -40.32)"/><path class="cls-4" d="M297.3,267.36s-5.94-1.06-6.74-1.15-5.61,4.61-5.43,5.6,4.09.44,5.38-2.18c0,0,3.28,6.35,9.73,2Z" transform="translate(-8.68 -40.32)"/><path class="cls-7" d="M286.76,154.28s.25,3.87,2.66,5.16,11.32,1.54,12.46,1.27,0-2.28,0-2.28,2.59,2.58,4.31,1.29S303,148.26,286.76,154.28Z" transform="translate(-8.68 -40.32)"/><path class="cls-9" d="M266.12,197.36c-9.08,1.56-40.74,9.42-40.74,9.42l-21.44-39.32-11,5.89s19.92,47.83,21.64,49.83,53-1.44,53-1.44S273,196.18,266.12,197.36Z" transform="translate(-8.68 -40.32)"/><polygon class="cls-6" points="290.34 221.9 286.24 224.43 291.06 232.17 294.81 229.74 290.34 221.9"/><path class="cls-9" d="M321.09,199.55c4.65,1.13,17.4,43.79,16.36,45.79-2,3.93-35.28,26.28-35.28,26.28l-4.87-8.93,25.37-19.16S312.09,197.35,321.09,199.55Z" transform="translate(-8.68 -40.32)"/><line class="cls-5" x1="288.62" y1="222.37" x2="320.04" y2="197.8"/><path class="cls-5" d="M319,205.69s-2,3.14-.07,12,5.21,24,5.21,24" transform="translate(-8.68 -40.32)"/><path class="cls-8" d="M263,222l5.37,0a7,7,0,0,1-5.66,6.2Z" transform="translate(-8.68 -40.32)"/><line class="cls-5" x1="216.7" y1="166.46" x2="214.74" y2="170.55"/><path class="cls-19" d="M295.15,201.69s-1,9.13-1,16c0,2-.7,40-.7,40l5.6-6.79Z" transform="translate(-8.68 -40.32)"/><path class="cls-5" d="M292.19,261.42" transform="translate(-8.68 -40.32)"/><path class="cls-6" d="M288,187s-1.64.6-2.51,1-2.24,4-2.58,4.48,4.36,6.58,6.4,8.84l4.6-5.08L288,193.49Z" transform="translate(-8.68 -40.32)"/><path class="cls-6" d="M301,186.31s1.54,1.09,2.27,1.58,2,4.07,2.38,4.53-4.25,7.12-6.53,9.27l-5.16-5.51,7-2.69Z" transform="translate(-8.68 -40.32)"/><path class="cls-5" d="M187.72,161.73a12.23,12.23,0,0,1,2.87-3.15" transform="translate(-8.68 -40.32)"/><path class="cls-5" d="M324.63,425s11.92-3.23,14.28-5.2" transform="translate(-8.68 -40.32)"/><path class="cls-5" d="M273.29,422.4s12.63,1.18,15.6.13" transform="translate(-8.68 -40.32)"/><polygon class="cls-20" points="277.23 232.98 276.73 240.01 289.84 240.01 289.84 232.86 277.23 232.98"/><line class="cls-5" x1="186.06" y1="137.44" x2="197.2" y2="131.44"/><line class="cls-5" x1="291.56" y1="220.08" x2="297.26" y2="228.74"/><rect class="cls-21" x="175.25" y="229.68" width="92.2" height="10.78"/><polygon class="cls-22" points="312.87 248.67 267.45 240.46 267.45 229.68 312.87 237.89 312.87 248.67"/><rect class="cls-23" x="185.78" y="240.46" width="81.67" height="165.85"/><polygon class="cls-24" points="267.45 240.46 302.33 246.77 302.33 406.31 267.45 406.31 267.45 240.46"/><polygon class="cls-12" points="202 229.68 202 223.12 246.11 223.12 266.11 226.73 266.11 229.68 202 229.68"/><path class="cls-12" d="M238.5,242.36a4.55,4.55,0,0,0-5.48-1.91c-2.85,1.66-3.23,3.65-3.23,3.65l1.44,2.48,1.44,2.48a6.72,6.72,0,0,0,4.77-1A4.55,4.55,0,0,0,238.5,242.36Z" transform="translate(-8.68 -40.32)"/><path class="cls-25" d="M218.38,263.39l.06-7.91a1.85,1.85,0,0,1,.88-1.57l10.6-6.52" transform="translate(-8.68 -40.32)"/><path class="cls-12" d="M227.83,245.78s-7,4.06-5.64,6.43,8.33-1.71,8.33-1.71Z" transform="translate(-8.68 -40.32)"/><polygon class="cls-6" points="220.38 200.18 223.56 205.67 219.64 207.94 216.58 202.67 220.38 200.18"/><polygon class="cls-17" points="226.75 211.16 223.56 205.67 219.64 207.94 222.7 213.22 226.75 211.16"/><path class="cls-12" d="M271.88,242.36a4.55,4.55,0,0,0-5.48-1.91c-2.86,1.66-3.23,3.65-3.23,3.65l1.43,2.48,1.44,2.48a6.72,6.72,0,0,0,4.77-1A4.53,4.53,0,0,0,271.88,242.36Z" transform="translate(-8.68 -40.32)"/><path class="cls-25" d="M251.76,263.39l.05-7.91a1.86,1.86,0,0,1,.89-1.57l10.59-6.52" transform="translate(-8.68 -40.32)"/><path class="cls-12" d="M261.21,245.78s-7,4.06-5.65,6.43,8.33-1.71,8.33-1.71Z" transform="translate(-8.68 -40.32)"/><polygon class="cls-6" points="253.75 200.18 256.93 205.67 253.01 207.94 249.95 202.67 253.75 200.18"/><polygon class="cls-17" points="260.12 211.16 256.93 205.67 253.01 207.94 256.07 213.22 260.12 211.16"/><path class="cls-4" d="M65.07,411.18,59.8,431.36A8.7,8.7,0,0,0,70,434l7.56-19.43Z" transform="translate(-8.68 -40.32)"/><path class="cls-6" d="M39.23,437.62s-3.6.26-4.73.16S33,440.15,33,441.43s2.55,4.57,8.29,5.09,19.52-1,21.21-1.06,6.23.39,7.85.34a30.14,30.14,0,0,0,4.92-.69c.49-.16.79-3.84,0-4.52Z" transform="translate(-8.68 -40.32)"/><path class="cls-9" d="M60.54,428.72a7.41,7.41,0,0,1,.52,3s2.69,2.38,5.09,2.23a4.71,4.71,0,0,0,4-2.18c.54-.86.72-1.79,1.69-2.24,0,0,4.51,6,3.4,11l-33.78,1.12s-2.12-2.12-2.25-4.09c0,0,9.26-2.62,12.09-3.79A70.07,70.07,0,0,0,60.54,428.72Z" transform="translate(-8.68 -40.32)"/><path class="cls-9" d="M75.7,441.78s-8.81.69-11.42.64-7.65.56-9.87.59l0,.79c2.22,0,7.26-.64,9.87-.59s11.42-.64,11.42-.64Z" transform="translate(-8.68 -40.32)"/><path class="cls-5" d="M61.06,431.74s-7.24,4.66-9.3,5.21-12.11,2.18-12.11,2.18" transform="translate(-8.68 -40.32)"/><path class="cls-5" d="M63.88,441s.53-2.09,1.3-2.68c.26-.2,4.25-.06,5-.35s3.92-4.55,3.92-4.55" transform="translate(-8.68 -40.32)"/><path class="cls-5" d="M59.73,432.58s4,3.05,5.7,3.06,4.52-1,5.16-1.91a33.46,33.46,0,0,0,1.79-3.44" transform="translate(-8.68 -40.32)"/><line class="cls-5" x1="46.56" y1="390.54" x2="48.16" y2="392.36"/><line class="cls-5" x1="45.05" y1="391.53" x2="46.65" y2="393.34"/><line class="cls-5" x1="43.39" y1="392.52" x2="44.99" y2="394.33"/><path class="cls-5" d="M34,438s1.25,2.6,2.13,3.23,5.39.53,5.39.53" transform="translate(-8.68 -40.32)"/><path class="cls-4" d="M112.4,428.72l.8-9.93-11.11-.4-.77,17.05S115.46,438.16,112.4,428.72Z" transform="translate(-8.68 -40.32)"/><path class="cls-6" d="M133.71,437.62s3.59.26,4.72.16,1.48,2.37,1.51,3.65-2.56,4.57-8.29,5.09-19.53-1-21.22-1.06-6.23.39-7.85.34a30.14,30.14,0,0,1-4.92-.69c-.49-.16-.79-3.84,0-4.52Z" transform="translate(-8.68 -40.32)"/><path class="cls-9" d="M112.4,428.72a7.32,7.32,0,0,0-.53,3s-2.69,2.38-5.09,2.23a4.71,4.71,0,0,1-4-2.18c-.53-.86-.72-1.79-1.69-2.24,0,0-4.5,6-3.4,11l33.78,1.12s2.12-2.12,2.26-4.09c0,0-9.26-2.62-12.09-3.79A70.07,70.07,0,0,1,112.4,428.72Z" transform="translate(-8.68 -40.32)"/><path class="cls-9" d="M97.23,441.78s8.81.69,11.42.64,7.65.56,9.87.59l0,.79c-2.23,0-7.26-.64-9.88-.59s-11.42-.64-11.42-.64Z" transform="translate(-8.68 -40.32)"/><path class="cls-5" d="M111.87,431.74s7.24,4.66,9.3,5.21,12.11,2.18,12.11,2.18" transform="translate(-8.68 -40.32)"/><path class="cls-5" d="M109.05,441s-.53-2.09-1.3-2.68c-.26-.2-4.25-.06-5-.35s-3.92-4.55-3.92-4.55" transform="translate(-8.68 -40.32)"/><path class="cls-5" d="M113.2,432.58s-4,3.05-5.7,3.06-4.52-1-5.16-1.91a32.79,32.79,0,0,1-1.78-3.44" transform="translate(-8.68 -40.32)"/><line class="cls-5" x1="109.01" y1="390.54" x2="107.41" y2="392.36"/><line class="cls-5" x1="110.52" y1="391.53" x2="108.92" y2="393.34"/><line class="cls-5" x1="112.18" y1="392.52" x2="110.58" y2="394.33"/><path class="cls-5" d="M139,438s-1.25,2.6-2.13,3.23-5.39.53-5.39.53" transform="translate(-8.68 -40.32)"/><path class="cls-13" d="M61.86,96s8.26-5,9.62-4.64-4.13,6.2-4.13,6.2Z" transform="translate(-8.68 -40.32)"/><path class="cls-13" d="M165.63,92.45s-7.64-5.86-9-5.71,3.4,6.63,3.4,6.63Z" transform="translate(-8.68 -40.32)"/><rect class="cls-1" x="56.27" y="38.73" width="95.8" height="42.5"/><path class="cls-4" d="M152.32,99.36c-.25-1,4.21-1.34,4.21-1.34s-3-.4-3.29-1.25S156.7,95,156.7,95,153,92.77,153.83,92s13.3-.49,13.31,1.66-.18,7.49-.18,7.49l-4.72,7.58c-5.52-2.09-4.29-8.31-4.29-8.31S152.56,100.4,152.32,99.36Z" transform="translate(-8.68 -40.32)"/><path class="cls-4" d="M160.06,160.32l.58-53.12c-3.65-1.33-2.69-6.76-2.69-6.76s-5.39,0-5.63-1.08S156.53,98,156.53,98s-3-.4-3.29-1.25S156.7,95,156.7,95,153,92.77,153.83,92s13.3-.49,13.31,1.66-.18,7.49-.18,7.49,8.93,58.16,8.88,64.19-27.24,25.3-27.24,25.3l-11.74-15.25Z" transform="translate(-8.68 -40.32)"/><line class="cls-5" x1="151.38" y1="120" x2="150.97" y2="123.61"/><polygon class="cls-9" points="120.78 232.57 110.41 388.07 91.13 386.35 93.46 232.57 120.78 232.57"/><path class="cls-8" d="M129.46,272.89,128,294.09s-12.42,17.06-26.56,22.48l.66-43.68Z" transform="translate(-8.68 -40.32)"/><path class="cls-5" d="M106.88,296.94s-1.46,100.58-4.12,129.73" transform="translate(-8.68 -40.32)"/><path class="cls-6" d="M103.05,188.47s-12.53-.24-14.19.85S78.63,264.45,78.63,267s4.16,5.89,4.16,5.89h46.67s5-1.94,5-6.69c0-2.49-4.07-75.51-5-76.88S115.8,188,115.8,188Z" transform="translate(-8.68 -40.32)"/><path class="cls-7" d="M119.09,174.89a4.93,4.93,0,0,0,3.73-2.68,16.22,16.22,0,0,0,1.79-5.18,81,81,0,0,0,1-15.67,7.13,7.13,0,0,0-.48-3.16,1.39,1.39,0,0,0-.71-.72c-.79-.28-1.47.79-1.91,1.72a14.7,14.7,0,0,0-.74-4.21c-.46-1.22-1.28-2.37-2.33-2.42a.92.92,0,0,0-.62.17,1.92,1.92,0,0,0-.47.75c-.47,1-.93,2.1-1.39,3.15a7.37,7.37,0,0,0-1.15-2.68c-.48-.93-1.17-2-2-1.76s-1.17,1.28-1.46,2.23a13.48,13.48,0,0,0-.74,3.78c-2,0-3.95-.24-5.93-.26a5.8,5.8,0,0,0-2.63.38,5.15,5.15,0,0,0-2.45,4.66c-.53-.37-1.08-.55-1.47.06a5.64,5.64,0,0,0-.68,2.17,50.8,50.8,0,0,0-.64,10,16.93,16.93,0,0,0,.88,5.46c1.5,3.95,5.15,5.64,8.55,6.07C111.41,177.28,114.91,175,119.09,174.89Z" transform="translate(-8.68 -40.32)"/><path class="cls-13" d="M119.59,165.48s4.93-3.84,6.28.47c1.15,3.66-3.56,5.72-6.12,3.44Z" transform="translate(-8.68 -40.32)"/><path class="cls-4" d="M114.79,168.12l1,19.92s-2.59,4-6.42,4.2c-2,.11-5.49-.77-6.33-3.77l-1.39-19.83Z" transform="translate(-8.68 -40.32)"/><path class="cls-16" d="M114.79,168.12l-11,.44s-.18,21,12,19.48Z" transform="translate(-8.68 -40.32)"/><path class="cls-4" d="M102.54,161.06c.32-7.84,10.44-6.87,10.44-6.87s10.16-.12,9.83,7.72c-.1,2.44-.34,7.57-.37,8.92-.09,3.37-3.08,12.5-10.51,12.18s-9.29-7.9-9.77-13C102,168.63,102.43,163.5,102.54,161.06Z" transform="translate(-8.68 -40.32)"/><path class="cls-13" d="M116.56,172.35c0,.46,1.1.88,2.5.93s2.54-.26,2.56-.72-1.1-.87-2.5-.93S116.58,171.89,116.56,172.35Z" transform="translate(-8.68 -40.32)"/><path class="cls-13" d="M104.57,171.85c0,.46,1.1.87,2.49.93s2.55-.26,2.57-.72-1.1-.87-2.5-.93S104.58,171.39,104.57,171.85Z" transform="translate(-8.68 -40.32)"/><path class="cls-16" d="M110.62,167.55c0,.74-.37,1.34-.78,1.32s-.71-.62-.69-1.36.37-1.34.77-1.32S110.64,166.81,110.62,167.55Z" transform="translate(-8.68 -40.32)"/><path class="cls-7" d="M106.72,164.43c-.18-.54.93-1.47,1.27-1.53a11.48,11.48,0,0,1,3.19.3,2,2,0,0,1,.67.94C111.85,164.42,106.84,164.78,106.72,164.43Z" transform="translate(-8.68 -40.32)"/><path class="cls-16" d="M115.94,167.72c0,.75.28,1.36.68,1.37s.76-.57.78-1.31-.28-1.36-.68-1.37S116,167,115.94,167.72Z" transform="translate(-8.68 -40.32)"/><path class="cls-7" d="M120,164.86c.22-.53-.83-1.52-1.17-1.61a11.52,11.52,0,0,0-3.19.1,1.91,1.91,0,0,0-.74.89C114.91,164.52,119.88,165.2,120,164.86Z" transform="translate(-8.68 -40.32)"/><path class="cls-15" d="M111,176.5a3.32,3.32,0,0,0,1.9.52,9.59,9.59,0,0,0,2-.25" transform="translate(-8.68 -40.32)"/><path class="cls-13" d="M112.09,178.69c0-.34,1.94-.3,1.83,0S112.15,179.1,112.09,178.69Z" transform="translate(-8.68 -40.32)"/><path class="cls-15" d="M113.05,169.79s1.34,2.15,1.53,2.48-.94.73-1.55.76" transform="translate(-8.68 -40.32)"/><path class="cls-4" d="M103,165.48s-4.93-3.84-6.28.47c-1.15,3.66,3.56,5.72,6.12,3.44Z" transform="translate(-8.68 -40.32)"/><path class="cls-7" d="M105.63,149.56c-1.8.39-1,5.24-.18,6.52a11.83,11.83,0,0,0,5.6,3.65,11.77,11.77,0,0,0,4.8-.47,4.63,4.63,0,0,1,3-.06c1.92.78,3.3,5.87,3.74,7.45,0,0,3.18-2,2.2-6.93S116.25,147.26,105.63,149.56Z" transform="translate(-8.68 -40.32)"/><path class="cls-7" d="M104.2,153.29s3.25,5.57,3.25,6.81-2.9,1.88-3.15,2.42.5,2.59-2,2.22c0,0-2.83-2.46-2.19-5.58S104.2,153.29,104.2,153.29Z" transform="translate(-8.68 -40.32)"/><path class="cls-15" d="M98.54,166.41a1.25,1.25,0,0,1,1.2-.76c1,0,1.65,1.56,2,2.93" transform="translate(-8.68 -40.32)"/><path class="cls-26" d="M82.79,272.89,60.29,421l18.34,5.63L107.1,303.73s22.36-14,22.36-30.84Z" transform="translate(-8.68 -40.32)"/><path class="cls-5" d="M86.43,272.89l-2.19,13.22s7.12-1.66,9.62-13.22" transform="translate(-8.68 -40.32)"/><path class="cls-4" d="M72.3,104c.37-1-2-1.48-2-1.48a2.79,2.79,0,0,0,1.41-1.19c.39-.81-1.24-1.88-1.24-1.88s1.89-2.08,1.2-2.91S60.48,94.89,60.22,97s-.67,7.46-.67,7.46l3.82,8.07c5.72-1.45,5.21-7.77,5.21-7.77S71.94,105,72.3,104Z" transform="translate(-8.68 -40.32)"/><path class="cls-4" d="M64.06,163.9l1.08-52.7c3.78-.91,3.44-6.41,3.44-6.41s3.36.25,3.72-.76-2-1.48-2-1.48a2.79,2.79,0,0,0,1.41-1.19c.39-.81-1.24-1.88-1.24-1.88s1.89-2.08,1.2-2.91S60.48,94.89,60.22,97s-.67,7.46-.67,7.46-11.1,56.62-11.74,62.62,25.37,27,25.37,27l14.08-14.53Z" transform="translate(-8.68 -40.32)"/><polygon class="cls-6" points="94.37 148.15 63.66 128.78 51.61 145.47 78.65 170.08 94.37 148.15"/><polygon class="cls-6" points="107.12 147.73 138 127.8 150.03 144.47 121.7 171.91 107.12 147.73"/><line class="cls-5" x1="55.38" y1="123.59" x2="55.38" y2="127.21"/><path class="cls-16" d="M85.54,208.77l5.12,5.12s-2,4.37-6.42,4.82Z" transform="translate(-8.68 -40.32)"/><path class="cls-6" d="M89.64,271s5.44,5.93,11.51,7.07S115.73,273.5,121,271Z" transform="translate(-8.68 -40.32)"/><path class="cls-5" d="M87.45,270.83s.45-1.67,1.15-1.8,1.76,2.7,3.23,3.86" transform="translate(-8.68 -40.32)"/><path class="cls-5" d="M117.32,272.89s3.45-2.07,4.56-3.87" transform="translate(-8.68 -40.32)"/><path class="cls-5" d="M128.23,195.12s2.57,9.82,2.94,16.39" transform="translate(-8.68 -40.32)"/><path class="cls-5" d="M101.66,187.59s1,8.94,8.22,8.52,7.61-9.15,7.61-9.15" transform="translate(-8.68 -40.32)"/><line class="cls-5" x1="133.16" y1="130.92" x2="146.58" y2="147.8"/><line class="cls-5" x1="55.95" y1="149.43" x2="68.2" y2="131.64"/><path class="cls-5" d="M96.75,253l8.63-7.07c6.72-5.49,13.48-11,18.92-17.81" transform="translate(-8.68 -40.32)"/><path class="cls-5" d="M126.7,239.17A61.4,61.4,0,0,1,115.83,258" transform="translate(-8.68 -40.32)"/><line class="cls-5" x1="91.21" y1="380.99" x2="110.58" y2="383.29"/><path class="cls-5" d="M61.06,416c0-.21,19,4.49,19,4.49" transform="translate(-8.68 -40.32)"/><text class="cls-27" transform="translate(68.91 68.43)">V<tspan class="cls-28" x="12.08" y="0">O</tspan><tspan class="cls-29" x="26.45" y="0">TE !</tspan></text><path class="cls-5" d="M87.45,214.44s-6.62,50.52-6.72,52.4,3.62,6.05,3.62,6.05" transform="translate(-8.68 -40.32)"/><path class="cls-17" d="M422.81,424.49s-2.32,3.75-2.26,5.87c0,1.48,1.42,10.75,1.55,12.13s2,4,3,4.14,8.76.38,10.21-.26-.41-5.27-3.95-6.49Z" transform="translate(-8.68 -40.32)"/><path class="cls-4" d="M393,301.16S422.49,432,427,433.66s-7.31-133.14-7.31-133.14Z" transform="translate(-8.68 -40.32)"/><path class="cls-4" d="M375,300.27s9.32,94.52,18,125.28c1.69,6,3.88,8,5.13,8.13,4.82.53.67-132.42.67-132.42Z" transform="translate(-8.68 -40.32)"/><path class="cls-10" d="M411.06,254.42s3,8.56,5.09,17.2c2.09,8.48,8.36,58.42,8.36,58.42s-41.19,2.78-52.41,0l-2.62-75.62Z" transform="translate(-8.68 -40.32)"/><path class="cls-8" d="M369.48,254.42l.39,11.35s31.45,5.5,46,4.61c0,0-2.34-10.75-5.33-16Z" transform="translate(-8.68 -40.32)"/><path class="cls-5" d="M424,326.19s-40.84,2.77-52,0" transform="translate(-8.68 -40.32)"/><path class="cls-5" d="M405.74,254.42a94.28,94.28,0,0,1,6.43,17.2c2.08,8.48,8.25,58.67,8.25,58.67" transform="translate(-8.68 -40.32)"/><path class="cls-7" d="M385.32,152.84s7.76-5.9,13.66,0,17.73,44.68,28.06,48c0,0-24.73,25.11-48,14.4,0,0-15.51-28.8-11.45-47.63S381.26,148,385.32,152.84Z" transform="translate(-8.68 -40.32)"/><polygon class="cls-6" points="360.8 214.1 358.29 221.47 373.62 221.47 375.47 216.56 377.76 221.47 405.59 221.47 402.38 214.1 360.8 214.1"/><path class="cls-30" d="M381,190a40.51,40.51,0,0,0-4.68.7c-1.74.86-9.58,19.62-10.83,22.14s5.3,10.23,5.3,10.23l-1.31,31.32h41.58s-2.29-25.45-2.71-28.16-1.66-33.82-1.66-33.82l-12.48-2.64Z" transform="translate(-8.68 -40.32)"/><path class="cls-4" d="M400.73,191.18s-.58,1.15-1.59,2.75c-2.41,3.82-7.29,10.22-12.69,9.76-4.7-.4-5.69-5.43-5.74-9.28A26.1,26.1,0,0,1,381,190l13.2-.23Z" transform="translate(-8.68 -40.32)"/><path class="cls-13" d="M375.16,169.56s-4.22-1.53-4.48,2.16,1.93,5.19,5.27,3.87Z" transform="translate(-8.68 -40.32)"/><path class="cls-4" d="M393.82,173.57l.39,16.23c.18,3.26-1.9,6.11-4.74,6.51h0c-3.28.46-6.15-2.52-6.07-6.29l.28-15.08Z" transform="translate(-8.68 -40.32)"/><path class="cls-12" d="M383.39,183.67c4.19-.12,8.67-6.36,8.67-6.36s2.15,12.43-8.66,12.65v-6.29" transform="translate(-8.68 -40.32)"/><path class="cls-4" d="M373.31,169.54c.06,4.6,1.21,16.87,8.57,16.87,12.39,0,10.45-16.13,10.54-17.24,0-.37.06-.76.08-1.16.2-3.67-.33-9.39-7-11-4.75-1.12-11.18,3.78-12.13,9.76C373.39,166.8,373.29,167.89,373.31,169.54Z" transform="translate(-8.68 -40.32)"/><path class="cls-13" d="M388.54,176.45c0-.85-4-.95-4,0S388.48,177.77,388.54,176.45Z" transform="translate(-8.68 -40.32)"/><path class="cls-13" d="M378.07,176.83c0-.85-4-1-4,0S378,178.15,378.07,176.83Z" transform="translate(-8.68 -40.32)"/><path class="cls-15" d="M381.69,174s-2,0-2.34.59,2.46,2.35,2.46,2.35" transform="translate(-8.68 -40.32)"/><path class="cls-30" d="M406.69,192.44c4.34.16,10.64,21.36,13,28.8L407,224.78s-4.08-10.72-6.27-17.05S400.47,192.22,406.69,192.44Z" transform="translate(-8.68 -40.32)"/><path class="cls-6" d="M399.14,193.93c-2.41,3.82-7.29,10.22-12.69,9.76-4.7-.4-5.69-5.43-5.74-9.28.05-.28.09-.43.09-.43s2.43,4.14,6.29,4.36C390.28,198.52,396.94,195.11,399.14,193.93Z" transform="translate(-8.68 -40.32)"/><path class="cls-5" d="M385.91,222.2s7.59,4.16,13.25-1.24" transform="translate(-8.68 -40.32)"/><path class="cls-5" d="M370.79,223.1s.45.63,3.69.87" transform="translate(-8.68 -40.32)"/><path class="cls-5" d="M408.07,224.48s-9.26-18.34-7.76-23.9" transform="translate(-8.68 -40.32)"/><path class="cls-7" d="M374.62,167.72a3,3,0,0,1,2.72-1.06c1.86.18,2.12.93,1.94,1.17s-1.18.27-1.9-.05C376.3,167.31,374.58,168.16,374.62,167.72Z" transform="translate(-8.68 -40.32)"/><path class="cls-7" d="M388.81,168.05a3,3,0,0,0-2.66-1.19c-1.88.09-2.17.84-2,1.08.27.4,1.17.33,1.9,0C387.15,167.56,388.83,168.49,388.81,168.05Z" transform="translate(-8.68 -40.32)"/><path class="cls-4" d="M391,169.88s4.21-1.52,4.48,2.17-1.94,5.18-5.27,3.86Z" transform="translate(-8.68 -40.32)"/><path class="cls-15" d="M394.81,172.77s-.67-1-1.31-.86a5.78,5.78,0,0,0-2.29,2.47" transform="translate(-8.68 -40.32)"/><path class="cls-16" d="M383.13,171.23c-.05.74.24,1.36.64,1.39s.78-.55.83-1.29-.24-1.37-.64-1.4S383.18,170.48,383.13,171.23Z" transform="translate(-8.68 -40.32)"/><path class="cls-16" d="M377.81,170.88c-.05.74-.41,1.32-.82,1.29s-.69-.64-.65-1.39.42-1.32.82-1.29S377.86,170.13,377.81,170.88Z" transform="translate(-8.68 -40.32)"/><path class="cls-5" d="M414.27,222.76" transform="translate(-8.68 -40.32)"/><path class="cls-4" d="M331.19,114.22s-1.33,47-.81,51.52c.63,5.56,28.84,33.08,28.84,33.08l9.46-10.44L340.3,159.71,337.66,111Z" transform="translate(-8.68 -40.32)"/><path class="cls-4" d="M337.66,105.16l-6.36-4.51-5.55,5.45s2.74,6.09,6.13,8l5.78-3.14Z" transform="translate(-8.68 -40.32)"/><rect class="cls-12" x="334.68" y="40.99" width="2.43" height="85.78" transform="translate(8.71 -92.15) rotate(9.06)"/><rect class="cls-1" x="302.81" y="47" width="71.65" height="44.01" transform="translate(6.4 -92.76) rotate(9.06)"/><text class="cls-31" transform="matrix(0.99, 0.15, -0.15, 0.99, 301.51, 28.65)">V<tspan class="cls-32" x="10.49" y="0">O</tspan><tspan x="22.98" y="0">TE !</tspan></text><path class="cls-13" d="M334.62,103.66c.83-.82-.35-2.1-1.26-2.89s-3.16-1.27-3.67-.89.35,1.52.35,1.52-1.8,0-2.1.42.3,1.32.3,1.32-2-.68-2.38,0,.74,1.93.74,1.93-1.13-.41-1.51.28,4.3,3.91,5.4,2.91a1.2,1.2,0,0,0,.06-1.9s2,.61,2.21-.11-.73-2-.73-2S333.86,104.41,334.62,103.66Z" transform="translate(-8.68 -40.32)"/><path class="cls-4" d="M337.66,105.16a34.19,34.19,0,0,0-2.25-4.66,7.52,7.52,0,0,0-3.58-1.12c-.34.16-1.52,3.41-.77,3.83s2.23-1.77,2.23-1.77S333,108.28,337.66,105.16Z" transform="translate(-8.68 -40.32)"/><polygon class="cls-30" points="372.32 149.71 352.77 139.2 344.03 153.8 367.27 170.6 372.32 149.71"/><line class="cls-15" x1="331.62" y1="119.39" x2="331.62" y2="121.67"/><path class="cls-33" d="M383.87,178.75l-3.71-.19s.15,5.07,2,5.07C383.67,183.63,383.87,178.75,383.87,178.75Z" transform="translate(-8.68 -40.32)"/><path class="cls-7" d="M392.43,169.59a10.11,10.11,0,0,1-5.89-8.46s-11.23,8-16.33,7.09c0,0-1.53-14.42,15.14-13.31C398.24,155.77,392.43,169.59,392.43,169.59Z" transform="translate(-8.68 -40.32)"/><path class="cls-17" d="M399.77,425.55c2.21,0,3.44,4.41,2.52,7.78s-6.58,11.93-8,13.12l-16,.18a2.93,2.93,0,0,1,2.21-3.33c2.7-.83,4-1,6.67-3.19Z" transform="translate(-8.68 -40.32)"/><path class="cls-4" d="M399.77,425.55s-1.13,10.05-5.08,14.48l-7.5.08a29.37,29.37,0,0,0,5.35-16.25Z" transform="translate(-8.68 -40.32)"/><path class="cls-17" d="M402.56,430.46s-.11,12.81.17,15.9H401.3s-.77-12.07-.47-14Z" transform="translate(-8.68 -40.32)"/><path class="cls-4" d="M422.81,422.83l1.08,17.05a18,18,0,0,1,7.5,0L428.08,422Z" transform="translate(-8.68 -40.32)"/><path class="cls-4" d="M438.16,188.14c-1.55-2.46,1.5-5.23,1.5-5.23s-1.92-1.61-1.6-2.34,1.87.27,1.87.27a2.08,2.08,0,0,1-.14-1.38c.21-.63,1.64-.36,1.64-.36s.07-2.09.88-2.18,6.84,4.92,5.87,6.19-3.53,4.35-3.53,4.35-24.23,47.37-28.82,47c-5.67-.42-7.94-10.13-7.94-10.13Z" transform="translate(-8.68 -40.32)"/><path class="cls-5" d="M368.68,205.66a105.35,105.35,0,0,1,5.39-11.46" transform="translate(-8.68 -40.32)"/><line class="cls-5" x1="355.71" y1="140.78" x2="348.38" y2="156.94"/><line class="cls-5" x1="397.51" y1="180.22" x2="407.71" y2="170.6"/><line class="cls-5" x1="378.41" y1="158.02" x2="377.78" y2="161.37"/><path class="cls-5" d="M377.26,234.91a58.85,58.85,0,0,0,21,15.33" transform="translate(-8.68 -40.32)"/><path class="cls-5" d="M376.27,242.57A28,28,0,0,0,381,250" transform="translate(-8.68 -40.32)"/></svg>