<svg xmlns="http://www.w3.org/2000/svg" viewBox="0 0 2426.32 1946.75"><defs><style>.cls-1{isolation:isolate;}.cls-2,.cls-8{fill:#cbefef;}.cls-3,.cls-4,.cls-9{fill:#fff;}.cls-3{opacity:0.4;}.cls-4{opacity:0.8;}.cls-5{fill:#9cdedc;}.cls-6{fill:#8fd0d6;}.cls-7{fill:#74bdc1;}.cls-45,.cls-8{mix-blend-mode:multiply;}.cls-10{fill:#ff5b7e;}.cls-11{fill:#cfe4ff;}.cls-12{fill:#07085b;}.cls-13{fill:#ffd0cf;}.cls-14{fill:#ffc0bb;}.cls-15{fill:#fc8d84;}.cls-16,.cls-23,.cls-45{fill:#f99893;}.cls-17{fill:#333;}.cls-18{fill:#1e1e1e;}.cls-19{fill:#282828;}.cls-20{fill:#424444;}.cls-21{fill:#f7b5b2;}.cls-22{fill:#e8eff9;}.cls-23,.cls-36,.cls-37,.cls-46{opacity:0.5;}.cls-24{fill:#feb546;}.cls-25{fill:#f4a640;}.cls-26,.cls-36{fill:#f3fdff;}.cls-27,.cls-46{fill:#e03268;}.cls-28{fill:#ce205f;}.cls-29{fill:#54a9d4;}.cls-30{fill:#04b2a1;}.cls-31{fill:#4d5296;}.cls-32{fill:#02ccc0;}.cls-33{fill:#caf0ff;}.cls-34{fill:#c4205b;}.cls-35{fill:#224887;}.cls-37{fill:#daeef7;}.cls-38{fill:#3660ac;}.cls-39{fill:#fbf9eb;}.cls-40{fill:#ccf6fe;}.cls-41{fill:#040744;}.cls-42{fill:#444;}.cls-43{fill:#06052d;}.cls-44{fill:#ef9d30;}.cls-45{opacity:0.3;}</style></defs><title>6383</title><g class="cls-1"><g id="Layer_1" data-name="Layer 1"><path class="cls-2" d="M2445.43,1644.17c-25.12-191.87,70.53-394,4.05-575.79-21.11-57.74-57.29-108.57-86.79-162.55a766.61,766.61,0,0,1-86.59-263c-8.23-60.14-9.31-121.37-23-180.5-38-164-180.39-299.13-346.76-329-134.08-24.06-277.34,6.74-394.25,76.47C987,523,738.65,374.86,555.42,482.92,440.58,550.66,376.5,676.6,333.81,802.51S300.17,1202.62,201.39,1292c-26.48,23.94-56.66,43.83-81.21,69.74C39.39,1447,35.77,1584.08,82.75,1691.57c42.78,97.87,143.09,229.79,241.39,279.27q5.26,2.65,10.73,5H613.34c52.65-9.65,167.38.67,209.76-3.43,165.71-16,291.15,3.77,434.46-12.22,336.68-37.58,677.27,16.81,1016,14.07,49.57-.41,103.08-2.09,142.31-32.27,41.83-32.17,56.35-89.39,54.25-142S2452.26,1696.36,2445.43,1644.17Z" transform="translate(-47.13 -37.13)"/><path class="cls-3" d="M477.19,1648.81c13.15-12.33,25.79-25.83,33.09-42.31,8.75-19.75,9.15-42.13,7.65-63.67-2.14-30.95-8.33-62.72-26.21-88.07-25.58-36.28-69.91-53.11-107-77.45s-70.9-67.89-56.29-109.81c10.11-29,41.05-48.18,47.53-78.25,7-32.28-18-63.85-47.36-79-14.61-7.53-30.16-12.38-46.19-15.54-15.31,82.68-37.89,158-81.44,197.36-10.18,9.21-20.9,17.81-31.64,26.39.84.59,1.69,1.17,2.53,1.77,9.76,7,19.78,14.81,24.12,26,6.21,16-.6,35.5,7.81,50.48,14.44,25.7,55.45,14.32,80.3,30.17,9.86,6.29,16.45,16.55,21.82,26.93,9.47,18.32,16.11,40.28,8.2,59.32C298,1552,238.64,1549,211,1580.66c-30.64,35.15-7.44,91.4-23,135.35-9.69,27.31-33.48,47-58.49,61.88,29.11,44.86,65.34,90,104.4,127.19a130.44,130.44,0,0,0,11-23.5c12.58-36,12.53-77.79,36.75-107.21,18.77-22.8,48.21-33.14,75.14-45.26A441.24,441.24,0,0,0,477.19,1648.81Z" transform="translate(-47.13 -37.13)"/><path class="cls-3" d="M2252.64,462.47q-1.16-5-2.44-9.9c-20.66,1.62-41.35,3.15-61.51,7.62-50.17,11.12-94.66,39.89-143.73,55.18-85.4,26.61-177.44,10.76-266.84,13.86-84.09,2.92-174,21.73-248.34-17.69-10.28-5.45-20.5-12.49-25.29-23.09-7.14-15.81.42-35.26,13.56-46.57s30.59-16.11,47.62-19.38c73.9-14.2,150-5.81,225.21-4.18s154.1-4.6,218.18-44.07c30.46-18.77,57.48-46.28,66.5-80.91,3.93-15.06,4.67-31.74,14.21-44,5.82-7.49,13.86-12.1,22.85-15.05-53.1-46.17-116.83-80.12-185.35-96.31-19.51,4.23-38,11.13-54.77,21.64-12.88,8.11-24.63,19.12-30,33.39s-2.82,32.11,8.82,41.92c6.36,5.36,14.81,8,20.57,14,10.22,10.65,8.29,28.84-.45,40.73s-22.51,18.86-36,24.94a645.07,645.07,0,0,1-217.42,55.33c-62.55,4.63-125.44.1-188.11,2.73s-126.71,13-180.8,44.81c-8.56,5-17.13,10.88-22.13,19.46-5.58,9.56-6,21.24-5.2,32.28a171.76,171.76,0,0,0,31.23,86.66c3,4.2,6.17,8.21,9.49,12.08l107.48-22.16,19,92.25a341.43,341.43,0,0,0,53.14,7.35c72,4.3,143.67-10,215.58-15.77,155-12.48,310.12,14.59,465.11,27.51,29.2,2.43,58.64,4.37,87.74,1A238.77,238.77,0,0,0,2275.39,641C2267.41,581.51,2266.2,521,2252.64,462.47Z" transform="translate(-47.13 -37.13)"/><path class="cls-3" d="M2384.88,1381.14c-27-11.56-52-27.45-79.24-38.45-78.45-31.68-169.61-20.7-246.87-55.18-14.07-6.27-28-14.49-36.34-27.46s-9.29-31.68,1.35-42.82c9.8-10.27,25.58-11.24,39.77-11.55,53.62-1.15,107.49-2.29,160.64,4.91,23.74,3.22,47.69,8.1,71.47,5.17,33.37-4.13,62.94-23.23,89.26-44.16,7-5.6,14.15-11.48,22.68-14.32,7.51-2.49,15.59-2.45,23.51-2.38l38.31.35a385.88,385.88,0,0,0-20.38-86.73c-8.31-22.72-19-44.37-30.61-65.57-23.53-4.81-47-9.75-70.57-14.51-17.84-3.6-36.51-7.18-54-2.1-26.29,7.65-43,32.47-62.46,51.72-38.14,37.7-91.58,56.4-144.71,63.67s-107,4.22-160.68,4.64a1242.39,1242.39,0,0,0-227.86,22.88c-22.77,4.44-46.65,10.14-63.43,26.16-26,24.83-26.31,68.56-8.42,99.77s49.89,51.78,82.73,66.47c130.42,58.32,286.62,41.78,412.7,109,41.79,22.27,78.82,53.12,121.91,72.77,61.9,28.23,129.44,31,198.18,30,2.41-43.62,8.15-87.47,14.07-131.19C2431.56,1397.44,2407.69,1390.91,2384.88,1381.14Z" transform="translate(-47.13 -37.13)"/><path class="cls-4" d="M1882.06,378.06a49.36,49.36,0,0,0-60.52-36.65,72.66,72.66,0,0,0-87.36-38.59,89.51,89.51,0,0,0-160.77,15.63,61.41,61.41,0,0,0-91.25,53.66c0,2,.11,4,.3,5.95Z" transform="translate(-47.13 -37.13)"/><path class="cls-5" d="M1985.92,1917.11c-4.13,4-7.59,11.93-11.25,20.32a191.27,191.27,0,0,1-10.43,21.34H1856c2.94-1.84,5.94-3.57,9-5.15,7-3.56,14.1-6.33,20.37-8.78,9.24-3.6,18-7,22.45-11.48,4.08-4.08,7.5-11.92,11.12-20.23,5.31-12.15,11.91-27.29,24.63-39.62,17.16-16.66,39-22.22,56.54-26.69,12.27-3.13,23.86-6.09,29.28-11.53,2.92-2.94,5.86-8.43,9-14.24,2-3.66,4-7.45,6.41-11.4a132.28,132.28,0,0,1,92.12-61.2c2.14-.33,4.14-.58,6.08-.82,3.1-.39,31.73-6.22,41.28.33h0c17.94,12.33,17.29,39.26-1.44,50.34a61.65,61.65,0,0,1-6.83,3.5c-9.41,4.11-18.33,5.22-25.5,6.11-1.61.21-3.14.4-4.51.6a71.88,71.88,0,0,0-49.35,32.79c-1.53,2.5-3.08,5.4-4.72,8.47l-1.61,3-26.74.9,19.31,11.63a86.71,86.71,0,0,1-10.41,12.86c-17.24,17.33-39.48,23-57.35,27.55C2003,1908.79,1991.47,1911.72,1985.92,1917.11Z" transform="translate(-47.13 -37.13)"/><path class="cls-6" d="M1970.76,1823.41c-4.2,6.19-6.52,17.2-9,28.87-3.66,17.36-7.8,37-20.13,55.81-13.63,20.75-33,33.35-48.62,43.46-3.81,2.47-7.48,4.86-10.87,7.22h-100.5a160.7,160.7,0,0,1,44.7-57,287.11,287.11,0,0,1,23.63-16.55c10.84-7,21.07-13.67,25.59-20.55,4.12-6.27,6.42-17.17,8.85-28.71,3.55-16.89,8-37.91,20.93-57,17.49-25.75,43.84-38.6,65-48.92,14.81-7.22,28.8-14,34.28-22.41,2.94-4.51,5.25-12.28,7.69-20.5,1.54-5.19,3.13-10.55,5.16-16.22a171.05,171.05,0,0,1,45.49-68l18.1,28.59-8-37.18a168.71,168.71,0,0,1,45.65-25.63c2.64-1,5.12-1.83,7.52-2.64,3.86-1.32,38.81-16.3,52.7-10.46h0a39.17,39.17,0,0,1,22.52,46.68l-36,3,27.29,12.4c-.76.82-1.55,1.63-2.41,2.41a81.36,81.36,0,0,1-7.79,6.26c-10.9,7.71-22,11.48-30.87,14.51-2,.68-3.91,1.33-5.6,1.95-24.61,9.09-45.39,30.08-54.24,54.78-1.29,3.6-2.51,7.7-3.79,12a233.52,233.52,0,0,1-7.54,22.39l-40.71,7.83,34,6q-1.44,2.53-3.07,5c-17.4,26.63-44.25,39.71-65.82,50.23C1990.3,1808.32,1976.41,1815.08,1970.76,1823.41Z" transform="translate(-47.13 -37.13)"/><path class="cls-7" d="M2001.21,1592c.77,13,1.71,28.7-1.19,45.48-20.92,11.78-61.78,34.8-57.12,32.32,4.37-2.32,34.49-9.31,52.14-13.29-10.51,29.68-31.41,51.28-48.6,69-13.28,13.73-25.83,26.7-28.72,38.09-2.14,8.47-.3,21.48,1.66,35.26,2.91,20.53,6.2,43.79.15,69.29-6.69,28.22-23,49.77-36,67.09-5.33,7-10.36,13.71-14.16,20-.7,1.14-1.36,2.31-2,3.5H1769a185.55,185.55,0,0,1,21.44-51.5,333.89,333.89,0,0,1,19.34-27.59c9.09-12,17.67-23.41,19.89-32.76,2-8.53.2-21.4-1.73-35-2.83-20-6.35-44.8.26-70.89,8.93-35.23,32.73-59.84,51.86-79.61,13.38-13.83,26-26.89,28.69-38.26,1.44-6.13.87-15.57.27-25.57-.38-6.31-.77-12.83-.8-19.86-.24-54.28,22.74-107.67,61.94-145l18,8-8.9-16.13c2.25-1.89,4.41-3.63,6.51-5.31,3.71-3,36.09-33.36,53.66-32.48h0c33,1.64,53.68,37,38.28,66.26a95.81,95.81,0,0,1-6.05,10c-8.9,12.81-19.55,21.36-28.11,28.23-1.93,1.55-3.76,3-5.36,4.37-23.39,19.79-37.84,51.12-37.7,81.76C2000.59,1581.76,2000.89,1586.74,2001.21,1592Z" transform="translate(-47.13 -37.13)"/><path class="cls-5" d="M565,1940.87c4.59,3.46,9,10.9,13.67,18.78a191.37,191.37,0,0,0,13,19.89L699,1966.19c-3.14-1.46-6.33-2.81-9.59-4a218.81,218.81,0,0,0-21.29-6.2c-9.62-2.44-18.71-4.74-23.7-8.63-4.55-3.55-8.92-10.91-13.54-18.7-6.76-11.41-15.18-25.61-29.32-36.28-19.09-14.41-41.44-17.24-59.4-19.52-12.56-1.59-24.43-3.09-30.48-7.83-3.26-2.55-6.86-7.63-10.67-13-2.4-3.39-4.88-6.9-7.76-10.52a132.29,132.29,0,0,0-99-49.37c-2.17-.06-4.18-.06-6.13-.06-3.13,0-32.26-2.27-40.93,5.42h0c-16.28,14.44-12.32,41.09,7.64,49.78a63.33,63.33,0,0,0,7.21,2.63c9.84,2.91,18.83,2.91,26.05,2.92,1.63,0,3.18,0,4.56,0a71.79,71.79,0,0,1,53,26.44c1.83,2.3,3.73,5,5.74,7.82l1.95,2.76,26.65-2.41-17.72,13.92a85.81,85.81,0,0,0,11.91,11.48c19.25,15.07,42,18,60.31,20.27C547.05,1934.72,558.83,1936.21,565,1940.87Z" transform="translate(-47.13 -37.13)"/><path class="cls-6" d="M568.49,1846c4.93,5.62,8.59,16.26,12.47,27.53,5.77,16.79,12.31,35.82,26.86,52.91,16.09,18.92,36.89,29,53.61,37.13,4.08,2,8,3.9,11.67,5.82l99.74-12.4a160.74,160.74,0,0,0-51.39-51A283.82,283.82,0,0,0,696,1892.48c-11.62-5.64-22.6-11-27.93-17.24-4.86-5.72-8.48-16.25-12.32-27.39-5.61-16.33-12.6-36.65-27.8-54-20.53-23.4-48.27-32.89-70.56-40.52-15.59-5.34-30.32-10.38-36.78-18-3.48-4.12-6.73-11.54-10.16-19.4-2.17-5-4.41-10.09-7.12-15.46a171.15,171.15,0,0,0-53.54-61.92l-14.44,30.6,3.33-37.88a168.78,168.78,0,0,0-48.47-19.8c-2.74-.65-5.31-1.18-7.79-1.69-4-.83-40.51-11.39-53.58-3.88h0A39.18,39.18,0,0,0,312.21,1655l36.06-1.43-25.55,15.67c.86.73,1.75,1.43,2.69,2.1a80.5,80.5,0,0,0,8.5,5.25c11.77,6.31,23.23,8.68,32.43,10.59,2.08.43,4,.83,5.79,1.24,25.55,6,48.77,24.26,60.59,47.68,1.73,3.41,3.44,7.33,5.25,11.48a231.63,231.63,0,0,0,10.24,21.28l41.37,2.76-33,10.16q1.74,2.32,3.67,4.62c20.55,24.28,48.81,34,71.51,41.72C547.23,1833.45,561.85,1838.45,568.49,1846Z" transform="translate(-47.13 -37.13)"/><path class="cls-7" d="M509.73,1620.15c.82,12.95,1.84,28.7,6.79,45,22.21,9.1,65.59,26.91,60.67,25-4.62-1.76-35.38-5-53.38-6.75,14.09,28.15,37.49,47,56.74,62.53,14.88,12,28.93,23.31,33.2,34.25,3.17,8.14,3,21.28,2.71,35.2-.36,20.73-.76,44.21,8.39,68.78,10.12,27.17,28.93,46.55,44,62.12,6.16,6.35,12,12.34,16.52,18.07.83,1.05,1.63,2.13,2.42,3.22l97.53-12.12A185.58,185.58,0,0,0,757.73,1907a331.76,331.76,0,0,0-22.59-25c-10.51-10.82-20.43-21-23.79-30-3.05-8.21-2.83-21.21-2.59-35,.34-20.15.77-45.24-9-70.32-13.2-33.86-39.86-55.34-61.28-72.6-15-12.07-29.14-23.47-33.19-34.43-2.19-5.9-2.79-15.34-3.43-25.34-.4-6.31-.81-12.82-1.65-19.8-6.46-53.9-35.85-104-79.36-136.29l-16.92,10.12,6.85-17.11c-2.48-1.6-4.84-3.06-7.12-4.47-4-2.49-39.93-28.64-57.26-25.61h0c-32.58,5.7-48.7,43.33-29.81,70.48a93.72,93.72,0,0,0,7.24,9.16c10.4,11.61,22,18.78,31.37,24.54,2.11,1.3,4.1,2.53,5.86,3.68,25.65,16.76,43.85,46.06,47.49,76.48C509.08,1609.89,509.39,1614.88,509.73,1620.15Z" transform="translate(-47.13 -37.13)"/><rect class="cls-8" x="664.66" y="617.7" width="830.74" height="1156.82" transform="translate(-266.38 205.55) rotate(-11.65)"/><rect class="cls-9" x="600.03" y="722.69" width="830.74" height="1156.82" transform="translate(-334.21 250.34) rotate(-14.14)"/><path class="cls-10" d="M831.22,1201.54,648.39,1247.6l-46.06-182.83,182.83-46.06Zm-170.91,26.11,151-38-38-151-151,38Z" transform="translate(-47.13 -37.13)"/><path class="cls-10" d="M901.14,1474.59l-185,46.59-46.59-185,184.95-46.6Zm-171.45,24,148.84-37.49L841,1312.24l-148.83,37.5Z" transform="translate(-47.13 -37.13)"/><path class="cls-10" d="M969.72,1746.84l-185,46.59-46.59-185,185-46.59Zm-171.44,24,148.84-37.49-37.5-148.84L760.79,1622Z" transform="translate(-47.13 -37.13)"/><rect class="cls-11" x="848.83" y="1004.65" width="436.73" height="17.53" transform="translate(-262.36 254.28) rotate(-14.14)"/><rect class="cls-11" x="863.74" y="1063.83" width="436.73" height="17.53" transform="translate(-276.37 259.71) rotate(-14.14)"/><rect class="cls-11" x="917.41" y="1276.9" width="436.73" height="17.53" transform="translate(-326.79 279.28) rotate(-14.14)"/><rect class="cls-11" x="932.32" y="1336.08" width="436.73" height="17.53" transform="translate(-340.8 284.72) rotate(-14.14)"/><rect class="cls-11" x="986" y="1549.15" width="436.73" height="17.53" transform="translate(-391.22 304.29) rotate(-14.14)"/><rect class="cls-11" x="1000.91" y="1608.33" width="436.73" height="17.53" transform="translate(-405.23 309.72) rotate(-14.14)"/><path class="cls-12" d="M785.58,956,730,883.32l14.85-3.74,28.23,38c10.47,14.12,15,21,17.68,25.3l.23-.05c.22-4.46,1.43-12.68,3.55-29.52l7.3-48.06,14.41-3.63-15.1,90.52Z" transform="translate(-47.13 -37.13)"/><path class="cls-12" d="M917.84,879.07c5.78,22.94-4.7,46.65-32.59,53.68-26.59,6.7-47.62-8.07-53.64-32-5.69-22.58,6.17-46.47,32.7-53.15S912.16,856.54,917.84,879.07ZM845.79,896.9c4.29,17,18.09,29.5,37.25,24.67s24.79-22,20.59-38.67c-4.11-16.31-17.7-29-37.18-24.06C848.19,863.44,841.66,880.51,845.79,896.9Z" transform="translate(-47.13 -37.13)"/><path class="cls-12" d="M947.62,840.39l-30.52,7.69-2.82-11.2,74.54-18.78,2.82,11.2L961.17,837l17.72,70.34-13.54,3.42Z" transform="translate(-47.13 -37.13)"/><path class="cls-12" d="M1075,843.65l-48.09,12.11,6.53,25.94,53.15-13.4,1.1,11.62-64.92,16.36-20.54-81.54,64.12-16.16,2.82,11.19-50.64,12.75,5.56,22.06,48.1-12.12Z" transform="translate(-47.13 -37.13)"/><polygon class="cls-12" points="673.65 1157.75 618.38 1127.26 626.85 1111.91 664.87 1132.89 709.59 1023.36 725.81 1029.99 673.65 1157.75"/><polygon class="cls-12" points="780.52 1310.42 762.65 1299.74 732.29 1350.54 681.49 1320.19 670.81 1338.05 721.62 1368.41 691.26 1419.22 709.13 1429.89 739.49 1379.09 790.29 1409.45 800.97 1391.58 750.16 1361.22 780.52 1310.42"/><path class="cls-13" d="M1454,652.34s21.93,197.93,28.47,243.68,2.8,272.61,22.41,321.16,50.41,110.17,46.68,174.59-4.67,297.83-4.67,297.83l322.1-7.47S1856.4,1340,1853.6,1308.24c0,0,72.3-50,99.38-125.6s95.23-205.4,110.17-217.54,60.68-33.61,56.95-49.48-44.82-44.81-124.18,15.87-69.08,93.37-90.56,80.3,30.35-535.91-36.88-535.91-58.6,380.92-81.35,378.43S1765.32,418,1714,426.4c-48.62,8-21.47,423.87-40.15,425.74s-20.54-375.32-64.42-370.65c-62.21,6.61-18.67,385.58-33.61,387.45s-78.42-259.08-103.63-257.68C1446.72,612.67,1454,652.34,1454,652.34Z" transform="translate(-47.13 -37.13)"/><path class="cls-14" d="M1264.6,897l-.74-28.66-40.78,8.4-2.41,18.9C1223.78,898.74,1240.38,913.44,1264.6,897Z" transform="translate(-47.13 -37.13)"/><path class="cls-15" d="M1264.5,893.16l-.64-24.83-41.38,12.87-1.16,9.3C1230.5,893.83,1248,897.88,1264.5,893.16Z" transform="translate(-47.13 -37.13)"/><path class="cls-16" d="M1292.05,816.54c-2.35,7.17.54,14.45,6.46,16.27s12.61-2.5,15-9.66-.53-14.45-6.45-16.27S1294.4,809.38,1292.05,816.54Z" transform="translate(-47.13 -37.13)"/><path class="cls-14" d="M1293.32,857.29a55.12,55.12,0,0,0,3.72-9.83,104.34,104.34,0,0,0,3.81-27.13c0-1.79.17-3.57.34-5.35a56.45,56.45,0,0,0-2.29-22.29c-7.57-24.45-31.26-41.49-57.6-41.36-35.48.16-62.43,29.37-59.69,62.73a13.32,13.32,0,0,0-11.72,0c-6.85,3.61-8.62,13.27-4,21.57s14,12.08,20.85,8.47a11.33,11.33,0,0,0,2.55-1.85c5.31,28.15,31.11,48.22,59.86,45.56a54.48,54.48,0,0,0,35.22-17.48c.59-.57,1.22-1.24,1.87-2A50.11,50.11,0,0,0,1293.32,857.29Z" transform="translate(-47.13 -37.13)"/><path class="cls-17" d="M1239.68,815.66a5.11,5.11,0,0,1-4.71,5.54,5.2,5.2,0,0,1-5.72-4.57,5.11,5.11,0,0,1,4.71-5.53A5.2,5.2,0,0,1,1239.68,815.66Z" transform="translate(-47.13 -37.13)"/><path class="cls-17" d="M1280.81,813.66a5.13,5.13,0,0,1-4.72,5.54,5.19,5.19,0,0,1-5.71-4.57,5.11,5.11,0,0,1,4.71-5.53A5.2,5.2,0,0,1,1280.81,813.66Z" transform="translate(-47.13 -37.13)"/><path class="cls-17" d="M1245,805.06a50.46,50.46,0,0,0-7.68-1.7,26.86,26.86,0,0,0-7.33,0,24.5,24.5,0,0,0-7,2l-.87.36c-.29.12-.55.3-.84.44l-1.71.89c-1.15.62-2.21,1.39-3.49,2a22.1,22.1,0,0,1,2.28-3.39,18.44,18.44,0,0,1,3.11-2.79,17.35,17.35,0,0,1,8-3.19,18.45,18.45,0,0,1,8.59.85A16.59,16.59,0,0,1,1245,805.06Z" transform="translate(-47.13 -37.13)"/><path class="cls-17" d="M1262.13,803.46a16.38,16.38,0,0,1,6.51-5.08,18.33,18.33,0,0,1,8.47-1.59,17.43,17.43,0,0,1,8.25,2.49,18.59,18.59,0,0,1,3.35,2.52,22.16,22.16,0,0,1,2.59,3.17c-1.33-.51-2.46-1.18-3.66-1.7l-1.79-.74c-.3-.11-.57-.27-.88-.37l-.9-.27a24.22,24.22,0,0,0-7.15-1.42,26.71,26.71,0,0,0-7.3.63A49.56,49.56,0,0,0,1262.13,803.46Z" transform="translate(-47.13 -37.13)"/><path class="cls-9" d="M1275.12,847.34c-1.76,6.22-9.43,10.82-18.53,10.66s-16.61-5-18.14-11.3Z" transform="translate(-47.13 -37.13)"/><polygon class="cls-18" points="1064.38 1215.06 1029.51 1930.88 1103.85 1938.44 1232.33 1203.72 1064.38 1215.06"/><path class="cls-9" d="M1205.75,908.21s-8.34,366.65-5.79,366.59,73.17,13.3,73.17,13.3l22-30.24-3.87-337-36.3-12.6-12.56-3.56-16.24.13Z" transform="translate(-47.13 -37.13)"/><polygon class="cls-19" points="1220.88 1156.87 1198.17 885.76 1190.77 885.75 1168.94 1156.87 1194.91 1186.93 1220.88 1156.87"/><path class="cls-20" d="M1234.25,921.05l1.78,1.51a9.23,9.23,0,0,0,11.75.22l3.09-2.44-8.24-13.47-5.78,1.34Z" transform="translate(-47.13 -37.13)"/><path class="cls-21" d="M1568.92,744.49a1.45,1.45,0,0,0,2.43.74c6.3-6.27,26.25-25.89,28.22-24.65,2.33,1.48-15.07,19.44-13.94,21.73s17.67-15.65,19.91-13.67-13.38,17.84-12.73,19,17.24-12.43,19.26-12.06-13.93,17-13.54,18.68,15.22-6.21,16-5,1.56,1.85-26.76,29.07l-11.61,10.24-14,3.25-9.88-14.16s8.05-49.92,9.94-50.79S1565.37,727.17,1568.92,744.49Z" transform="translate(-47.13 -37.13)"/><path class="cls-22" d="M1264.58,895.2s-11.59,6.71-22.13,9.44c-10.54-2.73-22.13-9.44-22.13-9.44l-14.57,13c2.2,11.92,26,20.64,26,20.64l10.46-20.7,8.28,20.7s18-5,29-16.49Z" transform="translate(-47.13 -37.13)"/><path class="cls-19" d="M1583.58,791.81s-8.82-22.53-39-24.88c0,0-58.85,151.35-271.4,138.12,1.29,51.46,7.35,290,11.09,363,37.34-4.18,69.63-8.73,69.63-8.73s-16.8-201.18-5-255.78C1348.81,1003.55,1535.71,1005.52,1583.58,791.81Z" transform="translate(-47.13 -37.13)"/><path class="cls-19" d="M1208.74,905.49c-27.43,6.26-197.6,47.38-230.79,110.66-36.12,68.88,59.64,198.24,100.8,205,0,0,16.38-16,24.78-55.44,0,0-42-46.2-47.46-107.94,0,0,42.42-19.32,60.9-24.78l-15.23,253.23s44.41,18.49,83.89,21.85a218.37,218.37,0,0,0,25.41.09Z" transform="translate(-47.13 -37.13)"/><polygon class="cls-20" points="1161.61 868.36 1104.28 920.22 1132.95 940.38 1104.28 972.3 1161.61 1237.4 1161.61 868.36"/><polygon class="cls-20" points="1226.01 867.92 1283.34 919.38 1254.67 939.54 1283.34 971.46 1237.09 1230.92 1226.01 867.92"/><path class="cls-23" d="M1547.28,921.1s174.74-54.74,306.32-7.37C1853.6,913.73,1694.65,901.1,1547.28,921.1Z" transform="translate(-47.13 -37.13)"/><rect class="cls-24" x="1482.81" y="1768.07" width="337.03" height="156.15"/><path class="cls-23" d="M1547.28,1046.29s151.58,131.93,181.76,197.2c0,0,81.4-148.78,147.37-202.11,0,0-100.35,43.51-145.27,124.91C1731.14,1166.29,1646.23,1076.47,1547.28,1046.29Z" transform="translate(-47.13 -37.13)"/><path class="cls-23" d="M1552.89,1236.19s12.64,82.81,136.15,70.88C1689,1307.07,1588.59,1289.71,1552.89,1236.19Z" transform="translate(-47.13 -37.13)"/><path class="cls-25" d="M1542,1660.79c47.86.84,176.78,2.56,328.2,0a20.23,20.23,0,0,1,20.53,18.93l8.58,133.09a20.24,20.24,0,0,1-20.2,21.54H1537a20.24,20.24,0,0,1-20.23-20.94l4.64-133A20.24,20.24,0,0,1,1542,1660.79Z" transform="translate(-47.13 -37.13)"/><path class="cls-26" d="M1856.19,1747.53a27.08,27.08,0,1,1-27.07-27.08A27.07,27.07,0,0,1,1856.19,1747.53Z" transform="translate(-47.13 -37.13)"/><rect class="cls-10" x="1179.32" y="1252.36" width="332.69" height="671.66"/><polygon class="cls-27" points="1088.3 1924.02 1179.32 1924.02 1179.32 1252.37 1088.3 1298.4 1088.3 1924.02"/><polygon class="cls-28" points="1066.68 1309.21 1088.3 1309.21 1088.3 1298.4 1077.49 1296.65 1066.68 1309.21"/><path class="cls-29" d="M1471.6,1228.47h-10.06v-34.16a8.08,8.08,0,0,0,3.64-10.63l-9.62-20.51a22.18,22.18,0,0,1-14.65,6.87l9.62,20.51a8.11,8.11,0,0,0,6.3,4.59v33.33h-69.57v-38.13a11.68,11.68,0,0,0,5.47-15.46l-13.9-29.62a32,32,0,0,1-21.15,9.92l13.9,29.62a11.69,11.69,0,0,0,11,6.72v37H1324v-16a6.42,6.42,0,0,0,2.89-8.45l-7.64-16.29a17.65,17.65,0,0,1-11.64,5.46l7.65,16.29a6.39,6.39,0,0,0,4,3.44v15.51h-13a24.41,24.41,0,0,0-24.41,24.41l132.66-4.18,81.46,4.18A24.41,24.41,0,0,0,1471.6,1228.47Z" transform="translate(-47.13 -37.13)"/><rect class="cls-27" x="1179.32" y="1208.43" width="355.7" height="43.94"/><polygon class="cls-28" points="1066.68 1309.21 1179.32 1252.37 1179.32 1208.42 1066.68 1268.28 1066.68 1309.21"/><path class="cls-24" d="M1388.08,1107.91a35.92,35.92,0,1,1-47.78-17.26A35.92,35.92,0,0,1,1388.08,1107.91Z" transform="translate(-47.13 -37.13)"/><path class="cls-24" d="M1324.34,1167.23a19.76,19.76,0,1,1-26.28-9.5A19.75,19.75,0,0,1,1324.34,1167.23Z" transform="translate(-47.13 -37.13)"/><path class="cls-24" d="M1462,1137.3a24.88,24.88,0,1,1-33.09-12A24.87,24.87,0,0,1,1462,1137.3Z" transform="translate(-47.13 -37.13)"/><polygon class="cls-14" points="870.94 1904.65 870.94 1889.72 853.86 1884.99 850.06 1886.66 849.41 1904.65 854.79 1920.34 870.94 1904.65"/><path class="cls-30" d="M903.05,1456.58s-22.41,26.63-75.2,31.33-13.27,32.57-13.27,32.57,63.62,9.16,85.85-5.76S903.05,1456.58,903.05,1456.58Z" transform="translate(-47.13 -37.13)"/><polygon class="cls-18" points="833.79 1598.37 845.91 1893.85 874.14 1893.85 899.02 1670.52 866.4 1570.46 833.79 1598.37"/><polygon class="cls-14" points="980.12 1904.65 980.12 1889.72 963.04 1884.99 959.24 1886.66 958.59 1904.65 963.97 1920.34 980.12 1904.65"/><path class="cls-19" d="M801.55,1442l-134.22,31.61a9.8,9.8,0,0,0-7.3,11.79l46,195.4a9.82,9.82,0,0,0,11.8,7.3l134.23-31.61a9.81,9.81,0,0,0,7.3-11.8l-46-195.39A9.81,9.81,0,0,0,801.55,1442Z" transform="translate(-47.13 -37.13)"/><rect class="cls-9" x="691.23" y="1465.58" width="134.32" height="187.91" transform="translate(1806.96 2866.55) rotate(166.75)"/><path class="cls-31" d="M701.84,1450.24h72.73a0,0,0,0,1,0,0v4.35a17.85,17.85,0,0,1-17.85,17.85h-37a17.85,17.85,0,0,1-17.85-17.85v-4.35A0,0,0,0,1,701.84,1450.24Z" transform="translate(1744.61 2677.4) rotate(166.75)"/><rect class="cls-11" x="735.63" y="1483.66" width="59.47" height="5.24" transform="translate(1803.94 2720.41) rotate(166.75)"/><rect class="cls-11" x="740.04" y="1502.4" width="59.47" height="5.24" transform="translate(1816.94 2756.37) rotate(166.75)"/><rect class="cls-11" x="744.45" y="1521.14" width="59.47" height="5.24" transform="translate(1829.94 2792.34) rotate(166.75)"/><rect class="cls-11" x="748.87" y="1539.88" width="59.47" height="5.24" transform="translate(1842.95 2828.31) rotate(166.75)"/><rect class="cls-11" x="753.28" y="1558.62" width="59.47" height="5.24" transform="translate(1855.96 2864.28) rotate(166.75)"/><rect class="cls-11" x="757.69" y="1577.36" width="59.47" height="5.24" transform="translate(1868.96 2900.24) rotate(166.75)"/><rect class="cls-11" x="762.11" y="1596.1" width="59.47" height="5.24" transform="translate(1881.96 2936.21) rotate(166.75)"/><rect class="cls-11" x="766.52" y="1614.84" width="59.47" height="5.24" transform="translate(1894.97 2972.18) rotate(166.75)"/><rect class="cls-11" x="693.87" y="1496.98" width="33.74" height="38.46" transform="translate(1703 2791.98) rotate(166.75)"/><rect class="cls-11" x="705.51" y="1546.4" width="33.74" height="38.46" transform="translate(1737.3 2886.84) rotate(166.75)"/><rect class="cls-11" x="717.15" y="1595.82" width="33.74" height="38.46" transform="translate(1771.6 2981.7) rotate(166.75)"/><path class="cls-14" d="M806.12,1556.93a.84.84,0,0,1-.33,1.43c-5,1.35-20.65,5.7-20.59,7.05.06,1.6,14.15-1.94,15-.71s-13,4.35-12.65,6,12.86-1.56,13.25-.89-11.26,5.07-11.65,6.19,12.61-2.06,13.32-1.39-7.54,5.85-7.17,6.61.47,1.33,22.39-5l8.52-2.87,5.7-6.1-4.27-9.08s-27.45-10.44-28.43-9.73S798.44,1550.12,806.12,1556.93Z" transform="translate(-47.13 -37.13)"/><path class="cls-19" d="M893,1636.13,1003.64,1931l27.08-2.21s-33.72-270.32-53.89-296-64.4-20.17-64.4-20.17Z" transform="translate(-47.13 -37.13)"/><path class="cls-12" d="M954.75,1406.45s5.88-30.5-11.31-41.23-34.89-8.83-46.73-1.61-18.17,31.15-12.23,44.48l39.65-14.35Z" transform="translate(-47.13 -37.13)"/><path class="cls-14" d="M905.31,1456.85s13.66,8.09,24.31,0h0l-2.51-19.77-21.18-4.36-.62,24.13Z" transform="translate(-47.13 -37.13)"/><path class="cls-15" d="M905.6,1445.61l.33-12.89,21.48,6.68.61,4.83C923.25,1446,914.19,1448.06,905.6,1445.61Z" transform="translate(-47.13 -37.13)"/><path class="cls-16" d="M891.29,1405.83c1.22,3.72-.28,7.5-3.35,8.45s-6.55-1.3-7.77-5,.28-7.51,3.35-8.45S890.07,1402.11,891.29,1405.83Z" transform="translate(-47.13 -37.13)"/><path class="cls-14" d="M890.63,1427a29.36,29.36,0,0,1-1.93-5.11,53.89,53.89,0,0,1-2-14.09c0-.92-.09-1.85-.18-2.77a29.23,29.23,0,0,1,1.19-11.58c3.92-12.69,16.23-21.54,29.9-21.48,18.43.09,32.42,15.26,31,32.58a6.93,6.93,0,0,1,6.09,0c3.55,1.88,4.47,6.89,2,11.2s-7.27,6.28-10.82,4.4a5.87,5.87,0,0,1-1.33-1,29.06,29.06,0,0,1-31.08,23.66,28.29,28.29,0,0,1-18.28-9.08,12.57,12.57,0,0,1-1-1A25.94,25.94,0,0,1,890.63,1427Z" transform="translate(-47.13 -37.13)"/><path class="cls-17" d="M918.49,1405.37a2.66,2.66,0,0,0,2.44,2.88,2.71,2.71,0,0,0,3-2.38,2.66,2.66,0,0,0-2.45-2.87A2.69,2.69,0,0,0,918.49,1405.37Z" transform="translate(-47.13 -37.13)"/><path class="cls-17" d="M897.13,1404.33a2.66,2.66,0,0,0,2.45,2.88,2.71,2.71,0,0,0,3-2.38,2.72,2.72,0,0,0-5.42-.5Z" transform="translate(-47.13 -37.13)"/><path class="cls-12" d="M915.73,1399.87a25.72,25.72,0,0,1,4-.89,13.89,13.89,0,0,1,3.81,0,12.86,12.86,0,0,1,3.63,1l.45.19c.15.06.29.16.43.23l.9.46c.59.32,1.14.72,1.81,1a11.34,11.34,0,0,0-1.19-1.76,9.69,9.69,0,0,0-1.61-1.45,9,9,0,0,0-4.15-1.65,9.47,9.47,0,0,0-4.46.44A8.63,8.63,0,0,0,915.73,1399.87Z" transform="translate(-47.13 -37.13)"/><path class="cls-12" d="M906.83,1399a8.66,8.66,0,0,0-3.38-2.64,9.67,9.67,0,0,0-4.4-.82,9.08,9.08,0,0,0-4.28,1.29,9.91,9.91,0,0,0-1.74,1.31,11.73,11.73,0,0,0-1.35,1.65c.69-.26,1.28-.61,1.9-.88l.93-.39c.16-.06.3-.14.46-.19l.47-.14a12.36,12.36,0,0,1,3.71-.74,14,14,0,0,1,3.79.33A26.28,26.28,0,0,1,906.83,1399Z" transform="translate(-47.13 -37.13)"/><path class="cls-16" d="M911.09,1399a19.6,19.6,0,0,1,.37,5.67,15.3,15.3,0,0,1-.47,2.88,7.24,7.24,0,0,1-1.41,2.83l-.33.32-.29.27a3.46,3.46,0,0,0-.39.37,2.23,2.23,0,0,0-.48.86,2.47,2.47,0,0,0,.4,2,8.08,8.08,0,0,0,4.42,2.87,6.76,6.76,0,0,1-5.59-2,3.81,3.81,0,0,1-1-3.23,3.25,3.25,0,0,1,.3-.86,3.53,3.53,0,0,1,.49-.76,4.54,4.54,0,0,1,.62-.62,2.22,2.22,0,0,0,.22-.22l.18-.17a6.94,6.94,0,0,0,1.13-2.15,22.7,22.7,0,0,0,.73-2.58C910.42,1402.66,910.73,1400.83,911.09,1399Z" transform="translate(-47.13 -37.13)"/><path class="cls-9" d="M902.68,1420.73c.91,3.23,4.9,5.61,9.62,5.53s8.63-2.6,9.42-5.86Z" transform="translate(-47.13 -37.13)"/><path class="cls-12" d="M947.85,1405.48a4.84,4.84,0,0,1,3.19-1.6l-1.21-9.75-3.27-5.77s-12.52-15.39-13-15.77-9.71-5.14-10.28-5.39-13.22,2.18-13.22,2.18-22.56-3.7-18.33,7.86,20.81,17,21.63,16.5c-2.75-2.52-3.32-10-3.32-10C922.15,1395.87,944.38,1404.23,947.85,1405.48Z" transform="translate(-47.13 -37.13)"/><path class="cls-32" d="M823.15,1547.06c10.82,2.58,36.3,1.3,55.6-.22.15-16,.76-30.81,2.17-41.24,5-37,22.13-49,22.13-49a42.7,42.7,0,0,0,29-7.09c22.94.28,36.21,12.71,36.21,12.71,35.24,30.4,8.57,92.6,8.57,92.6L986.5,1637c-21.84,7.46-111.11,3-111.11,3s4.36-26.17,3.72-52.8c-28.29-1.58-56-6.08-56-6.08C822,1575,823.15,1547.06,823.15,1547.06Z" transform="translate(-47.13 -37.13)"/><path class="cls-33" d="M941,1491.69a46.4,46.4,0,0,1-13.84,32.61,60.74,60.74,0,0,1-14.52,10.62,83.17,83.17,0,0,1-16.8,6.73c-.73.22-1.44.47-2.18.66l-2.21.54c-1.47.35-2.94.75-4.42,1.07l-4.48.84-2.24.42-2.26.31c-3,.43-6,.89-9.07,1.11l-4.55.42c-1.52.11-3,.17-4.57.26a359.53,359.53,0,0,1-36.7-.22,239,239,0,0,0,36.78,2.16c12.29-.34,24.69-1.65,36.6-5.18a83.5,83.5,0,0,0,17.22-7.06,59.42,59.42,0,0,0,14.79-11.35,49.26,49.26,0,0,0,5.73-7.38,51.94,51.94,0,0,0,4.13-8.36,47.82,47.82,0,0,0,2.29-9A35.11,35.11,0,0,0,941,1491.69Z" transform="translate(-47.13 -37.13)"/><path class="cls-33" d="M823.15,1581.06a311.84,311.84,0,0,0,40.6,6.19,274.35,274.35,0,0,0,41.15.72c13.7-.93,27.48-3,40.46-7.8a70.22,70.22,0,0,0,18.23-9.75,45.47,45.47,0,0,0,13.24-15.62,47.16,47.16,0,0,1-14,14.64,72.94,72.94,0,0,1-18.16,8.9,125.67,125.67,0,0,1-19.72,4.87,190.62,190.62,0,0,1-20.25,2.28,327.39,327.39,0,0,1-40.84-.17q-10.21-.63-20.41-1.7C836.69,1583,829.92,1582.07,823.15,1581.06Z" transform="translate(-47.13 -37.13)"/><path class="cls-17" d="M1199.56,733.29s19.25-14.24,59.93-8.32,46.7,28.59,46.49,60.24l-3.22,25.86s-11.88-.76-23.2-33.16c0,0-25,24.64-34.73,20.68s5.55-21.93,5.55-21.93-41.31,39.73-68.77,37.4c0,0-19.3-51.84,2.53-67.95,0,0-15.43-.51-16-3.7s8-7.19,22.59-4.21c0,0-8.82-22.13-2.77-23.86S1199.56,733.29,1199.56,733.29Z" transform="translate(-47.13 -37.13)"/><path class="cls-16" d="M1261.19,810.5a71.1,71.1,0,0,1,4.46,8.06,65.39,65.39,0,0,1,3.42,8.59,24.84,24.84,0,0,1,1,4.66,9.3,9.3,0,0,1,0,1.29c0,.22-.08.46-.12.69a3.09,3.09,0,0,1-.32.76c-.09.13-.18.26-.28.38l-.24.21a4.6,4.6,0,0,1-.47.41c-.33.24-.65.49-1,.7a22.27,22.27,0,0,1-4.23,2,30.31,30.31,0,0,1-4.44,1.27,49.8,49.8,0,0,0,7.81-4.53c.3-.21.55-.46.82-.69l.37-.37.18-.18a.3.3,0,0,1,0-.1,3.55,3.55,0,0,0,.1-1.73,25.83,25.83,0,0,0-1-4.27c-.86-2.87-1.94-5.71-3-8.57S1262.17,813.42,1261.19,810.5Z" transform="translate(-47.13 -37.13)"/><path class="cls-24" d="M1399.11,1647.76h0a72.88,72.88,0,0,1-72.89-72.88V1290.34H1472v284.54A72.88,72.88,0,0,1,1399.11,1647.76Z" transform="translate(-47.13 -37.13)"/><rect class="cls-27" x="1004.8" y="1833.61" width="646.52" height="91.34"/><rect class="cls-34" x="1004.8" y="1833.61" width="174.52" height="91.34"/><path class="cls-12" d="M1887.49,1428.23s12.08-11.63-1.8-24.27c0,0,8.51-15.47-8.73-20.13,0,0-2.9-26-27-18.35,0,0-18.85-19.27-34.3-6.39,0,0-16.63-5-23,14.19,0,0-17.33,6.36-10.37,27.7,0,0-15.1,15.13-3.34,33.83,0,0-3.94,24.51,23.23,22.63,1.47,6.62,11.45,8.51,17.41,7.16,0,0,8.69,9.05,23.66-.24,1.9,1.59,11.86,9.32,18,2.48,0,0,20.34,3.82,18.18-14C1879.43,1452.87,1893,1444.13,1887.49,1428.23Z" transform="translate(-47.13 -37.13)"/><polygon class="cls-14" points="1734.93 1672.13 1738.57 1903.77 1744.48 1920.49 1762.23 1903.77 1779.07 1666.2 1734.93 1672.13"/><path class="cls-14" d="M1888,1717.11h-44.41s20.91,222.41,20.75,223.79,7.49,11.38,7.49,11.38L1888,1940.9Z" transform="translate(-47.13 -37.13)"/><polygon class="cls-14" points="1734.93 1672.13 1738.57 1903.77 1744.48 1920.49 1762.23 1903.77 1779.07 1666.2 1734.93 1672.13"/><path class="cls-14" d="M1888,1717.11h-44.41s20.91,222.41,20.75,223.79,7.49,11.38,7.49,11.38L1888,1940.9Z" transform="translate(-47.13 -37.13)"/><path class="cls-19" d="M1771.44,1905.62c12.62,5.05,32.22,10.11,53.86,5.49l4-185,3-32.57a45.21,45.21,0,0,0,3.62,2.92l10.8,211.35a111.57,111.57,0,0,0,53.32,3.34c.1-12.71-7.78-206.73-7.86-215.74-.58-65.06-20.69-74.58-20.69-74.58l-34.24-8.67-7.51,1.3c-12-3.94-33.63-8.42-42.54,6.52-12.63,21.17-11.89,86.42-11.89,86.42S1771.35,1896.66,1771.44,1905.62Z" transform="translate(-47.13 -37.13)"/><path class="cls-14" d="M1798.37,1554.7l-32.11-14.86,2.92,34s-60.8-27.6-63.87-30.38c-1-.93-2.19-3.36-3.31-6.2a62.88,62.88,0,0,1-2.68-9.23c-1.07-4.72-5.11-8.5-6.47-9.73a19.11,19.11,0,0,1-2.7-5.22,1,1,0,0,0-1.92.1l-.32,2.13a10.76,10.76,0,0,0,.87,5.39l-.84-.32-1.4,14.3,1.71,12.5,9.62,7.25s84.71,61,92.46,53C1798.65,1598.88,1798.37,1554.7,1798.37,1554.7Z" transform="translate(-47.13 -37.13)"/><path class="cls-35" d="M1791.07,1482.77s-6.57,1.56-16.09,13.34-18,44.34-18,44.34l30.38,16.59,19.76-39.33Z" transform="translate(-47.13 -37.13)"/><path class="cls-36" d="M1877.13,1670.54c-3.21,1.18-6.36,2.45-9.49,3.8s-6.21,2.8-9.27,4.27-6.11,3-9.13,4.57-6,3.17-9,4.83l-.24-.57a62,62,0,0,1,6.74-1c2.26-.23,4.54-.32,6.81-.33a55,55,0,0,1,6.79.4l1.69.22,1.67.29.84.15.82.2,1.65.4-1.67-.32-.83-.16-.84-.12-1.67-.24-1.69-.16c-.56-.06-1.12-.09-1.69-.12s-1.12-.07-1.69-.08l-1.69,0c-.56,0-1.13,0-1.69,0-2.25,0-4.5.21-6.74.45a64.15,64.15,0,0,0-6.66,1.07l-2,.45,1.78-1c3-1.69,6-3.32,9-4.86s6.09-3.06,9.18-4.52,6.22-2.79,9.38-4.09c1.59-.63,3.18-1.26,4.79-1.83S1875.51,1671.06,1877.13,1670.54Z" transform="translate(-47.13 -37.13)"/><path class="cls-36" d="M1787.23,1669.24c1.62.53,3.25,1,4.85,1.65s3.2,1.2,4.79,1.83c3.15,1.3,6.29,2.65,9.38,4.09s6.14,3,9.17,4.51,6,3.18,9,4.86l1.78,1-2-.45a64.39,64.39,0,0,0-6.65-1.07c-2.24-.24-4.49-.4-6.75-.45-.56,0-1.12,0-1.69,0l-1.69,0c-.56,0-1.12.06-1.69.08s-1.13.06-1.69.12l-1.68.16-1.68.24-.84.12-.83.16-1.66.32,1.64-.4.83-.2.84-.15,1.67-.29,1.68-.23a57.3,57.3,0,0,1,6.8-.39,67.15,67.15,0,0,1,6.8.33,62.17,62.17,0,0,1,6.75,1l-.24.57c-3-1.66-6-3.24-9-4.83s-6-3.09-9.12-4.57-6.15-2.91-9.27-4.27S1790.43,1670.43,1787.23,1669.24Z" transform="translate(-47.13 -37.13)"/><path class="cls-37" d="M1794.06,1631.67c2.78.49,5.57.89,8.37,1.25s5.6.68,8.41.95c5.62.54,11.26.9,16.9,1q4.23.09,8.46,0t8.45-.45c2.81-.25,5.62-.57,8.4-1s5.55-1,8.27-1.74c-2.71.77-5.46,1.39-8.24,1.9s-5.59.83-8.4,1.11-5.64.41-8.47.51-5.65.08-8.48,0q-8.48-.21-16.92-1.1c-2.8-.3-5.61-.64-8.4-1S1796.83,1632.21,1794.06,1631.67Z" transform="translate(-47.13 -37.13)"/><path class="cls-26" d="M1857.65,1642.16a6.86,6.86,0,0,0,.45.95l.48.93,1,1.85,1.65,3.06,4.69,8.15c.65,1.24,6.81,12,8.27,14.36-1.81-2.17-4-4.31-5.48-6.69-.74-1.2-1.44-2.42-2.14-3.63s-1.35-2.45-2-3.69c-1.3-2.48-2.56-5-3.73-7.52-.59-1.27-1.15-2.55-1.7-3.84-.26-.64-.53-1.29-.78-1.94A16.1,16.1,0,0,1,1857.65,1642.16Z" transform="translate(-47.13 -37.13)"/><path class="cls-38" d="M1917.41,1520.68c-13.81-16.66-29.76-34.75-43.71-41.79-5.34-2.69-18-3.23-25.37-4.43,0,0-19.21-2.37-38.16.13-10.22,3.74-28.07,10.07-28.3,16.13-1.17,30.24-1.51,53.43-1.35,71.2,0,.06-.5,64.45,0,78.21,0,0,70,15.09,105.81,6,0,0,5.91-84.23-2.58-107l3.62,4.61S1901.75,1540.5,1917.41,1520.68Z" transform="translate(-47.13 -37.13)"/><path class="cls-14" d="M1915.3,1523.3c-9.5,11.55-20,17.68-25.27,19.61l33.85,40.55L1862,1650.22l10.9,19c8.61-4.18,10.56-20,10.56-20s76.64-51.25,76.64-63.5C1960.05,1569.27,1915.3,1523.3,1915.3,1523.3Z" transform="translate(-47.13 -37.13)"/><path class="cls-39" d="M1915.84,1522.5c-.53.59-1,1.23-1.56,1.8l-1.65,1.74-.81.88-.86.83-1.72,1.65c-.58.55-1.19,1.06-1.78,1.59-1.17,1.08-2.48,2-3.7,3a66,66,0,0,1-8,5.13l-1,.56-1.07.52c-.7.35-1.43.67-2.16,1-.36.17-.73.3-1.1.44s-.73.3-1.1.42-1,.36-1.53.51l-3.7-4.44-4.21-4.94c-2.8-3.31-5.66-6.57-8.5-9.84s-5.73-6.5-8.65-9.71-5.84-6.42-8.85-9.55c2.57,3.48,5.22,6.9,7.89,10.31s5.39,6.77,8.11,10.14,5.48,6.71,8.27,10l4.16,5,4.22,5,.46.54.66-.18a25,25,0,0,0,2.44-.78c.79-.29,1.56-.61,2.31-1s1.51-.69,2.24-1.08c.36-.19.73-.37,1.09-.57l1.08-.61a58.62,58.62,0,0,0,8-5.62l1.83-1.62c.61-.53,1.18-1.1,1.76-1.68s1.15-1.13,1.7-1.72l1.61-1.81.79-.91.75-.94,1.48-1.91c1-1.28,1.81-2.64,2.7-4Z" transform="translate(-47.13 -37.13)"/><path class="cls-14" d="M1817.42,1473.91s13.9,8.23,24.73,0h0l-2.56-20.12-21.54-4.43-.63,24.55Z" transform="translate(-47.13 -37.13)"/><path class="cls-15" d="M1817.71,1462.47l.34-13.11,21.86,6.79.61,4.92C1835.67,1462.83,1826.45,1465,1817.71,1462.47Z" transform="translate(-47.13 -37.13)"/><path class="cls-16" d="M1802,1416.59c.58,3.94-1.57,7.47-4.82,7.89s-6.34-2.43-6.93-6.37,1.58-7.47,4.82-7.89S1801.42,1412.65,1802,1416.59Z" transform="translate(-47.13 -37.13)"/><path class="cls-14" d="M1797.7,1437.69a28.55,28.55,0,0,1-1.06-5.45,55.18,55.18,0,0,1,.44-14.47c.14-.93.23-1.87.3-2.81a29.78,29.78,0,0,1,3.19-11.41c6.12-12,20-18.8,33.68-16.39,18.46,3.26,29.88,20.88,25.48,38a7,7,0,0,1,6.1,1c3.24,2.5,3.3,7.68.13,11.58s-8.38,5-11.62,2.55a5.94,5.94,0,0,1-1.16-1.19,29.57,29.57,0,0,1-35.23,18.38,28.77,28.77,0,0,1-16.78-12.25,13.38,13.38,0,0,1-.8-1.21A26.45,26.45,0,0,1,1797.7,1437.69Z" transform="translate(-47.13 -37.13)"/><path class="cls-17" d="M1831.46,1420.8a2.7,2.7,0,0,0,2,3.3,2.74,2.74,0,0,0,3.38-1.87,2.7,2.7,0,0,0-2-3.3A2.74,2.74,0,0,0,1831.46,1420.8Z" transform="translate(-47.13 -37.13)"/><path class="cls-17" d="M1808.11,1416.09a2.71,2.71,0,0,0,2,3.31,2.76,2.76,0,0,0,3.39-1.87,2.72,2.72,0,0,0-2-3.31A2.75,2.75,0,0,0,1808.11,1416.09Z" transform="translate(-47.13 -37.13)"/><path class="cls-12" d="M1829.65,1414.8a26.86,26.86,0,0,1,4.15-.2,14.16,14.16,0,0,1,3.82.66,12.81,12.81,0,0,1,3.45,1.68l.43.26c.14.09.26.21.39.3l.82.62c.54.43,1,.92,1.63,1.36a11.52,11.52,0,0,0-.88-2,9.83,9.83,0,0,0-1.37-1.73,9.19,9.19,0,0,0-3.87-2.37,9.66,9.66,0,0,0-4.55-.33A8.76,8.76,0,0,0,1829.65,1414.8Z" transform="translate(-47.13 -37.13)"/><path class="cls-12" d="M1818.75,1412.45a8.66,8.66,0,0,0-2.94-3.23,9.57,9.57,0,0,0-4.27-1.58,9.16,9.16,0,0,0-4.51.55,10.19,10.19,0,0,0-2,1,11.78,11.78,0,0,0-1.64,1.42c.74-.15,1.39-.4,2.06-.56l1-.22c.17,0,.32-.09.49-.12l.49-.06a12.79,12.79,0,0,1,3.85-.1,14,14,0,0,1,3.75,1A25.89,25.89,0,0,1,1818.75,1412.45Z" transform="translate(-47.13 -37.13)"/><path class="cls-16" d="M1823,1413.11a19.68,19.68,0,0,1-.6,5.76,14.76,14.76,0,0,1-1,2.8,7.56,7.56,0,0,1-1.9,2.6l-.38.26-.34.22a2.55,2.55,0,0,0-.45.31,2,2,0,0,0-.64.77,2.53,2.53,0,0,0,0,2.1,8.3,8.3,0,0,0,4,3.64,6.88,6.88,0,0,1-5.26-3,3.85,3.85,0,0,1-.4-3.4,3,3,0,0,1,.44-.81,3.66,3.66,0,0,1,.62-.68,4.56,4.56,0,0,1,.73-.51c.15-.09.18-.13.26-.18l.21-.15a7.17,7.17,0,0,0,1.51-2,23.22,23.22,0,0,0,1.17-2.46C1821.73,1416.7,1822.35,1414.92,1823,1413.11Z" transform="translate(-47.13 -37.13)"/><path class="cls-9" d="M1810.86,1433.49c.36,3.39,3.94,6.47,8.69,7.2s9.1-1.13,10.45-4.26Z" transform="translate(-47.13 -37.13)"/><polygon class="cls-26" points="1630.12 1293.66 1651.67 1778.05 1656.02 1777.93 1634.47 1293.63 1630.12 1293.66"/><path class="cls-14" d="M1679.59,1533.63a22.51,22.51,0,0,1,.25-3.34,3.67,3.67,0,0,1,2.56-2.74l1.48-.45.14,3.34h0c-.13,2.55-.18,2.37,3.36,3.9,5,2.19,2.93,4.83,2.93,4.83s-1.4,1.88-7.57-1.2C1682.74,1538,1679.78,1536.41,1679.59,1533.63Z" transform="translate(-47.13 -37.13)"/><path class="cls-14" d="M1679.06,1536.49a23.13,23.13,0,0,1,.24-3.17,3.52,3.52,0,0,1,2.44-2.62l1.41-.42.13,3.17h0c-.12,2.42-.17,2.25,3.2,3.71,4.8,2.09,2.79,4.6,2.79,4.6s-1.33,1.79-7.2-1.15C1682.07,1540.62,1679.25,1539.14,1679.06,1536.49Z" transform="translate(-47.13 -37.13)"/><path class="cls-14" d="M1679.84,1540.3a18.08,18.08,0,0,1,.2-2.68,3,3,0,0,1,2.06-2.21l1.2-.37.11,2.69h0c-.1,2.06-.15,1.91,2.7,3.15,4.06,1.76,2.36,3.89,2.36,3.89s-1.12,1.51-6.09-1C1682.38,1543.8,1680,1542.55,1679.84,1540.3Z" transform="translate(-47.13 -37.13)"/><path class="cls-14" d="M1680.68,1529.53a22.51,22.51,0,0,1,.25-3.34,3.67,3.67,0,0,1,2.56-2.74l1.49-.45.13,3.34h0c-.12,2.54-.17,2.37,3.36,3.9,5,2.19,2.93,4.83,2.93,4.83s-1.4,1.88-7.56-1.21C1683.84,1533.86,1680.88,1532.31,1680.68,1529.53Z" transform="translate(-47.13 -37.13)"/><path class="cls-16" d="M1685.11,1526.34a10.27,10.27,0,0,0,.08,1.67,1.66,1.66,0,0,0,1.1,1.1c1,.49,2.12.85,3.18,1.38.25.14.52.28.77.44a6,6,0,0,1,.7.55,3.33,3.33,0,0,1,1,1.48,2.57,2.57,0,0,1-.1,1.83,3,3,0,0,1-.24.42,1.4,1.4,0,0,1-.41.34,3.22,3.22,0,0,1-.92.31,5.83,5.83,0,0,1-1.82-.06,12.36,12.36,0,0,1-1.72-.43,20,20,0,0,1-3.21-1.42,7.12,7.12,0,0,1-2.42-2.49,4.64,4.64,0,0,1-.5-1.65,4,4,0,0,1,0-.85l.07-.84v.84a4.57,4.57,0,0,0,0,.83,4.49,4.49,0,0,0,.6,1.53,6.7,6.7,0,0,0,2.4,2.27,26.38,26.38,0,0,0,3.15,1.3,7.76,7.76,0,0,0,3.28.42,2.4,2.4,0,0,0,.73-.23.83.83,0,0,0,.24-.19,1.93,1.93,0,0,0,.19-.32,2,2,0,0,0,.1-1.46,3,3,0,0,0-.88-1.29,5.3,5.3,0,0,0-.64-.51c-.22-.16-.47-.3-.7-.45-1-.54-2.08-1-3.1-1.51a3,3,0,0,1-.73-.52,1.47,1.47,0,0,1-.39-.8A7.92,7.92,0,0,1,1685.11,1526.34Z" transform="translate(-47.13 -37.13)"/><path class="cls-16" d="M1689.52,1535.6a3.06,3.06,0,0,1,1.37,2.21,2.55,2.55,0,0,1-.34,1.32.79.79,0,0,1-.25.3,1.69,1.69,0,0,1-.31.21,3.15,3.15,0,0,1-.67.24,6.35,6.35,0,0,1-2.75-.15,17.14,17.14,0,0,1-2.56-.87c-.42-.17-.81-.38-1.22-.57a5.83,5.83,0,0,1-1.15-.75,6.29,6.29,0,0,1-1.73-2.07,4.83,4.83,0,0,1-.43-1.28,4.89,4.89,0,0,1,0-.66l0-.66a18.66,18.66,0,0,1,.38-2.58c-.07.86-.11,1.73-.1,2.59v.63a4.41,4.41,0,0,0,.09.62,4.77,4.77,0,0,0,.46,1.15,6.75,6.75,0,0,0,1.68,1.86,6,6,0,0,0,1.07.67c.4.18.79.38,1.19.54a16.77,16.77,0,0,0,2.46.88,6.61,6.61,0,0,0,2.53.23,1.51,1.51,0,0,0,1-.5,2.34,2.34,0,0,0,.37-1.15,2.41,2.41,0,0,0-.29-1.19A4.56,4.56,0,0,0,1689.52,1535.6Z" transform="translate(-47.13 -37.13)"/><path class="cls-16" d="M1689.53,1539.68a2.18,2.18,0,0,1,0,1.87,1.26,1.26,0,0,1-.29.43,1.53,1.53,0,0,1-.45.28,3.07,3.07,0,0,1-1,.25,9.09,9.09,0,0,1-3.84-.72c-.59-.25-1.18-.5-1.76-.79a6.07,6.07,0,0,1-1.59-1.14,5.83,5.83,0,0,1-1.16-1.54,3.91,3.91,0,0,1-.43-1.83,5.21,5.21,0,0,0,1.89,3.06,6.38,6.38,0,0,0,1.54,1c.57.27,1.14.51,1.73.74a13.66,13.66,0,0,0,1.78.57,6.57,6.57,0,0,0,1.81.24,2.84,2.84,0,0,0,.88-.14,1.5,1.5,0,0,0,.38-.19,1.19,1.19,0,0,0,.25-.32A2.22,2.22,0,0,0,1689.53,1539.68Z" transform="translate(-47.13 -37.13)"/><path class="cls-16" d="M1688.21,1542.25a2.1,2.1,0,0,1,.75,1.54,2,2,0,0,1-.21.88,1.13,1.13,0,0,1-.12.21.88.88,0,0,1-.2.19,1.78,1.78,0,0,1-.43.23,3.94,3.94,0,0,1-1.83.11,9.12,9.12,0,0,1-1.73-.43,15.38,15.38,0,0,1-1.62-.68,7.43,7.43,0,0,1-.78-.42,4.8,4.8,0,0,1-.71-.55,4,4,0,0,1-1.49-3,4.46,4.46,0,0,0,1.79,2.7,5.46,5.46,0,0,0,.68.47c.22.14.49.23.75.36.51.23,1,.45,1.57.63a9.46,9.46,0,0,0,1.62.43,3.75,3.75,0,0,0,1.6,0,1.3,1.3,0,0,0,.34-.15.73.73,0,0,0,.13-.09,1,1,0,0,0,.1-.15,1.64,1.64,0,0,0,.26-.72,1.78,1.78,0,0,0-.07-.79A3,3,0,0,0,1688.21,1542.25Z" transform="translate(-47.13 -37.13)"/><ellipse class="cls-10" cx="1637.2" cy="1328.9" rx="85.46" ry="95.18"/><ellipse class="cls-40" cx="1637.2" cy="1328.9" rx="78.32" ry="87.23"/><rect class="cls-14" x="1627.81" y="1392.58" width="20.37" height="22.65"/><path class="cls-16" d="M1695.3,1443.28v-13.57h-20.36v11.55C1679.32,1443.88,1685.81,1445.39,1695.3,1443.28Z" transform="translate(-47.13 -37.13)"/><path class="cls-14" d="M1727.41,1389.18a6.86,6.86,0,0,0-6.82.3c.77-22.35-15.62-41.14-36.26-40.35-20.64-.79-37,18-36.26,40.35a6.88,6.88,0,0,0-6.83-.3c-4.07,2.23-5.34,8.64-2.83,14.3s7.86,8.45,11.94,6.22a6.92,6.92,0,0,0,1.52-1.17c2.34,18.47,16.2,32.32,32.46,32.06,16.26.26,30.12-13.59,32.45-32.06a7,7,0,0,0,1.53,1.17c4.08,2.23,9.42-.55,11.93-6.22S1731.49,1391.41,1727.41,1389.18Z" transform="translate(-47.13 -37.13)"/><path class="cls-17" d="M1659.53,1340.28s10.22-9.64,33.45-8.08,27.65,15.06,29,34.34l-1.36,22.94s-6-6.91-13.89-26.06c0,0-13,16.25-18.67,14.33s2.15-13.63,2.15-13.63-26.5,25.39-42.11,25.36c0,0-8.26-29.72,3.33-40.63,0,0-8.73.47-9.19-1.45s4.16-4.77,12.56-3.69c0,0-6-13-2.64-14.39S1659.53,1340.28,1659.53,1340.28Z" transform="translate(-47.13 -37.13)"/><path class="cls-9" d="M1697.65,1415.57c-.89,4.48-5.5,8-11.14,8.19s-10.43-3-11.57-7.42Z" transform="translate(-47.13 -37.13)"/><path class="cls-14" d="M1682.33,1450.65s-7.39,1.7-7.39,1.7v.28a70.35,70.35,0,0,0,20.36-.23v-.05l-1.17-1Z" transform="translate(-47.13 -37.13)"/><path class="cls-12" d="M1649.21,1322.37l-8.57-20.89,3.44-.08,4.3,10.86c1.59,4,2.24,6,2.62,7.17h0c.27-1.08,1-3,2.26-7l4-11.34,3.35-.09-7.86,21.3Z" transform="translate(-47.13 -37.13)"/><path class="cls-12" d="M1682.11,1310.93c.12,5.93-3.37,11.15-9.85,11.31-6.17.15-10-4.63-10.18-10.81-.12-5.84,3.69-11,9.85-11.18S1682,1305.1,1682.11,1310.93Zm-16.72.34c.09,4.4,2.49,8.22,6.95,8.11s6.54-4,6.46-8.31-2.44-8.07-7-8C1667.59,1303.22,1665.31,1307,1665.39,1311.27Z" transform="translate(-47.13 -37.13)"/><path class="cls-12" d="M1690.59,1303.13l-7.09.18-.06-2.9,17.31-.43.06,2.9-7.08.17.37,18.2-3.15.07Z" transform="translate(-47.13 -37.13)"/><path class="cls-12" d="M1718.39,1311l-11.17.28.13,6.71,12.35-.31-.35,2.9-15.07.38-.43-21.09,14.89-.37.06,2.89-11.76.3.12,5.7,11.17-.28Z" transform="translate(-47.13 -37.13)"/><path class="cls-12" d="M1860.64,1387.9l.86,19.39-45.35-10.93s-5,4.42-5.71,4.33-6.51-2.54-6.29-3.36,15.95-21.72,15.95-21.72,15,3.4,16.38,3.76S1860.64,1387.9,1860.64,1387.9Z" transform="translate(-47.13 -37.13)"/><path class="cls-10" d="M1860.67,1418.25s-23-20.34-61.29-12.06c0,0,0-.16-.1-.44a10.76,10.76,0,0,1,7.83-12.37c8.76-2.39,27.8-4.28,52.43,12.36a8.08,8.08,0,0,1,1.52,12.11Z" transform="translate(-47.13 -37.13)"/><rect class="cls-14" x="2089.55" y="1465.68" width="20.19" height="48.9" transform="matrix(0.99, -0.13, 0.13, 0.99, -224.85, 251.92)"/><path class="cls-14" d="M2132.39,1418.71a7.45,7.45,0,0,0-6.66,1.15,35.9,35.9,0,0,0-71.17,9.44,7.49,7.49,0,0,0-6.73.62c-3.74,2.5-4.24,8.31-1.11,13s8.7,6.42,12.44,3.92a6.67,6.67,0,0,0,1.36-1.23c4.45,16,19.67,26.37,35.6,24,16-1.89,28-15.9,28.1-32.48a6.42,6.42,0,0,0,1.63.83c4.27,1.44,9.18-1.71,11-7S2136.65,1420.14,2132.39,1418.71Z" transform="translate(-47.13 -37.13)"/><path class="cls-17" d="M2082.08,1432.76a3,3,0,1,1-3.53-2.4A3,3,0,0,1,2082.08,1432.76Z" transform="translate(-47.13 -37.13)"/><path class="cls-17" d="M2107.9,1429.62a3,3,0,1,1-3.53-2.4A3,3,0,0,1,2107.9,1429.62Z" transform="translate(-47.13 -37.13)"/><path class="cls-17" d="M2084.55,1426.21a28.13,28.13,0,0,0-4.5-.6,14.7,14.7,0,0,0-4.21.38,13.76,13.76,0,0,0-3.9,1.57l-.49.25c-.16.09-.3.21-.45.31l-.94.62c-.63.42-1.2.93-1.9,1.37a12.8,12.8,0,0,1,1.13-2.13,10.78,10.78,0,0,1,1.63-1.82,9.9,9.9,0,0,1,4.42-2.31,10.23,10.23,0,0,1,5,.06A9.47,9.47,0,0,1,2084.55,1426.21Z" transform="translate(-47.13 -37.13)"/><path class="cls-17" d="M2096.62,1424.56a9.51,9.51,0,0,1,3.46-3.35,10.33,10.33,0,0,1,4.79-1.39,9.8,9.8,0,0,1,4.87,1,11.29,11.29,0,0,1,2.06,1.32,14.32,14.32,0,0,1,1.66,1.74c-.8-.22-1.48-.56-2.2-.81l-1.07-.34c-.18,0-.34-.13-.52-.17l-.53-.12a13.94,13.94,0,0,0-4.18-.46,14.79,14.79,0,0,0-4.16.76A28,28,0,0,0,2096.62,1424.56Z" transform="translate(-47.13 -37.13)"/><path class="cls-41" d="M2123.74,1380.85c-7.31-11.67-33.58-18-49.3-13.67,0,0,.48,4.06,2.09,6.13-1.88-1.85-9.11-7.28-24.62-1.39,0,0,2.85,5,4.29,6.78a27.37,27.37,0,0,1-10.45-.89s-3.93,9.25,1.13,17l-5.71-1.45s4.25,18.6,8,29.86h0c.69,3.46,1.3,5.65,1.3,5.65.29,0,3.39-.89,8.24,2.85l.84-.57c3.33-2.29,1.91-18.51,6.74-25.74,9.25-5.44,30.78-9,38.75-7.55,9.3,1.7,12.45,23.45,16.92,25l1,.34c2.83-5.11,6.92-4.82,7.21-4.87C2130.11,1418.36,2131,1392.51,2123.74,1380.85Z" transform="translate(-47.13 -37.13)"/><path class="cls-16" d="M2090.57,1422.74a45.71,45.71,0,0,1,3.38,4.81,42.55,42.55,0,0,1,2.76,5.22,15.77,15.77,0,0,1,.94,2.89,6.91,6.91,0,0,1,.08.82c0,.14,0,.3,0,.45a1.9,1.9,0,0,1-.15.5l-.15.26-.13.15-.27.3c-.2.17-.39.35-.59.51a14.37,14.37,0,0,1-2.54,1.59,20.87,20.87,0,0,1-2.73,1.12,32.43,32.43,0,0,0,4.65-3.42c.17-.15.32-.33.47-.49l.21-.26.1-.13a.64.64,0,0,1,0-.07,2.25,2.25,0,0,0-.06-1.1,15.51,15.51,0,0,0-.93-2.65c-.74-1.76-1.62-3.49-2.47-5.23S2091.39,1424.53,2090.57,1422.74Z" transform="translate(-47.13 -37.13)"/><path class="cls-9" d="M2102.78,1447c-.33,3.08-3.51,5.83-7.71,6.44s-8-1.14-9.22-4Z" transform="translate(-47.13 -37.13)"/><path class="cls-14" d="M2073.31,1480.11l49.25-6.53-10.44,23.72s-21.94,3.94-24.1,3.2S2073.31,1480.11,2073.31,1480.11Z" transform="translate(-47.13 -37.13)"/><path class="cls-19" d="M2061.11,1632.67s-21.78,194.24-18.25,261.93l38.47,4.59,40.06-224.73,5.07.19,25.81,226h34.93s5.76-225.63-13.07-289.2S2061.11,1632.67,2061.11,1632.67Z" transform="translate(-47.13 -37.13)"/><path class="cls-14" d="M2074.65,1909.08l-.8,28.13-18.67,13.54s-7.09-13.51-6.91-15.16,0-33.91,0-33.91Z" transform="translate(-47.13 -37.13)"/><path class="cls-14" d="M2158.77,1909.08l.79,28.13,18.68,13.54s6.11-13.51,5.94-15.16,1-33.91,1-33.91Z" transform="translate(-47.13 -37.13)"/><path class="cls-42" d="M2041.76,1892.08l40.47,4.82a1.94,1.94,0,0,1,1.68,2.29l-2.74,14.27A1.94,1.94,0,0,1,2079,1915l-37.91-5.23a1.94,1.94,0,0,1-1.67-2l.17-13.85A1.94,1.94,0,0,1,2041.76,1892.08Z" transform="translate(-47.13 -37.13)"/><path class="cls-14" d="M2017.68,1518.7l12.5-36.63-10.39-2.32c-22-.67-42.79-11-46.15-14.45-7.12-7.41,18-57,18-57l-19.44-3.93s-44.72,59.93-25.64,80.42,65.8,33.46,65.8,33.46Z" transform="translate(-47.13 -37.13)"/><path class="cls-14" d="M2186.22,1496.34l-21.61-32.1,9.43-5c21.08-6.39,38.46-21.73,40.79-26,4.94-9-32.25-50.37-32.25-50.37l17.74-8.87s58.8,46.21,45.72,71-54.81,49.46-54.81,49.46Z" transform="translate(-47.13 -37.13)"/><path class="cls-42" d="M2190.59,1893.16l-40.47,4.82a1.94,1.94,0,0,0-1.67,2.29l2.74,14.27a1.93,1.93,0,0,0,2.17,1.55l37.9-5.23a1.94,1.94,0,0,0,1.67-1.95l-.17-13.85A1.93,1.93,0,0,0,2190.59,1893.16Z" transform="translate(-47.13 -37.13)"/><path class="cls-24" d="M2195.11,1496l-20.79-39.17c-12.78,5.8-32.76,11-43,13.48a40.68,40.68,0,0,0-12,5l-.42.25a51.08,51.08,0,0,1-41.67,5.53l-.47-.14a40.85,40.85,0,0,0-12.86-1.74c-10.51.28-31.15.45-45-1.82l-9.86,43.24a175.2,175.2,0,0,0,40.36,3.6l6.28,124.45h0a290.18,290.18,0,0,0,126.71-16.57l1-.37L2157.08,1510A175.21,175.21,0,0,0,2195.11,1496Z" transform="translate(-47.13 -37.13)"/><path class="cls-9" d="M2232.31,1369.86l-301.1,39.94a11.36,11.36,0,0,1-12.76-9.77l-21.22-160a11.37,11.37,0,0,1,9.77-12.76l301.1-39.94a11.36,11.36,0,0,1,12.76,9.77l21.22,160A11.37,11.37,0,0,1,2232.31,1369.86Z" transform="translate(-47.13 -37.13)"/><path class="cls-14" d="M1993.31,1401.53s5.58-2.22,5.74-6.84,3.25-2.48,3.51-.47,3.53,11.17-10.92,14-19.44-3.93-19.44-3.93Z" transform="translate(-47.13 -37.13)"/><path class="cls-14" d="M2179.21,1376.87s-6-.69-7.32-5.11-3.79-1.54-3.52.47-.49,11.7,14.2,10.71,17.75-8.87,17.75-8.87Z" transform="translate(-47.13 -37.13)"/><rect class="cls-11" x="1920.82" y="1238.73" width="284.12" height="10.9" transform="translate(-192.81 244.91) rotate(-7.56)"/><rect class="cls-11" x="1925.21" y="1271.84" width="284.12" height="10.9" transform="translate(-197.12 245.77) rotate(-7.56)"/><rect class="cls-11" x="1929.6" y="1304.94" width="284.12" height="10.9" transform="translate(-201.44 246.64) rotate(-7.56)"/><rect class="cls-11" x="1979.77" y="1338.05" width="192.56" height="10.9" transform="translate(-205.75 247.51) rotate(-7.56)"/><path class="cls-43" d="M2442.32,1983.88H262.44a11.35,11.35,0,0,1-11.34-11.35h0a11.35,11.35,0,0,1,11.34-11.35H2442.32a11.35,11.35,0,0,1,11.34,11.35h0A11.35,11.35,0,0,1,2442.32,1983.88Z" transform="translate(-47.13 -37.13)"/><path class="cls-14" d="M596.59,1447.69l1,14.3s22.47,6.33,22.93,6.14,5.42-3.1,5.42-3.1l-.6-6.27s-.26-5.92.06-7.25-25.06-6.49-25.06-6.49Z" transform="translate(-47.13 -37.13)"/><path class="cls-44" d="M627.87,1465.71s61.51,17.92,89.11,73.37a15.22,15.22,0,0,1-1.82,16.45c-8.37,10.21-27,28-61.91,40.23,0,0-6.54-2.18-7.36-10.62,0,0,33.24-30.24,41.68-37.32L641,1511.32Z" transform="translate(-47.13 -37.13)"/><path class="cls-14" d="M643.78,1591.71l10.79-7.28,5.34,8.86s-7.45,27.66-8.2,35.31c0,0-2.72.86-3.1-.72S643.78,1591.71,643.78,1591.71Z" transform="translate(-47.13 -37.13)"/><path class="cls-12" d="M576.32,1413.12s-7-28.6,9.64-39.32,34.2-9.52,46.19-3.1,19.16,28.8,13.79,41.58l-39.79-12.21Z" transform="translate(-47.13 -37.13)"/><polygon class="cls-14" points="595.73 1905.63 588.57 1881.39 611.81 1878.92 613.23 1880.52 617.13 1902.4 606.15 1913.46 595.73 1905.63"/><polygon class="cls-14" points="450.24 1875.45 462.33 1853.24 480.5 1867.93 480.38 1870.06 467.66 1888.28 452.07 1888.35 450.24 1875.45"/><path class="cls-14" d="M472.24,1415.47a.79.79,0,0,1-1.4,0c-2.22-4.36-9.29-18.06-10.53-17.75-1.48.38,4.55,12.77,3.56,13.77s-6.56-11.23-8.07-10.58,3.94,11.64,3.4,12.14-6.89-9.47-8-9.62,4.36,11.31,3.88,12.1-6.91-5.86-7.54-5.38-1.14.7,9,19.82l4.32,7.36,6.77,4.1,7.6-5.72s4.37-27.51,3.52-28.29S477.08,1407,472.24,1415.47Z" transform="translate(-47.13 -37.13)"/><path class="cls-19" d="M575.41,1600.27s-33.07,42.64-25.23,110.52,6.09,92.24,6.09,92.24-42.64,39.16-55.7,95.73c0,0,18.71,13,31.33,15.23,0,0,62.66-95.73,67.45-107S615.44,1602,615.44,1602Z" transform="translate(-47.13 -37.13)"/><path class="cls-19" d="M605.76,1629.25l7.07,130.56s10.45,138.08,23.79,167.09h29.59L651.7,1602.59H607.61Z" transform="translate(-47.13 -37.13)"/><path class="cls-24" d="M659.4,1519A76.32,76.32,0,0,0,631.75,1468a16.16,16.16,0,0,0-6.44-3.18c-6.4-1.53-14.76-1.82-18.85-1.87H593s-21.61,1.2-31.22,4.2-47.43,19.82-51.63,17.41-33.63-55.83-33.63-55.83l-16.21,8.4s10.21,74.79,38.43,80.32,55.83-1.67,55.83-1.67,5.41,75,19.22,88.26c0,0,54.53,3.7,74.8,1.36a8.25,8.25,0,0,0,7.2-6.91C657.94,1585.14,662.73,1549.84,659.4,1519Z" transform="translate(-47.13 -37.13)"/><path class="cls-14" d="M642,1478.16a76.23,76.23,0,0,0-10.22-10.1,16.15,16.15,0,0,0-6.46-3.2c-6.4-1.53-14.75-1.82-18.85-1.87H593s-3.68.21-8.67.66C595.19,1471.94,615.55,1483.15,642,1478.16Z" transform="translate(-47.13 -37.13)"/><path class="cls-16" d="M596.07,1443.08s.68,5.26,1.12,11.63a27.55,27.55,0,0,0,20.93,6,27.05,27.05,0,0,0,7.22-2c-.18-4.15-.11-8,.53-9.84C627.63,1443.85,596.07,1443.08,596.07,1443.08Z" transform="translate(-47.13 -37.13)"/><path class="cls-16" d="M640.77,1417.34c-1.42,3.85-.07,7.88,3,9s6.72-1.07,8.14-4.92.07-7.89-3-9S642.18,1413.49,640.77,1417.34Z" transform="translate(-47.13 -37.13)"/><path class="cls-14" d="M640.44,1439.58a31.13,31.13,0,0,0,2.21-5.28,58.48,58.48,0,0,0,2.67-14.69c.06-1,.18-1.94.31-2.91a31.72,31.72,0,1,0-63.12-3.31,6.82,6.82,0,0,0-6.19-.27c-3.7,1.81-4.87,7-2.61,11.66s7.1,6.92,10.81,5.11a6.38,6.38,0,0,0,1.38-1c2.12,15.47,15.25,27,30.5,26.24a28.51,28.51,0,0,0,19-8.7c.33-.3.68-.65,1-1A27.83,27.83,0,0,0,640.44,1439.58Z" transform="translate(-47.13 -37.13)"/><path class="cls-17" d="M611.91,1417.74a3,3,0,1,1-3.13-2.82A3,3,0,0,1,611.91,1417.74Z" transform="translate(-47.13 -37.13)"/><path class="cls-17" d="M638.37,1417.74a3,3,0,1,1-3.13-2.82A3,3,0,0,1,638.37,1417.74Z" transform="translate(-47.13 -37.13)"/><path class="cls-12" d="M614.42,1412.77a18.55,18.55,0,0,0-4.2-1.61,13.26,13.26,0,0,0-4.34-.33,11.77,11.77,0,0,0-2.13.4c-.36.09-.7.23-1,.34-.18.06-.34.14-.51.21l-.51.22a22.68,22.68,0,0,0-3.81,2.4,12.05,12.05,0,0,1,3.42-3.13,10.64,10.64,0,0,1,4.48-1.5,10.91,10.91,0,0,1,4.68.6,11.73,11.73,0,0,1,2.12,1A9.31,9.31,0,0,1,614.42,1412.77Z" transform="translate(-47.13 -37.13)"/><path class="cls-12" d="M626.43,1412.77a9.31,9.31,0,0,1,1.84-1.4,11.73,11.73,0,0,1,2.12-1,10.91,10.91,0,0,1,4.68-.6,10.64,10.64,0,0,1,4.48,1.5,12.05,12.05,0,0,1,3.42,3.13,22.68,22.68,0,0,0-3.81-2.4l-.51-.22-.51-.21c-.34-.11-.68-.25-1-.34a11.93,11.93,0,0,0-2.13-.4,13.26,13.26,0,0,0-4.34.33A18.38,18.38,0,0,0,626.43,1412.77Z" transform="translate(-47.13 -37.13)"/><path class="cls-9" d="M555,1515.34a26,26,0,0,0,2.15-2.6,28.39,28.39,0,0,0,1.82-2.87,24.76,24.76,0,0,0,1.5-3.06,29.69,29.69,0,0,0,1.13-3.25,18.05,18.05,0,0,1-.72,3.4c-.16.56-.38,1.1-.58,1.64s-.46,1.08-.72,1.59a24.61,24.61,0,0,1-1.79,3,21.74,21.74,0,0,1-1.76,2.2,11.83,11.83,0,0,0,1.79.22,13.09,13.09,0,0,0,2.5-.11c.42,0,.82-.15,1.23-.24a12.11,12.11,0,0,0,1.21-.37,13.14,13.14,0,0,0,2.3-1.11,10.12,10.12,0,0,1-2.16,1.43,10.24,10.24,0,0,1-2.48.85,11.54,11.54,0,0,1-2.62.27,10.93,10.93,0,0,1-2.64-.34l-.63-.16Z" transform="translate(-47.13 -37.13)"/><path class="cls-37" d="M644.62,1646.58c-1.78,1.74-3.5,3.52-5.18,5.35s-3.3,3.7-4.9,5.6-3.17,3.81-4.7,5.76-3.07,3.91-4.54,5.9l-.32-.32a44.52,44.52,0,0,1,4.17-2.66,49.13,49.13,0,0,1,4.43-2.18,38.26,38.26,0,0,1,4.63-1.69l1.19-.34,1.2-.27.6-.14.61-.1,1.21-.21-1.2.26-.6.13-.6.16-1.18.32-1.17.38c-.39.12-.77.26-1.16.41s-.77.27-1.15.42l-1.13.47c-.38.15-.74.33-1.12.5-1.48.68-2.93,1.44-4.35,2.25a46.42,46.42,0,0,0-4.11,2.65l-1.21.89.89-1.21c1.47-2,3-4,4.53-5.92s3.14-3.85,4.76-5.74,3.31-3.7,5-5.51c.87-.88,1.74-1.77,2.64-2.63S643.69,1647.42,644.62,1646.58Z" transform="translate(-47.13 -37.13)"/><path class="cls-37" d="M602.94,1668.57c-1.91-2.58-3.86-5.11-5.89-7.6s-4.08-4.94-6.19-7.36-4.3-4.75-6.52-7.06c-1.13-1.14-2.25-2.28-3.43-3.37s-2.35-2.18-3.55-3.24q3.46,3.33,6.73,6.85c2.17,2.35,4.28,4.75,6.36,7.18s4.12,4.89,6.12,7.39c1.6,2,3.21,4.06,4.78,6.11-1.26-.83-2.56-1.61-3.88-2.35a61.79,61.79,0,0,0-5.73-2.78,50.66,50.66,0,0,0-6-2.14l-1.54-.42-1.55-.35-.77-.17-.79-.13-1.57-.25,1.56.33.77.16.77.2,1.53.4,1.51.48c.51.15,1,.33,1.5.51s1,.35,1.48.55l1.47.59c.49.19,1,.42,1.45.63,1.92.87,3.79,1.83,5.63,2.87a57.54,57.54,0,0,1,5.31,3.39l1.57,1.13Z" transform="translate(-47.13 -37.13)"/><path class="cls-45" d="M615,1435.1a8.2,8.2,0,0,1,6.79.9s3.55-2.23,6.35-.1a6.75,6.75,0,0,1-7.14,4.94A6,6,0,0,1,615,1435.1Z" transform="translate(-47.13 -37.13)"/><path class="cls-16" d="M611.92,1433.2a18.41,18.41,0,0,0,2.07,1.46,19.7,19.7,0,0,0,2.22,1.18,15.25,15.25,0,0,0,4.8,1.28,13,13,0,0,0,4.91-.54,18.58,18.58,0,0,0,4.5-2.25,16.31,16.31,0,0,1-2,1.56,14.21,14.21,0,0,1-2.31,1.15,11.53,11.53,0,0,1-2.52.65,12.32,12.32,0,0,1-7.56-1.41A14.73,14.73,0,0,1,611.92,1433.2Z" transform="translate(-47.13 -37.13)"/><path class="cls-16" d="M622.93,1416.37a35.27,35.27,0,0,1,2.21,4.22,34.41,34.41,0,0,1,1.66,4.49,13.13,13.13,0,0,1,.45,2.42,5,5,0,0,1,0,.66,2.29,2.29,0,0,1-.07.36,1.65,1.65,0,0,1-.17.39l-.15.19-.12.11c-.09.06-.17.14-.25.2s-.35.25-.53.35a11.58,11.58,0,0,1-2.21,1,15.37,15.37,0,0,1-2.31.6,26,26,0,0,0,4.1-2.24c.15-.11.29-.23.43-.35l.2-.19.09-.09,0,0a2,2,0,0,0,.07-.89,14.09,14.09,0,0,0-.47-2.23c-.41-1.49-.93-3-1.43-4.46S623.41,1417.89,622.93,1416.37Z" transform="translate(-47.13 -37.13)"/><path class="cls-12" d="M579.23,1407.05l2.52-2.3,1.1-7.47,7.37-17.48,36.76-5.65s-.47,2.88-.94,6c4.28,1.78,10.75,4.43,10.75,4.43s-21.2,24-54.28,28.79a7.11,7.11,0,0,0-6.19-.27Z" transform="translate(-47.13 -37.13)"/><path class="cls-12" d="M600.86,1369.3s-4-36.75-33.11-39.66-42.2,10.55-60,2.91c0,0-2.55,38.93,33.11,31.65s53.48,12.38,53.48,12.38Z" transform="translate(-47.13 -37.13)"/><path class="cls-4" d="M2073,790.21a32.39,32.39,0,0,0-39.7-24.05A47.7,47.7,0,0,0,1976,740.84,58.73,58.73,0,0,0,1870.5,751.1a40.29,40.29,0,0,0-59.87,35.21c0,1.31.07,2.62.19,3.9Z" transform="translate(-47.13 -37.13)"/><path class="cls-4" d="M880.14,683.22A44.7,44.7,0,0,0,825.33,650a65.78,65.78,0,0,0-79.13-34.95,81.06,81.06,0,0,0-145.61,14.16A55.6,55.6,0,0,0,518,677.82c0,1.82.09,3.62.26,5.4Z" transform="translate(-47.13 -37.13)"/><rect class="cls-46" x="1220.88" y="1707.13" width="250.58" height="17.02"/><rect class="cls-46" x="1220.88" y="1754.2" width="250.58" height="17.02"/><rect class="cls-24" x="382.44" y="1310.95" width="52.17" height="16.87" transform="translate(550.16 -85.97) rotate(25.06)"/><rect class="cls-24" x="904.66" y="533.64" width="52.17" height="16.87" transform="translate(270.07 -380.32) rotate(25.06)"/><rect class="cls-24" x="2221.85" y="975.38" width="52.17" height="16.87" transform="translate(581.18 -896.66) rotate(25.06)"/><rect class="cls-24" x="2132.68" y="458.04" width="52.17" height="16.87" transform="translate(353.64 -907.56) rotate(25.06)"/><rect class="cls-24" x="1490.68" y="567.42" width="52.17" height="16.87" transform="translate(339.54 -625.35) rotate(25.06)"/><rect class="cls-24" x="1349.11" y="186.17" width="52.17" height="16.87" transform="translate(164.74 -601.27) rotate(25.06)"/><rect class="cls-32" x="1144.04" y="339.31" width="52.17" height="16.87" transform="translate(359.79 -642.08) rotate(34.75)"/><rect class="cls-32" x="338.18" y="742.89" width="52.17" height="16.87" transform="translate(446.11 -110.76) rotate(34.75)"/><rect class="cls-32" x="2171.27" y="800.64" width="52.17" height="16.87" transform="translate(805.95 -1145.32) rotate(34.75)"/><rect class="cls-32" x="1777.34" y="941.67" width="52.17" height="16.87" transform="translate(816.08 -895.62) rotate(34.75)"/><rect class="cls-32" x="1929.49" y="107.71" width="52.17" height="16.87" transform="translate(367.87 -1131.11) rotate(34.75)"/><rect class="cls-32" x="696.3" y="251.09" width="52.17" height="16.87" transform="translate(229.64 -402.6) rotate(34.75)"/><rect class="cls-32" x="173.58" y="1266.1" width="52.17" height="16.87" transform="translate(714.99 76.39) rotate(34.75)"/><rect class="cls-10" x="410.97" y="1107.4" width="52.17" height="16.87" transform="translate(-693.62 1590.6) rotate(-93.9)"/><rect class="cls-10" x="2394.28" y="1147.42" width="52.17" height="16.87" transform="translate(1384.61 3612.08) rotate(-93.9)"/><rect class="cls-10" x="1588.24" y="339.31" width="52.17" height="16.87" transform="translate(1329.98 1944.84) rotate(-93.9)"/><rect class="cls-10" x="640.12" y="579.35" width="52.17" height="16.87" transform="translate(77.95 1255.28) rotate(-93.9)"/><rect class="cls-10" x="164.55" y="1531.87" width="52.17" height="16.87" transform="translate(-1380.27 1798.08) rotate(-93.9)"/><rect class="cls-12" x="283.09" y="975.38" width="52.17" height="16.87" transform="translate(945.67 1718.79) rotate(155.92)"/><rect class="cls-12" x="48.3" y="1408.64" width="52.17" height="16.87" transform="translate(673.25 2643.4) rotate(155.92)"/><rect class="cls-12" x="538.99" y="870.29" width="52.17" height="16.87" transform="translate(1392.32 1413.35) rotate(155.92)"/><rect class="cls-12" x="491.86" y="427.26" width="52.17" height="16.87" transform="translate(1121.45 585.07) rotate(155.92)"/><rect class="cls-12" x="915.08" y="364.38" width="52.17" height="16.87" transform="translate(1905.42 292.13) rotate(155.92)"/><rect class="cls-12" x="1124.6" y="81.2" width="52.17" height="16.87" transform="translate(2190.71 -335.07) rotate(155.92)"/><rect class="cls-12" x="1646.01" y="47.04" width="52.17" height="16.87" transform="translate(3174.24 -613.12) rotate(155.92)"/><rect class="cls-12" x="1915.74" y="364.38" width="52.17" height="16.87" transform="translate(3819.68 -116.08) rotate(155.92)"/><rect class="cls-12" x="2345.02" y="758.49" width="52.17" height="16.87" transform="translate(4801.67 462.75) rotate(155.92)"/><rect class="cls-12" x="2059.77" y="1150.66" width="52.17" height="16.87" transform="translate(4415.97 1329.32) rotate(155.92)"/><rect class="cls-12" x="2196.28" y="257.51" width="52.17" height="16.87" transform="translate(4312.78 -434.95) rotate(155.92)"/><path class="cls-9" d="M524.16,1960.62l-42.8-31a3,3,0,0,1-.66-4.13h0a3,3,0,0,1,4.13-.66l42.8,31a3,3,0,0,1,.66,4.13h0A3,3,0,0,1,524.16,1960.62Z" transform="translate(-47.13 -37.13)"/><path class="cls-17" d="M495.15,1910.12l-11.22,12.18c-1.39,1.5-1.55,3.66-.34,4.53l41.93,30.38a3.77,3.77,0,0,0,4.16,0c1.54-.88,3.08-2.77,3.13-6.78.09-7.81-10.68-17.69-13.81-26.41a2.61,2.61,0,0,0-.94-1.25l-18.84-13.66C498.13,1908.34,496.4,1908.76,495.15,1910.12Z" transform="translate(-47.13 -37.13)"/><path class="cls-9" d="M510.18,1928.87h0a1.11,1.11,0,0,1,.55-1.26c2.14-1.23,7.94-3.8,12.51.9a.92.92,0,0,1-.17,1.2h0a.74.74,0,0,1-1.06.17c-4.12-4.2-9.14-1.87-10.91-.82C510.71,1929.29,510.32,1929.21,510.18,1928.87Z" transform="translate(-47.13 -37.13)"/><path class="cls-9" d="M513.29,1933.74h0a1.14,1.14,0,0,1,.55-1.26c2.15-1.23,7.94-3.8,12.52.9a.94.94,0,0,1-.18,1.2h0a.74.74,0,0,1-1.06.17c-4.11-4.2-9.14-1.87-10.91-.82C513.82,1934.16,513.43,1934.08,513.29,1933.74Z" transform="translate(-47.13 -37.13)"/><path class="cls-9" d="M516.19,1938.28h0a1.11,1.11,0,0,1,.54-1.26c2.15-1.23,7.94-3.81,12.52.9a.92.92,0,0,1-.18,1.2h0a.75.75,0,0,1-1.06.17c-4.11-4.2-9.14-1.87-10.91-.83A.58.58,0,0,1,516.19,1938.28Z" transform="translate(-47.13 -37.13)"/><path class="cls-9" d="M691.5,1961.65l-52.85,0a3,3,0,0,1-2.95-2.95h0a3,3,0,0,1,3-3l52.85,0a3,3,0,0,1,3,3h0A3,3,0,0,1,691.5,1961.65Z" transform="translate(-47.13 -37.13)"/><path class="cls-17" d="M638.4,1937.73l-2,16.45c-.24,2,.9,3.87,2.39,3.87l51.78,0a3.75,3.75,0,0,0,3.38-2.41c.73-1.62.88-4.06-1.44-7.34-4.5-6.37-19-8.07-26.67-13.3a2.65,2.65,0,0,0-1.5-.46l-23.26,0C639.77,1934.55,638.62,1935.9,638.4,1937.73Z" transform="translate(-47.13 -37.13)"/><path class="cls-9" d="M661.57,1944.12h0a1.11,1.11,0,0,1-.29-1.34c1-2.25,4.2-7.74,10.66-6.61a.92.92,0,0,1,.56,1.08h0c-.06.5-.4.82-.76.76-5.79-1-8.5,3.84-9.32,5.73C662.24,1944.15,661.88,1944.31,661.57,1944.12Z" transform="translate(-47.13 -37.13)"/><path class="cls-9" d="M667,1946.24h0a1.11,1.11,0,0,1-.3-1.34c1-2.25,4.2-7.74,10.67-6.61a.93.93,0,0,1,.56,1.08h0c-.06.5-.4.82-.76.76-5.8-1-8.5,3.84-9.32,5.73C667.62,1946.27,667.26,1946.43,667,1946.24Z" transform="translate(-47.13 -37.13)"/><path class="cls-9" d="M672,1948.22h0a1.11,1.11,0,0,1-.3-1.34c1-2.25,4.2-7.74,10.67-6.61a.92.92,0,0,1,.56,1.07v0c-.06.5-.4.82-.76.76-5.79-1-8.5,3.84-9.32,5.73C672.62,1948.25,672.26,1948.41,672,1948.22Z" transform="translate(-47.13 -37.13)"/><path class="cls-9" d="M872.43,1955.91h47.13a2.57,2.57,0,0,1,2.57,2.57v.13a2.56,2.56,0,0,1-2.56,2.56H872.44a2.57,2.57,0,0,1-2.57-2.57v-.13a2.56,2.56,0,0,1,2.56-2.56Z" transform="translate(1746.09 3879.38) rotate(179.96)"/><path class="cls-17" d="M919.73,1939.91l1.74,14.63c.21,1.8-.79,3.44-2.12,3.44l-46.06,0a3.35,3.35,0,0,1-3-2.15c-.65-1.44-.78-3.6,1.28-6.52,4-5.67,16.92-7.18,23.72-11.83a2.32,2.32,0,0,1,1.33-.41h20.69C918.51,1937.09,919.53,1938.28,919.73,1939.91Z" transform="translate(-47.13 -37.13)"/><path class="cls-9" d="M981,1955.91h47.13a2.57,2.57,0,0,1,2.57,2.57v.13a2.56,2.56,0,0,1-2.56,2.56H981a2.57,2.57,0,0,1-2.57-2.57v-.13a2.56,2.56,0,0,1,2.56-2.56Z" transform="translate(1963.28 3879.32) rotate(179.96)"/><path class="cls-17" d="M1028.32,1939.91l1.74,14.63c.22,1.8-.79,3.44-2.12,3.44l-46.05,0a3.35,3.35,0,0,1-3-2.15c-.65-1.44-.78-3.6,1.28-6.52,4-5.67,16.92-7.18,23.72-11.83a2.35,2.35,0,0,1,1.33-.41h20.7C1027.1,1937.09,1028.13,1938.28,1028.32,1939.91Z" transform="translate(-47.13 -37.13)"/><path class="cls-9" d="M1836.2,1961.22l52.85,0a3,3,0,0,0,3-3h0a3,3,0,0,0-3-3l-52.85,0a3,3,0,0,0-3,3h0A3,3,0,0,0,1836.2,1961.22Z" transform="translate(-47.13 -37.13)"/><path class="cls-17" d="M1889.3,1937.31l2,16.44c.24,2-.89,3.88-2.38,3.88l-51.79,0a3.78,3.78,0,0,1-3.38-2.42c-.73-1.61-.87-4,1.44-7.33,4.51-6.37,19-8.07,26.67-13.3a2.59,2.59,0,0,1,1.5-.47h23.27C1887.93,1934.13,1889.08,1935.47,1889.3,1937.31Z" transform="translate(-47.13 -37.13)"/><path class="cls-9" d="M1866.13,1943.69h0a1.11,1.11,0,0,0,.3-1.34c-1-2.25-4.2-7.73-10.67-6.6-.37.06-.63.56-.56,1.07v0c.06.49.4.82.76.75,5.79-1,8.5,3.85,9.32,5.73C1865.46,1943.73,1865.82,1943.88,1866.13,1943.69Z" transform="translate(-47.13 -37.13)"/><path class="cls-9" d="M1860.76,1945.81h0a1.11,1.11,0,0,0,.29-1.34c-1-2.25-4.2-7.73-10.67-6.6-.37.06-.62.56-.56,1.07v0c.06.49.4.82.76.75,5.8-1,8.5,3.85,9.33,5.73C1860.08,1945.85,1860.44,1946,1860.76,1945.81Z" transform="translate(-47.13 -37.13)"/><path class="cls-9" d="M1855.75,1947.79h0a1.1,1.1,0,0,0,.3-1.34c-1-2.25-4.2-7.74-10.67-6.6-.37.06-.62.56-.56,1.07v0c.06.49.4.81.76.75,5.8-1,8.5,3.85,9.33,5.73C1855.08,1947.83,1855.44,1948,1855.75,1947.79Z" transform="translate(-47.13 -37.13)"/><path class="cls-42" d="M2021.84,1961.22l52.85,0a3,3,0,0,0,3-3h0a3,3,0,0,0-3-3l-52.85,0a3,3,0,0,0-3,3h0A3,3,0,0,0,2021.84,1961.22Z" transform="translate(-47.13 -37.13)"/><path class="cls-24" d="M2074.94,1937.31l2,16.44c.24,2-.89,3.88-2.38,3.88l-51.78,0a3.78,3.78,0,0,1-3.39-2.42c-.72-1.61-.87-4,1.45-7.33,4.5-6.37,19-8.07,26.66-13.3a2.64,2.64,0,0,1,1.5-.47h23.27C2073.58,1934.13,2074.73,1935.47,2074.94,1937.31Z" transform="translate(-47.13 -37.13)"/><path class="cls-9" d="M2051.78,1943.69h0a1.11,1.11,0,0,0,.29-1.34c-1-2.25-4.2-7.73-10.67-6.6-.37.06-.62.56-.56,1.07v0c.07.49.4.82.76.75,5.8-1,8.5,3.85,9.33,5.73A.58.58,0,0,0,2051.78,1943.69Z" transform="translate(-47.13 -37.13)"/><path class="cls-9" d="M2046.4,1945.81h0a1.11,1.11,0,0,0,.29-1.34c-1-2.25-4.2-7.73-10.66-6.6-.38.06-.63.56-.57,1.07v0c.06.49.4.82.76.75,5.79-1,8.5,3.85,9.32,5.73C2045.73,1945.85,2046.09,1946,2046.4,1945.81Z" transform="translate(-47.13 -37.13)"/><path class="cls-9" d="M2041.4,1947.79h0a1.11,1.11,0,0,0,.29-1.34c-1-2.25-4.2-7.74-10.66-6.6-.38.06-.63.56-.57,1.07v0c.06.49.4.81.76.75,5.79-1,8.5,3.85,9.32,5.73C2040.73,1947.83,2041.09,1948,2041.4,1947.79Z" transform="translate(-47.13 -37.13)"/><path class="cls-42" d="M2210.24,1961.22l-52.85,0a3,3,0,0,1-2.95-3h0a3,3,0,0,1,2.95-3l52.85,0a3,3,0,0,1,3,3h0A3,3,0,0,1,2210.24,1961.22Z" transform="translate(-47.13 -37.13)"/><path class="cls-24" d="M2157.14,1937.31l-2,16.44c-.24,2,.89,3.88,2.38,3.88l51.79,0a3.78,3.78,0,0,0,3.38-2.42c.73-1.61.87-4-1.44-7.33-4.51-6.37-19-8.07-26.67-13.3a2.59,2.59,0,0,0-1.5-.47h-23.27C2158.51,1934.13,2157.36,1935.47,2157.14,1937.31Z" transform="translate(-47.13 -37.13)"/><path class="cls-9" d="M2180.31,1943.69h0a1.11,1.11,0,0,1-.3-1.34c1-2.25,4.2-7.73,10.67-6.6.37.06.63.56.56,1.07v0c-.06.49-.4.82-.76.75-5.8-1-8.5,3.85-9.32,5.73C2181,1943.73,2180.62,1943.88,2180.31,1943.69Z" transform="translate(-47.13 -37.13)"/><path class="cls-9" d="M2185.68,1945.81h0a1.11,1.11,0,0,1-.29-1.34c1-2.25,4.2-7.73,10.67-6.6.37.06.62.56.56,1.07v0c-.07.49-.4.82-.76.75-5.8-1-8.5,3.85-9.33,5.73C2186.36,1945.85,2186,1946,2185.68,1945.81Z" transform="translate(-47.13 -37.13)"/><path class="cls-9" d="M2190.68,1947.79h0a1.11,1.11,0,0,1-.29-1.34c1-2.25,4.2-7.74,10.67-6.6.37.06.62.56.56,1.07v0c-.07.49-.4.81-.76.75-5.8-1-8.5,3.85-9.33,5.73A.58.58,0,0,1,2190.68,1947.79Z" transform="translate(-47.13 -37.13)"/><path class="cls-9" d="M1759.31,1961.22l52.85,0a3,3,0,0,0,3-3h0a3,3,0,0,0-3-3l-52.85,0a3,3,0,0,0-3,3h0A3,3,0,0,0,1759.31,1961.22Z" transform="translate(-47.13 -37.13)"/><path class="cls-17" d="M1812.41,1937.31l2,16.44c.24,2-.89,3.88-2.38,3.88l-51.79,0a3.78,3.78,0,0,1-3.38-2.42c-.73-1.61-.87-4,1.44-7.33,4.51-6.37,19-8.07,26.67-13.3a2.59,2.59,0,0,1,1.5-.47h23.27C1811,1934.13,1812.19,1935.47,1812.41,1937.31Z" transform="translate(-47.13 -37.13)"/><path class="cls-9" d="M1789.24,1943.69h0a1.11,1.11,0,0,0,.3-1.34c-1-2.25-4.2-7.73-10.67-6.6-.37.06-.62.56-.56,1.07v0c.06.49.4.82.76.75,5.8-1,8.5,3.85,9.32,5.73C1788.57,1943.73,1788.93,1943.88,1789.24,1943.69Z" transform="translate(-47.13 -37.13)"/><path class="cls-9" d="M1783.87,1945.81h0a1.11,1.11,0,0,0,.29-1.34c-1-2.25-4.2-7.73-10.66-6.6-.38.06-.63.56-.57,1.07v0c.07.49.4.82.76.75,5.8-1,8.5,3.85,9.33,5.73C1783.19,1945.85,1783.56,1946,1783.87,1945.81Z" transform="translate(-47.13 -37.13)"/><path class="cls-9" d="M1778.87,1947.79h0a1.11,1.11,0,0,0,.29-1.34c-1-2.25-4.2-7.74-10.67-6.6-.37.06-.62.56-.56,1.07v0c.07.49.4.81.76.75,5.8-1,8.5,3.85,9.33,5.73A.58.58,0,0,0,1778.87,1947.79Z" transform="translate(-47.13 -37.13)"/></g></g></svg>